<svg xmlns="http://www.w3.org/2000/svg" width="190" height="124" viewBox="0 0 190 124"><g transform="translate(-178 -857)"><rect width="190" height="124" transform="translate(178 857)" fill="#ebecff"/><g transform="translate(236.822 875.959)"><path d="M60.314,51.206V6.777A2.777,2.777,0,0,0,57.537,4H4.777A2.777,2.777,0,0,0,2,6.777V81.752a2.777,2.777,0,0,0,2.777,2.777H60.314Z" transform="translate(-0.612 0.165)" fill="#5490f5"/><path d="M16.458,78.975H60.314V6.777A2.777,2.777,0,0,0,57.537,4H4.777A2.777,2.777,0,0,0,2,6.777v57.74A14.458,14.458,0,0,0,16.458,78.975Z" transform="translate(-0.612 0.165)" fill="#76a6f7"/><path d="M53.206,4V51.206L44.876,76.2H17.107L6,65.09V4Z" transform="translate(0.942 0.165)" fill="#eaebef"/><rect width="37.86" height="34.074" rx="1" transform="translate(46.705 50.613)" fill="#ffc239"/><path d="M69.934,38H38V55.445A11.71,11.71,0,0,0,49.713,67.157H71.322V39.388A1.388,1.388,0,0,0,69.934,38Z" transform="translate(13.372 13.372)" fill="#ffd55d"/><path d="M15,2H37.215v8.331H15Z" transform="translate(4.438 -0.612)" fill="#88898d"/><path d="M6,48H17.107V59.107Z" transform="translate(0.942 17.256)" fill="#f6f8ff"/><g transform="translate(11.107 36.099)"><path d="M15.942,35.331H10.388A1.388,1.388,0,0,1,9,33.942V28.388A1.388,1.388,0,0,1,10.388,27h5.554a1.388,1.388,0,0,1,1.388,1.388v5.554A1.388,1.388,0,0,1,15.942,35.331Zm-4.165-2.777h2.777V29.777H11.777Z" transform="translate(-9 -27)" fill="#88898d"/><path d="M15.942,45.331H10.388A1.388,1.388,0,0,1,9,43.942V38.388A1.388,1.388,0,0,1,10.388,37h5.554a1.388,1.388,0,0,1,1.388,1.388v5.554A1.388,1.388,0,0,1,15.942,45.331Zm-4.165-2.777h2.777V39.777H11.777Z" transform="translate(-9 -23.116)" fill="#88898d"/><path d="M17,27H41.992v2.777H17Z" transform="translate(-5.893 -27)" fill="#88898d"/><path d="M17,31H35.049v2.777H17Z" transform="translate(-5.893 -25.446)" fill="#88898d"/><path d="M17,37H35.049v2.777H17Z" transform="translate(-5.893 -23.116)" fill="#88898d"/><path d="M17,41H35.049v2.777H17Z" transform="translate(-5.893 -21.562)" fill="#88898d"/></g><path d="M44,38H55.107V51.884H44Z" transform="translate(15.702 13.372)" fill="#e8e4d8"/><path d="M53,53h8.331v2.777H53Z" transform="translate(19.198 19.198)" fill="#fff"/><path d="M49,57H62.884v2.777H49Z" transform="translate(17.644 20.752)" fill="#fff"/><path d="M16,12H35.438V28.661H16Z" transform="translate(4.826 3.273)" fill="#ffc239"/><path d="M18,19.243a6.64,6.64,0,0,0,6.642,6.641H34.661V12H18Z" transform="translate(5.603 3.273)" fill="#ffd55d"/><path d="M21,12h5.554v6.942H21Z" transform="translate(6.768 3.273)" fill="#e8e4d8"/><path d="M17,2.664a4.89,4.89,0,0,0,4.89,4.89H36.438V2H17Z" transform="translate(5.215 -0.612)" fill="#a0a1a4"/><path d="M16.388,30.438H35.826a1.388,1.388,0,0,0,1.388-1.388V12.388A1.388,1.388,0,0,0,35.826,11H16.388A1.388,1.388,0,0,0,15,12.388V29.049A1.388,1.388,0,0,0,16.388,30.438Zm8.331-16.661H27.5v4.165H24.719Zm-6.942,0h4.165v5.554a1.388,1.388,0,0,0,1.388,1.388h5.554a1.388,1.388,0,0,0,1.388-1.388V13.777h4.165V27.661H17.777Z" transform="translate(4.438 2.884)"/><path d="M10.388,27A1.388,1.388,0,0,0,9,28.388v5.554a1.388,1.388,0,0,0,1.388,1.388h5.554a1.388,1.388,0,0,0,1.388-1.388V28.388A1.388,1.388,0,0,0,15.942,27Zm4.165,5.554H11.777V29.777h2.777Z" transform="translate(2.107 9.099)"/><path d="M15.942,37H10.388A1.388,1.388,0,0,0,9,38.388v5.554a1.388,1.388,0,0,0,1.388,1.388h5.554a1.388,1.388,0,0,0,1.388-1.388V38.388A1.388,1.388,0,0,0,15.942,37Zm-1.388,5.554H11.777V39.777h2.777Z" transform="translate(2.107 12.983)"/><path d="M17,27H41.992v2.777H17Z" transform="translate(5.215 9.099)"/><path d="M17,31H35.049v2.777H17Z" transform="translate(5.215 10.653)"/><path d="M17,37H35.049v2.777H17Z" transform="translate(5.215 12.983)"/><path d="M17,41H35.049v2.777H17Z" transform="translate(5.215 14.537)"/><path d="M84.305,50.983H62.09V7.942a4.165,4.165,0,0,0-4.165-4.165H44.041V2.388A1.388,1.388,0,0,0,42.653,1H20.438a1.388,1.388,0,0,0-1.388,1.388V3.777H5.165A4.165,4.165,0,0,0,1,7.942V82.917a4.165,4.165,0,0,0,4.165,4.165h79.14a2.777,2.777,0,0,0,2.777-2.777V53.76A2.777,2.777,0,0,0,84.305,50.983ZM62.09,53.76h8.331V64.867H62.09ZM59.314,7.942V50.983H56.537V6.554h1.388A1.388,1.388,0,0,1,59.314,7.942ZM21.826,3.777H41.264V9.331H21.826Zm-1.388,8.331H42.653a1.388,1.388,0,0,0,1.388-1.388V6.554H53.76V50.983H48.206a2.777,2.777,0,0,0-2.777,2.777V75.975H20.438V66.256a1.388,1.388,0,0,0-1.388-1.388H9.331V6.554h9.719v4.165A1.388,1.388,0,0,0,20.438,12.107Zm-2.777,61.9-6.367-6.367h6.367ZM5.165,84.305a1.388,1.388,0,0,1-1.388-1.388V7.942A1.388,1.388,0,0,1,5.165,6.554H6.554v59.7a1.388,1.388,0,0,0,.407.981L18.068,78.345a1.388,1.388,0,0,0,.982.407h26.38v5.554Zm43.041,0V53.76H59.314v12.5A1.388,1.388,0,0,0,60.7,67.644H71.809A1.388,1.388,0,0,0,73.2,66.256V53.76H84.305V84.305Z" transform="translate(-1 -1)"/><path d="M53,53h8.331v2.777H53Z" transform="translate(19.198 19.198)"/><path d="M49,57H62.884v2.777H49Z" transform="translate(17.644 20.752)"/></g></g></svg>