<svg xmlns="http://www.w3.org/2000/svg" width="190" height="119" viewBox="0 0 190 119"><g transform="translate(-1230.333 -275)"><rect width="190" height="115" transform="translate(1230.333 277)" fill="#eafcfa"/><g transform="translate(246.603 -2817)"><g transform="translate(1040.731 3108.8)"><path d="M94.672,132.981H41.586a4.985,4.985,0,0,1-4.974-4.969V61.368A4.985,4.985,0,0,1,41.586,56.4H94.672a4.984,4.984,0,0,1,4.969,4.969v66.644a4.984,4.984,0,0,1-4.969,4.969Z" transform="translate(-35.584 -47.391)" fill="#6a6e6d" fill-rule="evenodd"/><path d="M112.912,132.981H63.606a4.984,4.984,0,0,1-4.969-4.969V61.368A4.984,4.984,0,0,1,63.606,56.4h49.306a4.984,4.984,0,0,1,4.969,4.969v66.644a4.984,4.984,0,0,1-4.969,4.969Z" transform="translate(-53.824 -47.391)" fill="#777878" fill-rule="evenodd"/><path d="M70.09,89.847h51.527v65.08H70.09Z" transform="translate(-63.309 -75.091)" fill="#e8e8e8"/><path d="M156.888,23.743H123.834V17.97a3.93,3.93,0,0,1,3.917-3.917h5.018a9.131,9.131,0,0,1,15.185,0h5.018a3.93,3.93,0,0,1,3.917,3.917v5.773Z" transform="translate(-107.816 -8.962)" fill="#f8a04c" fill-rule="evenodd"/><path d="M176.772,23.743H147.844V17.97a3.929,3.929,0,0,1,3.912-3.917h.9a9.131,9.131,0,0,1,15.185,0h5.018a3.93,3.93,0,0,1,3.917,3.917Z" transform="translate(-127.7 -8.962)" fill="#ffab5c" fill-rule="evenodd"/><path d="M70.09,89.847h4.228v65.08H70.09Z" transform="translate(-63.309 -75.091)" fill="#dbdbdb"/><path d="M174.162,324.761a1.033,1.033,0,1,1,0-2.066H188.8a1.033,1.033,0,1,1,0,2.066Zm0-21.445a1.03,1.03,0,1,1,0-2.061H188.8a1.03,1.03,0,1,1,0,2.061Zm0,3.941a1.033,1.033,0,1,1,0-2.065H188.8a1.033,1.033,0,1,1,0,2.065Zm0,4.808a1.03,1.03,0,1,1,0-2.061H188.8a1.03,1.03,0,1,1,0,2.061Zm0,3.941a1.03,1.03,0,1,1,0-2.061H188.8a1.03,1.03,0,1,1,0,2.061Zm0,4.813a1.033,1.033,0,1,1,0-2.065H188.8a1.033,1.033,0,1,1,0,2.065Z" transform="translate(-148.639 -250.167)" fill="#777878"/><g transform="translate(19.93 20.388)"><path d="M159.21,147.846A12.615,12.615,0,1,0,146.6,135.229,12.639,12.639,0,0,0,159.21,147.846Z" transform="translate(-146.597 -122.616)" fill="#30b29c" fill-rule="evenodd"/><path d="M176.753,123.239a12.616,12.616,0,0,1,0,25.016,12.616,12.616,0,0,1,0-25.016Z" transform="translate(-162.489 -123.132)" fill="#4ebdaa" fill-rule="evenodd"/><path d="M299.542,355.029h27.232a1.639,1.639,0,0,0,1.632-1.637V326.165a1.639,1.639,0,0,0-1.632-1.637H299.542a1.639,1.639,0,0,0-1.632,1.637v27.228A1.639,1.639,0,0,0,299.542,355.029Z" transform="translate(-271.905 -289.828)" fill="#d49768" fill-rule="evenodd"/><path d="M344.533,355.029h19.5a1.639,1.639,0,0,0,1.632-1.637V326.165a1.639,1.639,0,0,0-1.632-1.637h-19.5a1.64,1.64,0,0,0-1.637,1.637v27.228A1.64,1.64,0,0,0,344.533,355.029Z" transform="translate(-309.16 -289.828)" fill="#e0a877" fill-rule="evenodd"/></g><path d="M363.958,324.527h7.795v13.84h-7.795Z" transform="translate(-306.673 -269.439)" fill="#fc657c"/><path d="M178.928,163.473a8.523,8.523,0,1,0-8.52-8.525A8.541,8.541,0,0,0,178.928,163.473Z" transform="translate(-146.386 -121.947)" fill="#dbdbdb" fill-rule="evenodd"/><path d="M196.755,147.391a8.523,8.523,0,0,1,0,16.715,8.524,8.524,0,0,1,0-16.715Z" transform="translate(-162.536 -122.745)" fill="#e8e8e8" fill-rule="evenodd"/><path d="M216.748,164.308a1.028,1.028,0,1,1,1.778,1.033l-2.46,4.263v4.867a1.03,1.03,0,1,1-2.061,0v-5.14a.977.977,0,0,1,.141-.511l2.6-4.511Z" transform="translate(-182.49 -136.33)" fill="#777878"/><path d="M66.3,31.588a1.038,1.038,0,0,0-1.418.375l-2.606,4.506a1.058,1.058,0,0,0-.132.516v5.14a1.033,1.033,0,1,0,2.066,0V37.263L66.676,33a1.032,1.032,0,0,0-.375-1.408Zm4.37,5.4a7.493,7.493,0,1,0-7.5,7.493A7.5,7.5,0,0,0,70.671,36.985Zm2.066,0a9.561,9.561,0,1,1-9.563-9.553A9.572,9.572,0,0,1,72.736,36.985ZM106.029,60.71a.609.609,0,0,0-.6-.6H96.744V72.914a1.032,1.032,0,0,1-1.028,1.033h-7.8a1.029,1.029,0,0,1-1.028-1.033V60.106h-8.7a.612.612,0,0,0-.594.6V87.938a.609.609,0,0,0,.594.6H105.43a.606.606,0,0,0,.6-.6V60.71Zm-69.4,27.831H75.606a2.736,2.736,0,0,1-.078-.6V84.854H37.417a1.031,1.031,0,0,1-1.038-1.033V18.741a1.031,1.031,0,0,1,1.038-1.033h8.2V14.026H36.633a3.945,3.945,0,0,0-3.941,3.936V84.606a3.942,3.942,0,0,0,3.941,3.936ZM47.682,12.993v4.716H78.67V12.993a2.887,2.887,0,0,0-2.884-2.884H70.768a1.031,1.031,0,0,1-.857-.458,8.1,8.1,0,0,0-13.47,0,1.023,1.023,0,0,1-.853.458H50.566a2.89,2.89,0,0,0-2.884,2.884Zm42.037,1.033H80.74v3.683h8.2a1.041,1.041,0,0,1,1.038,1.033v39.3h3.678V17.962a3.941,3.941,0,0,0-3.936-3.936Zm-.775,57.855h5.734V60.106H88.944ZM78.193,58.041h9.714V19.774h-7.98a1.169,1.169,0,0,1-.224.024,1.079,1.079,0,0,1-.219-.024H46.873a1.164,1.164,0,0,1-.219.024,1.219,1.219,0,0,1-.229-.024h-7.98V82.788H75.528V60.71a2.673,2.673,0,0,1,2.665-2.67Zm29.9,2.67V87.938a2.673,2.673,0,0,1-2.665,2.67h-68.8a6.008,6.008,0,0,1-6-6V17.962a6.008,6.008,0,0,1,6-6h9.1a4.952,4.952,0,0,1,4.838-3.917h4.482a10.169,10.169,0,0,1,16.257,0h4.482a4.952,4.952,0,0,1,4.838,3.917h9.1a6.011,6.011,0,0,1,6,6V58.041h9.709A2.673,2.673,0,0,1,108.095,60.71ZM74.758,36.985A11.58,11.58,0,1,0,63.174,48.57,11.592,11.592,0,0,0,74.758,36.985Zm2.066,0A13.648,13.648,0,1,1,63.174,23.34,13.666,13.666,0,0,1,76.824,36.985ZM70.788,76.514H56.154a1.033,1.033,0,1,0,0,2.066H70.788a1.033,1.033,0,0,0,0-2.066Zm0-3.941H56.154a1.033,1.033,0,1,0,0,2.066H70.788a1.033,1.033,0,1,0,0-2.066Zm-20.514-.054-3.7,3.99-1.418-1.194a1.034,1.034,0,0,0-1.335,1.578l2.173,1.832a1.058,1.058,0,0,0,.667.239,1.03,1.03,0,0,0,.76-.331l4.36-4.711a1.029,1.029,0,1,0-1.505-1.4Zm20.514-4.755H56.154a1.033,1.033,0,1,0,0,2.066H70.788a1.033,1.033,0,1,0,0-2.066Zm0-3.941H56.154a1.033,1.033,0,1,0,0,2.066H70.788a1.033,1.033,0,1,0,0-2.066ZM50.273,63.77l-3.7,3.985-1.418-1.194a1.036,1.036,0,0,0-1.335,1.583l2.173,1.822a1.037,1.037,0,0,0,1.427-.088l4.36-4.706a1.029,1.029,0,1,0-1.505-1.4ZM70.788,59.01H56.154a1.033,1.033,0,1,0,0,2.065H70.788a1.033,1.033,0,1,0,0-2.065Zm0-3.941H56.154a1.033,1.033,0,1,0,0,2.066H70.788a1.033,1.033,0,1,0,0-2.066ZM43.7,57.938a1.03,1.03,0,0,1,1.457-.127l1.418,1.194,3.7-3.99a1.029,1.029,0,1,1,1.505,1.4l-4.36,4.711a1.031,1.031,0,0,1-.76.331,1.058,1.058,0,0,1-.667-.239L43.819,59.39a1.032,1.032,0,0,1-.122-1.452Z" transform="translate(-30.631 -3.985)" fill="#070202"/></g><rect width="119" height="119" transform="translate(1019.73 3092)" fill="none"/></g></g></svg>