<svg xmlns="http://www.w3.org/2000/svg" width="349.667" height="672.359" viewBox="0 0 349.667 672.359"><g transform="translate(-512.647 6044.495)"><path d="M5.033,0h339.6c2.78,0,5.033,11.281,5.033,25.2V647.162c0,13.916-2.253,25.2-5.033,25.2H5.033c-2.78,0-5.033-11.281-5.033-25.2V25.2C0,11.281,2.253,0,5.033,0Z" transform="translate(512.647 -6044.495)" fill="#f4f5ff" opacity="0.31"/><g transform="translate(-498.923 -654)"><rect width="52.585" height="87.414" transform="translate(1040.807 -5322.96)" fill="#a4abb1"/><rect width="52.585" height="87.414" transform="translate(1099.538 -5322.96)" fill="#a4abb1"/><rect width="52.583" height="87.414" transform="translate(1182.854 -5322.96)" fill="#3addca"/><rect width="52.583" height="87.414" transform="translate(1241.584 -5322.96)" fill="#3addca"/><rect width="52.585" height="87.414" transform="translate(1053.392 -5107.675)" fill="#9fa3ff"/><rect width="52.585" height="87.414" transform="translate(1132.609 -5107.675)" fill="#9fa3ff"/><rect width="52.585" height="87.414" transform="translate(1212.511 -5107.675)" fill="#7c40e3"/><rect width="52.583" height="87.414" transform="translate(1291.729 -5107.675)" fill="#7c40e3"/><rect width="52.583" height="87.414" transform="translate(1056.974 -4865.581)" fill="#1d3aab"/><rect width="52.585" height="87.414" transform="translate(1136.193 -4865.581)" fill="#1d3aab"/><path d="M.5,1.963h-1V0h1Z" transform="translate(1044.221 -5230.254)" fill="#606060"/><path d="M3.757,468.431l0-.286,1-.009,0,.286Zm-.03-3.326-.028-3.04,1-.009.028,3.04Zm-.055-6.08-.028-3.04,1-.009.028,3.04Zm-.055-6.08-.028-3.04,1-.009.028,3.04Zm-.055-6.08-.028-3.04,1-.009.028,3.04Zm-.055-6.08-.028-3.04,1-.009.028,3.04Zm-.055-6.08-.028-3.04,1-.009.028,3.04Zm-.055-6.08-.028-3.04,1-.009.028,3.04Zm-.055-6.08-.028-3.04,1-.009.028,3.04Zm-.055-6.08-.028-3.04,1-.009.028,3.04Zm-.055-6.08-.028-3.04,1-.009.028,3.04Zm-.055-6.08-.028-3.04,1-.009.028,3.04Zm-.055-6.08-.028-3.04,1-.009.028,3.04Zm-.055-6.08-.028-3.04,1-.009.028,3.04Zm-.055-6.08-.028-3.04,1-.009.028,3.04Zm-.055-6.08-.028-3.04,1-.009.028,3.04Zm-.055-6.08-.028-3.04,1-.009L3.9,373.9Zm-.055-6.08-.028-3.04,1-.009.028,3.04Zm-.055-6.08-.028-3.04,1-.009.028,3.04Zm-.055-6.08L2.7,352.63l1-.009.028,3.04Zm-.055-6.08-.028-3.04,1-.009.028,3.04Zm-.055-6.08-.028-3.04,1-.009.028,3.04Zm-.055-6.08-.028-3.04,1-.009.028,3.04Zm-.055-6.08-.028-3.04,1-.009.028,3.04Zm-.055-6.08-.028-3.04,1-.009.028,3.04Zm-.055-6.08-.028-3.04,1-.009.028,3.04Zm-.055-6.08-.028-3.04,1-.009.028,3.04Zm-.055-6.08-.028-3.04,1-.009.028,3.04Zm-.055-6.08-.028-3.04,1-.009.028,3.04Zm-.055-6.08-.028-3.04,1-.009.028,3.04Zm-.055-6.08-.028-3.04,1-.009.028,3.04Zm-.055-6.08-.028-3.04,1-.009.028,3.04Zm-.055-6.08-.028-3.04,1-.009.028,3.04Zm-.055-6.08-.028-3.04,1-.009.028,3.04Zm-.055-6.08-.028-3.04,1-.009.028,3.04Zm-.055-6.08-.028-3.04,1-.009.028,3.04Zm-.055-6.08-.028-3.04,1-.009.028,3.04Zm-.055-6.08-.028-3.04,1-.009.028,3.04Zm-.055-6.08-.028-3.04,1-.009.028,3.04Zm-.055-6.08-.028-3.04,1-.009.028,3.04ZM1.572,228l-.028-3.04,1-.009.028,3.04Zm-.055-6.08-.028-3.04,1-.009.028,3.04Zm-.055-6.08-.028-3.04,1-.009.028,3.04Zm-.055-6.08-.028-3.04,1-.009.028,3.04Zm-.055-6.08-.028-3.04,1-.009.028,3.04ZM1.3,197.6l-.028-3.04,1-.009.028,3.04Zm-.055-6.08-.028-3.04,1-.009.028,3.04Zm-.055-6.08-.028-3.04,1-.009.028,3.04Zm-.055-6.08-.028-3.04,1-.009.028,3.04Zm-.055-6.08-.028-3.04,1-.009.028,3.04ZM1.02,167.2l-.028-3.04,1-.009.028,3.04Zm-.055-6.08-.028-3.04,1-.009.028,3.04Zm-.055-6.08L.881,152l1-.009.028,3.04Zm-.055-6.08-.028-3.04,1-.009.028,3.04ZM.8,142.879l-.028-3.04,1-.009.028,3.04ZM.743,136.8l-.028-3.04,1-.009.028,3.04Zm-.055-6.08-.028-3.04,1-.009.028,3.04Zm-.055-6.08L.605,121.6l1-.009.028,3.04Zm-.055-6.08L.55,115.52l1-.009.028,3.04Zm-.055-6.08-.028-3.04,1-.009.028,3.04ZM.467,106.4l-.028-3.04,1-.009.028,3.04Zm-.055-6.08L.384,97.28l1-.009.028,3.04Zm-.055-6.08L.329,91.2l1-.009.028,3.04ZM.3,88.161l-.028-3.04,1-.009.028,3.04Zm-.055-6.08-.028-3.04,1-.009.028,3.04ZM.191,76l-.028-3.04,1-.009.028,3.04Zm-.055-6.08-.028-3.04,1-.009.028,3.04ZM.08,63.842.053,60.8l1-.009.028,3.04Zm-.055-6.08L0,54.722l1-.009.028,3.04Zm-.055-6.08-.028-3.04,1-.009.028,3.04ZM-.086,45.6l-.028-3.04,1-.009.028,3.04Zm-.055-6.08-.028-3.04,1-.009.028,3.04ZM-.2,33.443-.224,30.4l1-.009L.8,33.434Zm-.055-6.08-.028-3.04,1-.009.028,3.04Zm-.055-6.08-.028-3.04,1-.009.028,3.04ZM-.362,15.2l-.028-3.04,1-.009.028,3.04Zm-.055-6.08-.028-3.04,1-.009.028,3.04Zm-.055-6.08L-.5,0,.5,0l.028,3.04Z" transform="translate(1044.221 -5224.312)" fill="#606060"/><path d="M.5,130.72h-1l0-3.04h1Zm0-6.08h-1l0-3.04h1Zm0-6.08h-1l0-3.04h1Zm0-6.08h-1l0-3.04h1Zm0-6.08h-1l0-3.04h1Zm0-6.08h-1l0-3.04h1Zm0-6.08h-1l0-3.04h1Zm0-6.08h-1l0-3.04h1Zm0-6.08h-1l0-3.04h1Zm0-6.08h-1l0-3.04h1Zm0-6.08h-1l0-3.04h1Zm0-6.08h-1l0-3.04h1Zm0-6.08h-1l0-3.04h1Zm0-6.08h-1l0-3.04h1Zm0-6.08h-1l0-3.04h1Zm0-6.08h-1l0-3.04h1Zm0-6.08h-1l0-3.04h1Zm0-6.08h-1l0-3.04h1Zm0-6.08h-1l0-3.04h1Zm0-6.08h-1l0-3.04h1Zm0-6.08h-1l0-3.04h1Zm0-6.08h-1l0-3.04h1Z" transform="translate(1257.089 -4885.018)" fill="#606060"/><path d="M.309,68.734.276,66l1-.012.032,2.733ZM.241,63,.206,60l1-.012.035,3ZM.171,57,.135,54l1-.012.035,3ZM.1,51,.065,48l1-.012.035,3ZM.029,45l-.035-3,1-.012.035,3Zm-.071-6-.035-3,1-.012.035,3Zm-.071-6-.035-3,1-.012.035,3Zm-.071-6-.035-3,1-.012.035,3Zm-.071-6-.035-3,1-.012.035,3Zm-.071-6-.035-3,1-.012.035,3Zm-.071-6-.035-3,1-.012.035,3Zm-.071-6L-.5.006l1-.012.035,3Z" transform="translate(1185.126 -5003.306)" fill="#606060"/><path d="M321.306,81.513H305.4l7.95-7.948Z" transform="translate(871.839 -5084.949)" fill="#606060"/><path d="M.5,1.963h-1V0h1Z" transform="translate(1344.313 -5014.969)" fill="#606060"/><path d="M.5,103.2h-1v-1.473h1Zm0-4.465h-1V95.744h1Zm0-5.984h-1V89.76h1Zm0-5.984h-1V83.776h1Zm0-5.984h-1V77.792h1ZM.5,74.8h-1V71.808h1Zm0-5.984h-1V65.824h1Zm0-5.984h-1V59.84h1Zm0-5.984h-1V53.856h1Zm0-5.984h-1V47.872h1Zm0-5.984h-1V41.888h1ZM.5,38.9h-1V35.9h1Zm0-5.984h-1V29.92h1Zm0-5.984h-1V23.936h1Zm0-5.984h-1V17.952h1Zm0-5.984h-1V11.968h1Zm0-5.984h-1V5.984h1Zm0-5.984h-1V0h1Z" transform="translate(1344.313 -5009.09)" fill="#606060"/><path d="M.5,1.963h-1V0h1Z" transform="translate(1344.313 -4903.93)" fill="#606060"/><path d="M.5,1.963h-1V0h1Z" transform="translate(1027.27 -5014.969)" fill="#606060"/><path d="M.5,64.133h-1V63.22h1Zm0-4.074h-1V56.9h1Zm0-6.322h-1V50.576h1Zm0-6.322h-1V44.254h1Zm0-6.322h-1V37.932h1Zm0-6.322h-1V31.61h1Zm0-6.322h-1V25.288h1Zm0-6.322h-1V18.966h1ZM.5,15.8h-1V12.644h1Zm0-6.322h-1V6.322h1Zm0-6.322h-1V0h1Z" transform="translate(1290.583 -5224.153)" fill="#606060"/><path d="M.5,1.963h-1V0h1Z" transform="translate(1027.27 -4942.666)" fill="#606060"/><path d="M.5,1.963h-1V0h1Z" transform="translate(1152.122 -5237.938)" fill="#606060"/><path d="M.5,25.371h-1V22.552h1Zm0-5.638h-1V16.914h1Zm0-5.638h-1V11.276h1Zm0-5.638h-1V5.638h1Zm0-5.638h-1V0h1Z" transform="translate(1152.122 -5232.284)" fill="#606060"/><path d="M.5,1.963h-1V0h1Z" transform="translate(1152.122 -5202.767)" fill="#606060"/><path d="M83.039.5H0v-1H83.039Z" transform="translate(1055.201 -5204.645)" fill="#a4abb1"/><path d="M13.687,84.316v15.9l-7.948-7.95Z" transform="translate(1042.58 -5296.912)" fill="#a4abb1"/><path d="M73.623,84.316v15.9l7.948-7.95Z" transform="translate(1063.551 -5296.912)" fill="#a4abb1"/><path d="M80.19.5H0v-1H80.19Z" transform="translate(1055.201 -5155.987)" fill="#3addca"/><path d="M13.687,121.49v15.9l-7.948-7.95Z" transform="translate(1042.58 -5285.429)" fill="#3addca"/><path d="M80.19.5H0v-1H80.19Z" transform="translate(1200.438 -5156.755)" fill="#3addca"/><path d="M182.406,136.806V120.9l7.948,7.95Z" transform="translate(1097.156 -5285.61)" fill="#3addca"/><g transform="translate(1146.315 -4990.567)"><path d="M17.824.5H0v-1H17.824Z" transform="translate(0 7.951)" fill="#9fa3ff"/><path d="M299.015,165.763v-15.9l7.948,7.95Z" transform="translate(-282.439 -149.861)" fill="#9fa3ff"/></g><g transform="translate(1052.293 -4990.567)"><path d="M17.824.5H0v-1H17.824Z" transform="translate(2.754 7.951)" fill="#9fa3ff"/><path d="M306.963,165.763v-15.9l-7.948,7.95Z" transform="translate(-299.015 -149.861)" fill="#9fa3ff"/></g><g transform="translate(1146.315 -4950.616)"><path d="M17.824.5H0v-1H17.824Z" transform="translate(0 7.951)" fill="#9fa3ff"/><path d="M300.645,189.219v-15.9l7.948,7.95Z" transform="translate(-284.07 -173.317)" fill="#9fa3ff"/></g><g transform="translate(1052.293 -4950.616)"><path d="M17.824.5H0v-1H17.824Z" transform="translate(2.754 7.951)" fill="#9fa3ff"/><path d="M308.593,189.219v-15.9l-7.948,7.95Z" transform="translate(-300.645 -173.317)" fill="#9fa3ff"/></g><path d="M163.155.5H0v-1H163.155Z" transform="translate(1052.293 -4901.966)" fill="#7c40e3"/><path d="M75.972,225.262v-15.9l7.948,7.95Z" transform="translate(1138.41 -5119.278)" fill="#7c40e3"/><path d="M0,.579l0-1L17.742-.5l0,1Z" transform="translate(1068.191 -4759.928)" fill="#1d3aab"/><path d="M0,.579l0-1L17.742-.5l0,1Z" transform="translate(1238.989 -4759.771) rotate(180)" fill="#1d3aab"/><path d="M5.739,252.356l7.948,7.949V244.4Z" transform="translate(1055.57 -5012.204)" fill="#1d3aab"/><path d="M0,7.952,7.948,15.9V0Z" transform="translate(1245.87 -4751.9) rotate(180)" fill="#1d3aab"/><path d="M40.011,1.351-.011.5l.021-1L40.032.352Z" transform="translate(1290.24 -4902.818)" fill="#7c40e3"/><path d="M421.493,224.263v-15.9l7.948,7.95Z" transform="translate(907.702 -5118.278)" fill="#7c40e3"/><path d="M3.52,0H2.25V-4.9l-1.516.47V-5.458l2.65-.949H3.52Z" transform="translate(1061.021 -5339.834)" fill="#12263f"/><path d="M6.849-3.821A4.682,4.682,0,0,1,6.056-.889,2.77,2.77,0,0,1,3.732.127a2.789,2.789,0,0,1-2.311-1A4.545,4.545,0,0,1,.6-3.726v-1.7a4.621,4.621,0,0,1,.8-2.939,2.79,2.79,0,0,1,2.314-1,2.793,2.793,0,0,1,2.311.993,4.531,4.531,0,0,1,.819,2.853ZM5.015-5.687A3.378,3.378,0,0,0,4.7-7.36a1.062,1.062,0,0,0-.981-.524,1.043,1.043,0,0,0-.955.5,3.162,3.162,0,0,0-.327,1.558V-3.58A3.546,3.546,0,0,0,2.745-1.9a1.048,1.048,0,0,0,.987.549A1.03,1.03,0,0,0,4.7-1.879a3.461,3.461,0,0,0,.311-1.612Z" transform="translate(1061.021 -5277)" fill="#12263f"/><path d="M6.849-3.821A4.682,4.682,0,0,1,6.056-.889,2.77,2.77,0,0,1,3.732.127a2.789,2.789,0,0,1-2.311-1A4.545,4.545,0,0,1,.6-3.726v-1.7a4.621,4.621,0,0,1,.8-2.939,2.79,2.79,0,0,1,2.314-1,2.793,2.793,0,0,1,2.311.993,4.531,4.531,0,0,1,.819,2.853ZM5.015-5.687A3.378,3.378,0,0,0,4.7-7.36a1.062,1.062,0,0,0-.981-.524,1.043,1.043,0,0,0-.955.5,3.162,3.162,0,0,0-.327,1.558V-3.58A3.546,3.546,0,0,0,2.745-1.9a1.048,1.048,0,0,0,.987.549A1.03,1.03,0,0,0,4.7-1.879a3.461,3.461,0,0,0,.311-1.612Z" transform="translate(1205.754 -5277)" fill="#12263f"/><path d="M2.495-5.434h.978a1.377,1.377,0,0,0,1.035-.349,1.279,1.279,0,0,0,.336-.927,1.131,1.131,0,0,0-.333-.87,1.292,1.292,0,0,0-.917-.311A1.354,1.354,0,0,0,2.71-7.6a.923.923,0,0,0-.355.752H.521a2.256,2.256,0,0,1,.39-1.3A2.6,2.6,0,0,1,2-9.045a3.644,3.644,0,0,1,1.546-.324,3.456,3.456,0,0,1,2.3.7,2.393,2.393,0,0,1,.832,1.933,1.945,1.945,0,0,1-.387,1.168,2.516,2.516,0,0,1-1.016.819A2.3,2.3,0,0,1,6.44-3.91a2.273,2.273,0,0,1,.384,1.32,2.433,2.433,0,0,1-.9,1.974A3.611,3.611,0,0,1,3.548.127,3.424,3.424,0,0,1,1.285-.6a2.384,2.384,0,0,1-.879-1.93H2.241a1.063,1.063,0,0,0,.39.851,1.439,1.439,0,0,0,.962.33A1.445,1.445,0,0,0,4.618-1.7a1.194,1.194,0,0,0,.371-.917Q4.989-4,3.466-4H2.495Z" transform="translate(1074.237 -5059.289)" fill="#12263f"/><path d="M4.919-3.694a2.316,2.316,0,0,1-1.676.7,2.477,2.477,0,0,1-1.961-.841A3.324,3.324,0,0,1,.546-6.1a3.54,3.54,0,0,1,.4-1.666A2.91,2.91,0,0,1,2.05-8.947a3.073,3.073,0,0,1,1.6-.422,2.939,2.939,0,0,1,1.625.457A3,3,0,0,1,6.379-7.6a4.718,4.718,0,0,1,.4,1.961v.679A5.346,5.346,0,0,1,5.63-1.327,4.344,4.344,0,0,1,2.374.083L1.923.089v-1.53l.406-.006Q4.723-1.555,4.919-3.694Zm-1.225-.7a1.283,1.283,0,0,0,.765-.229,1.527,1.527,0,0,0,.486-.552v-.755a2.522,2.522,0,0,0-.355-1.447,1.1,1.1,0,0,0-.952-.514,1.071,1.071,0,0,0-.908.5,2.146,2.146,0,0,0-.355,1.266A2.088,2.088,0,0,0,2.72-4.878,1.127,1.127,0,0,0,3.694-4.393Z" transform="translate(1234.333 -5059.289)" fill="#f6f6f6"/><path d="M6.849-3.821A4.682,4.682,0,0,1,6.056-.889,2.77,2.77,0,0,1,3.732.127a2.789,2.789,0,0,1-2.311-1A4.545,4.545,0,0,1,.6-3.726v-1.7a4.621,4.621,0,0,1,.8-2.939,2.79,2.79,0,0,1,2.314-1,2.793,2.793,0,0,1,2.311.993,4.531,4.531,0,0,1,.819,2.853ZM5.015-5.687A3.378,3.378,0,0,0,4.7-7.36a1.062,1.062,0,0,0-.981-.524,1.043,1.043,0,0,0-.955.5,3.162,3.162,0,0,0-.327,1.558V-3.58A3.546,3.546,0,0,0,2.745-1.9a1.048,1.048,0,0,0,.987.549A1.03,1.03,0,0,0,4.7-1.879a3.461,3.461,0,0,0,.311-1.612Z" transform="translate(1077.042 -4817.195)" fill="#f6f6f6"/><path d="M6.963,0H.628V-1.257l2.99-3.187a7.376,7.376,0,0,0,.911-1.174,1.887,1.887,0,0,0,.3-.952,1.412,1.412,0,0,0-.311-.968,1.123,1.123,0,0,0-.889-.352,1.211,1.211,0,0,0-.981.428,1.7,1.7,0,0,0-.359,1.127H.444a3.03,3.03,0,0,1,.4-1.542A2.841,2.841,0,0,1,1.987-8.972a3.463,3.463,0,0,1,1.669-.4,3.279,3.279,0,0,1,2.219.686,2.425,2.425,0,0,1,.79,1.936,3.108,3.108,0,0,1-.355,1.4A7.76,7.76,0,0,1,5.091-3.694L2.99-1.479H6.963Z" transform="translate(1119.238 -5277)" fill="#12263f"/><path d="M5.084,0H3.25V-7.071l-2.19.679V-7.884L4.888-9.255h.2Z" transform="translate(1263.971 -5277)" fill="#12263f"/><path d="M6.849-3.821A4.682,4.682,0,0,1,6.056-.889,2.77,2.77,0,0,1,3.732.127a2.789,2.789,0,0,1-2.311-1A4.545,4.545,0,0,1,.6-3.726v-1.7a4.621,4.621,0,0,1,.8-2.939,2.79,2.79,0,0,1,2.314-1,2.793,2.793,0,0,1,2.311.993,4.531,4.531,0,0,1,.819,2.853ZM5.015-5.687A3.378,3.378,0,0,0,4.7-7.36a1.062,1.062,0,0,0-.981-.524,1.043,1.043,0,0,0-.955.5,3.162,3.162,0,0,0-.327,1.558V-3.58A3.546,3.546,0,0,0,2.745-1.9a1.048,1.048,0,0,0,.987.549A1.03,1.03,0,0,0,4.7-1.879a3.461,3.461,0,0,0,.311-1.612Z" transform="translate(1154.285 -5059.289)" fill="#12263f"/><path d="M6.849-3.821A4.682,4.682,0,0,1,6.056-.889,2.77,2.77,0,0,1,3.732.127a2.789,2.789,0,0,1-2.311-1A4.545,4.545,0,0,1,.6-3.726v-1.7a4.621,4.621,0,0,1,.8-2.939,2.79,2.79,0,0,1,2.314-1,2.793,2.793,0,0,1,2.311.993,4.531,4.531,0,0,1,.819,2.853ZM5.015-5.687A3.378,3.378,0,0,0,4.7-7.36a1.062,1.062,0,0,0-.981-.524,1.043,1.043,0,0,0-.955.5,3.162,3.162,0,0,0-.327,1.558V-3.58A3.546,3.546,0,0,0,2.745-1.9a1.048,1.048,0,0,0,.987.549A1.03,1.03,0,0,0,4.7-1.879a3.461,3.461,0,0,0,.311-1.612Z" transform="translate(1314.381 -5059.289)" fill="#f6f6f6"/><path d="M6.849-3.821A4.682,4.682,0,0,1,6.056-.889,2.77,2.77,0,0,1,3.732.127a2.789,2.789,0,0,1-2.311-1A4.545,4.545,0,0,1,.6-3.726v-1.7a4.621,4.621,0,0,1,.8-2.939,2.79,2.79,0,0,1,2.314-1,2.793,2.793,0,0,1,2.311.993,4.531,4.531,0,0,1,.819,2.853ZM5.015-5.687A3.378,3.378,0,0,0,4.7-7.36a1.062,1.062,0,0,0-.981-.524,1.043,1.043,0,0,0-.955.5,3.162,3.162,0,0,0-.327,1.558V-3.58A3.546,3.546,0,0,0,2.745-1.9a1.048,1.048,0,0,0,.987.549A1.03,1.03,0,0,0,4.7-1.879a3.461,3.461,0,0,0,.311-1.612Z" transform="translate(1157.09 -4817.195)" fill="#f6f6f6"/><path d="M1.727-3.762H2.4A.954.954,0,0,0,3.12-4a.886.886,0,0,0,.233-.642.783.783,0,0,0-.231-.6.894.894,0,0,0-.635-.215.937.937,0,0,0-.611.2.639.639,0,0,0-.246.521H.36a1.562,1.562,0,0,1,.27-.9,1.8,1.8,0,0,1,.756-.622,2.523,2.523,0,0,1,1.07-.224A2.392,2.392,0,0,1,4.047-6a1.657,1.657,0,0,1,.576,1.338,1.346,1.346,0,0,1-.268.809,1.742,1.742,0,0,1-.7.567,1.59,1.59,0,0,1,.806.58,1.574,1.574,0,0,1,.266.914A1.684,1.684,0,0,1,4.1-.426,2.5,2.5,0,0,1,2.457.088,2.371,2.371,0,0,1,.89-.417,1.65,1.65,0,0,1,.281-1.753h1.27a.736.736,0,0,0,.27.589,1,1,0,0,0,.666.229,1,1,0,0,0,.71-.24.827.827,0,0,0,.257-.635q0-.958-1.055-.958H1.727Z" transform="translate(1210.606 -5339.834)" fill="#12263f"/><path d="M.624-3.146.993-6.4H4.579v1.059H2.035L1.876-3.964a2.014,2.014,0,0,1,.962-.242,1.844,1.844,0,0,1,1.433.567A2.264,2.264,0,0,1,4.79-2.052a2.32,2.32,0,0,1-.261,1.11,1.846,1.846,0,0,1-.749.76,2.339,2.339,0,0,1-1.151.27A2.484,2.484,0,0,1,1.551-.147,1.91,1.91,0,0,1,.767-.809,1.8,1.8,0,0,1,.461-1.78H1.718A.939.939,0,0,0,2-1.158a.885.885,0,0,0,.626.222.781.781,0,0,0,.664-.31,1.435,1.435,0,0,0,.233-.877,1.187,1.187,0,0,0-.268-.835.984.984,0,0,0-.76-.29,1.1,1.1,0,0,0-.734.237L1.635-2.9Z" transform="translate(1074.237 -5124.548)" fill="#12263f"/><path d="M4.786-5.687,2.312,0H.971L3.45-5.37H.268V-6.4H4.786Z" transform="translate(1234.333 -5124.548)" fill="#12263f" opacity="0.7"/><path d="M3.406-2.558a1.6,1.6,0,0,1-1.16.488A1.715,1.715,0,0,1,.888-2.652a2.3,2.3,0,0,1-.51-1.571A2.451,2.451,0,0,1,.653-5.377a2.015,2.015,0,0,1,.767-.817,2.128,2.128,0,0,1,1.107-.292,2.035,2.035,0,0,1,1.125.316,2.08,2.08,0,0,1,.765.91A3.266,3.266,0,0,1,4.693-3.9v.47A3.7,3.7,0,0,1,3.9-.918,3.007,3.007,0,0,1,1.644.057l-.312,0V-1l.281,0A1.624,1.624,0,0,0,3.406-2.558Zm-.848-.483a.888.888,0,0,0,.53-.158,1.057,1.057,0,0,0,.336-.382V-4.1a1.746,1.746,0,0,0-.246-1,.764.764,0,0,0-.659-.356.741.741,0,0,0-.628.349,1.486,1.486,0,0,0-.246.877,1.446,1.446,0,0,0,.24.859A.78.78,0,0,0,2.558-3.041Z" transform="translate(1077.042 -4882.455)" fill="#12263f"/><path d="M4.821,0H.435V-.87L2.5-3.076a5.106,5.106,0,0,0,.631-.813,1.306,1.306,0,0,0,.2-.659.977.977,0,0,0-.215-.67.777.777,0,0,0-.615-.244.838.838,0,0,0-.679.3,1.175,1.175,0,0,0-.248.78H.308A2.1,2.1,0,0,1,.587-5.454a1.967,1.967,0,0,1,.789-.758,2.4,2.4,0,0,1,1.156-.275,2.27,2.27,0,0,1,1.536.475,1.679,1.679,0,0,1,.547,1.34,2.151,2.151,0,0,1-.246.967,5.373,5.373,0,0,1-.844,1.147L2.07-1.024H4.821Z" transform="translate(1119.238 -5339.834)" fill="#12263f"/><path d="M4.192-2.408h.725v1.024H4.192V0H2.922V-1.384H.3l-.057-.8L2.909-6.4H4.192Zm-2.685,0H2.922V-4.667l-.083.145Z" transform="translate(1268.822 -5339.834)" fill="#12263f"/><path d="M3.88-6.464v1.046H3.757a2.158,2.158,0,0,0-1.386.448A1.821,1.821,0,0,0,1.74-3.762,1.73,1.73,0,0,1,3.028-4.28a1.63,1.63,0,0,1,1.327.6,2.4,2.4,0,0,1,.492,1.573A2.357,2.357,0,0,1,4.577-.98a1.938,1.938,0,0,1-.765.787A2.221,2.221,0,0,1,2.694.088a2.075,2.075,0,0,1-1.633-.7A2.729,2.729,0,0,1,.439-2.492v-.457A4.107,4.107,0,0,1,.833-4.788,2.884,2.884,0,0,1,1.962-6.023a3.309,3.309,0,0,1,1.707-.442Zm-1.239,3.2a1.013,1.013,0,0,0-.558.16.966.966,0,0,0-.369.424v.387a1.716,1.716,0,0,0,.25,1,.809.809,0,0,0,.7.358.8.8,0,0,0,.661-.323A1.319,1.319,0,0,0,3.582-2.1a1.317,1.317,0,0,0-.255-.844A.83.83,0,0,0,2.641-3.261Z" transform="translate(1154.285 -5124.548)" fill="#12263f"/><path d="M4.605-4.7a1.488,1.488,0,0,1-.233.826,1.676,1.676,0,0,1-.642.576,1.856,1.856,0,0,1,.738.617,1.584,1.584,0,0,1,.272.925,1.677,1.677,0,0,1-.58,1.347A2.353,2.353,0,0,1,2.584.088,2.364,2.364,0,0,1,1-.409,1.673,1.673,0,0,1,.417-1.753,1.594,1.594,0,0,1,.69-2.681,1.822,1.822,0,0,1,1.424-3.3a1.659,1.659,0,0,1-.639-.576A1.5,1.5,0,0,1,.554-4.7,1.658,1.658,0,0,1,1.1-6,2.145,2.145,0,0,1,2.58-6.486a2.16,2.16,0,0,1,1.479.481A1.652,1.652,0,0,1,4.605-4.7ZM3.467-1.846a.921.921,0,0,0-.242-.668.862.862,0,0,0-.65-.25.86.86,0,0,0-.646.248.92.92,0,0,0-.242.67.919.919,0,0,0,.237.659.864.864,0,0,0,.659.25.862.862,0,0,0,.648-.242A.917.917,0,0,0,3.467-1.846ZM3.335-4.636a.879.879,0,0,0-.2-.6.7.7,0,0,0-.558-.226.707.707,0,0,0-.554.22.874.874,0,0,0-.2.606.918.918,0,0,0,.2.615.692.692,0,0,0,.558.233.685.685,0,0,0,.556-.233A.925.925,0,0,0,3.335-4.636Z" transform="translate(1314.381 -5124.548)" fill="#12263f" opacity="0.9"/><path d="M3.52,0H2.25V-4.9l-1.516.47V-5.458l2.65-.949H3.52ZM9.905-2.646a3.241,3.241,0,0,1-.549,2.03,1.917,1.917,0,0,1-1.608.7,1.931,1.931,0,0,1-1.6-.69A3.147,3.147,0,0,1,5.581-2.58V-3.757a3.2,3.2,0,0,1,.556-2.035,1.932,1.932,0,0,1,1.6-.694,1.934,1.934,0,0,1,1.6.688,3.137,3.137,0,0,1,.567,1.975ZM8.635-3.937A2.339,2.339,0,0,0,8.418-5.1a.735.735,0,0,0-.679-.363.722.722,0,0,0-.661.345,2.189,2.189,0,0,0-.226,1.079v1.556a2.455,2.455,0,0,0,.213,1.162.726.726,0,0,0,.683.38A.713.713,0,0,0,8.42-1.3a2.4,2.4,0,0,0,.215-1.116Z" transform="translate(1153.855 -4882.455)" fill="#12263f"/><path d="M5.774,0H4.456L1.89-4.21V0H.571V-6.4H1.89L4.46-2.18V-6.4H5.774Zm.87-2.421a2.82,2.82,0,0,1,.272-1.261A2,2,0,0,1,7.7-4.54a2.289,2.289,0,0,1,1.189-.3,2.165,2.165,0,0,1,1.571.589,2.363,2.363,0,0,1,.679,1.6l.009.325a2.485,2.485,0,0,1-.611,1.756A2.123,2.123,0,0,1,8.9.088,2.134,2.134,0,0,1,7.258-.571a2.529,2.529,0,0,1-.613-1.793Zm1.27.092a1.773,1.773,0,0,0,.255,1.035A.841.841,0,0,0,8.9-.936.843.843,0,0,0,9.62-1.29a1.94,1.94,0,0,0,.259-1.132A1.755,1.755,0,0,0,9.62-3.45a.843.843,0,0,0-.729-.365.829.829,0,0,0-.721.363A1.972,1.972,0,0,0,7.915-2.329ZM12-.624a.639.639,0,0,1,.2-.492.725.725,0,0,1,.512-.189.731.731,0,0,1,.516.189.639.639,0,0,1,.2.492.631.631,0,0,1-.2.486.734.734,0,0,1-.519.187A.728.728,0,0,1,12.2-.138.631.631,0,0,1,12-.624Zm9.9-1.507a2.264,2.264,0,0,1-.762,1.626,2.678,2.678,0,0,1-1.813.593A2.408,2.408,0,0,1,17.383-.74a3.4,3.4,0,0,1-.705-2.274v-.391A3.836,3.836,0,0,1,17-5.032a2.437,2.437,0,0,1,.929-1.079,2.6,2.6,0,0,1,1.4-.376,2.609,2.609,0,0,1,1.784.593A2.433,2.433,0,0,1,21.9-4.228H20.584a1.336,1.336,0,0,0-.345-.9,1.277,1.277,0,0,0-.9-.279,1.12,1.12,0,0,0-.987.472,2.648,2.648,0,0,0-.336,1.466v.483a2.834,2.834,0,0,0,.314,1.516,1.1,1.1,0,0,0,.991.479,1.3,1.3,0,0,0,.912-.279,1.26,1.26,0,0,0,.345-.864ZM25.431,0A1.41,1.41,0,0,1,25.3-.426a1.537,1.537,0,0,1-1.2.514,1.688,1.688,0,0,1-1.158-.4,1.3,1.3,0,0,1-.459-1.02,1.344,1.344,0,0,1,.56-1.16A2.765,2.765,0,0,1,24.667-2.9h.584v-.272a.784.784,0,0,0-.169-.527.666.666,0,0,0-.534-.2.757.757,0,0,0-.5.154.523.523,0,0,0-.182.422h-1.27a1.276,1.276,0,0,1,.255-.765,1.685,1.685,0,0,1,.721-.552,2.627,2.627,0,0,1,1.046-.2,2.075,2.075,0,0,1,1.4.442,1.545,1.545,0,0,1,.516,1.241V-1.1a2.273,2.273,0,0,0,.189,1.024V0Zm-1.05-.883a1.094,1.094,0,0,0,.519-.125.823.823,0,0,0,.352-.336v-.817h-.475q-.954,0-1.015.659l0,.075a.508.508,0,0,0,.167.391A.649.649,0,0,0,24.381-.883Zm7.4-1.45a2.852,2.852,0,0,1-.5,1.76,1.6,1.6,0,0,1-1.347.661,1.481,1.481,0,0,1-1.165-.5V1.828H27.5V-4.755h1.178l.044.466a1.493,1.493,0,0,1,1.2-.554,1.61,1.61,0,0,1,1.367.65A2.929,2.929,0,0,1,31.781-2.4Zm-1.27-.092a1.871,1.871,0,0,0-.235-1.024.766.766,0,0,0-.683-.36.832.832,0,0,0-.822.457v1.947a.846.846,0,0,0,.831.47Q30.511-.936,30.511-2.426ZM33.908,0H32.634V-4.755h1.274ZM32.559-5.985a.625.625,0,0,1,.191-.47.718.718,0,0,1,.521-.185.72.72,0,0,1,.519.185.622.622,0,0,1,.193.47.624.624,0,0,1-.2.475.722.722,0,0,1-.516.185.722.722,0,0,1-.516-.185A.624.624,0,0,1,32.559-5.985Zm3.916.062v1.169h.813v.932h-.813V-1.45a.567.567,0,0,0,.1.378.508.508,0,0,0,.387.114,2.025,2.025,0,0,0,.374-.031v.962a2.615,2.615,0,0,1-.769.114A1.213,1.213,0,0,1,35.2-1.261V-3.823H34.51v-.932H35.2V-5.924Zm4.368,5.44a1.593,1.593,0,0,1-1.3.571,1.5,1.5,0,0,1-1.167-.439,1.876,1.876,0,0,1-.411-1.288V-4.755h1.27v3.072q0,.743.677.743a.917.917,0,0,0,.888-.448V-4.755h1.274V0h-1.2ZM44.372,0H43.1V-6.75h1.274Zm.848-2.421a2.82,2.82,0,0,1,.272-1.261,2,2,0,0,1,.784-.857,2.289,2.289,0,0,1,1.189-.3,2.165,2.165,0,0,1,1.571.589,2.363,2.363,0,0,1,.679,1.6l.009.325a2.485,2.485,0,0,1-.611,1.756,2.123,2.123,0,0,1-1.639.661,2.134,2.134,0,0,1-1.641-.659,2.529,2.529,0,0,1-.613-1.793Zm1.27.092a1.773,1.773,0,0,0,.255,1.035.841.841,0,0,0,.729.358.843.843,0,0,0,.721-.354,1.94,1.94,0,0,0,.259-1.132,1.755,1.755,0,0,0-.259-1.028.843.843,0,0,0-.729-.365.829.829,0,0,0-.721.363A1.972,1.972,0,0,0,46.49-2.329Z" transform="translate(1061.021 -5215.315)" fill="#12263f"/><path d="M1.89-2.254V0H.571V-6.4h2.5a2.888,2.888,0,0,1,1.268.264,1.943,1.943,0,0,1,.842.749A2.089,2.089,0,0,1,5.471-4.28,1.837,1.837,0,0,1,4.827-2.8a2.681,2.681,0,0,1-1.782.543Zm0-1.068H3.067a1.158,1.158,0,0,0,.8-.246.9.9,0,0,0,.275-.7,1.055,1.055,0,0,0-.277-.76,1.034,1.034,0,0,0-.765-.3H1.89ZM9,0a1.41,1.41,0,0,1-.127-.426,1.537,1.537,0,0,1-1.2.514,1.688,1.688,0,0,1-1.158-.4,1.3,1.3,0,0,1-.459-1.02,1.344,1.344,0,0,1,.56-1.16A2.765,2.765,0,0,1,8.235-2.9H8.82v-.272A.784.784,0,0,0,8.651-3.7a.666.666,0,0,0-.534-.2.757.757,0,0,0-.5.154.523.523,0,0,0-.182.422H6.161a1.276,1.276,0,0,1,.255-.765,1.685,1.685,0,0,1,.721-.552,2.627,2.627,0,0,1,1.046-.2,2.075,2.075,0,0,1,1.4.442,1.545,1.545,0,0,1,.516,1.241V-1.1a2.273,2.273,0,0,0,.189,1.024V0ZM7.95-.883a1.094,1.094,0,0,0,.519-.125.823.823,0,0,0,.352-.336v-.817H8.345q-.954,0-1.015.659l0,.075a.508.508,0,0,0,.167.391A.649.649,0,0,0,7.95-.883Zm5.792-2.681a3.45,3.45,0,0,0-.457-.035.93.93,0,0,0-.945.488V0H11.07V-4.755h1.2l.035.567a1.177,1.177,0,0,1,1.059-.655,1.331,1.331,0,0,1,.4.057Zm2.351-2.36v1.169h.813v.932h-.813V-1.45a.567.567,0,0,0,.1.378.508.508,0,0,0,.387.114,2.025,2.025,0,0,0,.374-.031v.962a2.615,2.615,0,0,1-.769.114,1.213,1.213,0,0,1-1.362-1.349V-3.823h-.694v-.932h.694V-5.924ZM18.954,0H17.679V-4.755h1.274ZM17.6-5.985a.625.625,0,0,1,.191-.47.718.718,0,0,1,.521-.185.72.72,0,0,1,.519.185.622.622,0,0,1,.193.47.624.624,0,0,1-.2.475.722.722,0,0,1-.516.185.722.722,0,0,1-.516-.185A.624.624,0,0,1,17.6-5.985Zm2.2,3.573a2.865,2.865,0,0,1,.5-1.771,1.618,1.618,0,0,1,1.365-.659,1.456,1.456,0,0,1,1.147.519V-6.75h1.274V0H22.939l-.062-.505a1.5,1.5,0,0,1-1.222.593,1.614,1.614,0,0,1-1.347-.661A2.958,2.958,0,0,1,19.8-2.413Zm1.27.092A1.872,1.872,0,0,0,21.3-1.3a.759.759,0,0,0,.677.356.85.85,0,0,0,.831-.5V-3.313a.838.838,0,0,0-.822-.5Q21.072-3.81,21.072-2.32ZM27.826,0A1.41,1.41,0,0,1,27.7-.426a1.537,1.537,0,0,1-1.2.514,1.688,1.688,0,0,1-1.158-.4,1.3,1.3,0,0,1-.459-1.02,1.344,1.344,0,0,1,.56-1.16A2.765,2.765,0,0,1,27.062-2.9h.584v-.272a.784.784,0,0,0-.169-.527.666.666,0,0,0-.534-.2.757.757,0,0,0-.5.154.523.523,0,0,0-.182.422h-1.27a1.276,1.276,0,0,1,.255-.765,1.685,1.685,0,0,1,.721-.552,2.627,2.627,0,0,1,1.046-.2,2.075,2.075,0,0,1,1.4.442A1.545,1.545,0,0,1,28.92-3.16V-1.1a2.273,2.273,0,0,0,.189,1.024V0Zm-1.05-.883a1.094,1.094,0,0,0,.519-.125.823.823,0,0,0,.352-.336v-.817h-.475q-.954,0-1.015.659l0,.075a.508.508,0,0,0,.167.391A.649.649,0,0,0,26.776-.883Z" transform="translate(1142.686 -5158.715)" fill="#12263f"/><path d="M3.889-1.679a.677.677,0,0,0-.264-.573,3.458,3.458,0,0,0-.949-.422,6.729,6.729,0,0,1-1.085-.437A1.773,1.773,0,0,1,.5-4.7a1.545,1.545,0,0,1,.292-.925,1.906,1.906,0,0,1,.839-.635,3.159,3.159,0,0,1,1.228-.229,2.876,2.876,0,0,1,1.222.248,1.945,1.945,0,0,1,.833.7,1.834,1.834,0,0,1,.3,1.028H3.894a.863.863,0,0,0-.277-.683,1.138,1.138,0,0,0-.778-.244,1.216,1.216,0,0,0-.751.2.645.645,0,0,0-.268.538.617.617,0,0,0,.314.523,3.55,3.55,0,0,0,.925.4A4,4,0,0,1,4.7-2.936a1.672,1.672,0,0,1,.514,1.248,1.54,1.54,0,0,1-.628,1.3A2.751,2.751,0,0,1,2.892.088a3.267,3.267,0,0,1-1.345-.27,2.128,2.128,0,0,1-.925-.74A1.9,1.9,0,0,1,.3-2.013H1.626q0,1.059,1.266,1.059a1.231,1.231,0,0,0,.734-.191A.622.622,0,0,0,3.889-1.679Zm4.979,1.2a1.593,1.593,0,0,1-1.3.571A1.5,1.5,0,0,1,6.4-.352,1.876,1.876,0,0,1,5.99-1.639V-4.755H7.26v3.072q0,.743.677.743a.917.917,0,0,0,.888-.448V-4.755H10.1V0H8.9Zm6.473-1.85a2.879,2.879,0,0,1-.488,1.782,1.616,1.616,0,0,1-1.362.639,1.485,1.485,0,0,1-1.235-.593L12.2,0H11.057V-6.75h1.27v2.421a1.446,1.446,0,0,1,1.156-.514,1.629,1.629,0,0,1,1.365.639,2.883,2.883,0,0,1,.494,1.8Zm-1.27-.092a1.892,1.892,0,0,0-.229-1.052.773.773,0,0,0-.681-.332.838.838,0,0,0-.835.5v1.876a.849.849,0,0,0,.844.5.784.784,0,0,0,.809-.606A3.128,3.128,0,0,0,14.071-2.426Zm6.333.092a2.852,2.852,0,0,1-.5,1.76,1.6,1.6,0,0,1-1.347.661,1.481,1.481,0,0,1-1.165-.5V1.828h-1.27V-4.755H17.3l.044.466a1.493,1.493,0,0,1,1.2-.554,1.61,1.61,0,0,1,1.367.65A2.929,2.929,0,0,1,20.4-2.4Zm-1.27-.092A1.871,1.871,0,0,0,18.9-3.45a.766.766,0,0,0-.683-.36.832.832,0,0,0-.822.457v1.947a.846.846,0,0,0,.831.47Q19.134-.936,19.134-2.426ZM23.946,0a1.41,1.41,0,0,1-.127-.426,1.537,1.537,0,0,1-1.2.514,1.688,1.688,0,0,1-1.158-.4A1.3,1.3,0,0,1,21-1.336a1.344,1.344,0,0,1,.56-1.16A2.765,2.765,0,0,1,23.181-2.9h.584v-.272A.784.784,0,0,0,23.6-3.7a.666.666,0,0,0-.534-.2.757.757,0,0,0-.5.154.523.523,0,0,0-.182.422h-1.27a1.276,1.276,0,0,1,.255-.765,1.685,1.685,0,0,1,.721-.552,2.627,2.627,0,0,1,1.046-.2,2.075,2.075,0,0,1,1.4.442A1.545,1.545,0,0,1,25.04-3.16V-1.1a2.273,2.273,0,0,0,.189,1.024V0ZM22.9-.883a1.094,1.094,0,0,0,.519-.125.823.823,0,0,0,.352-.336v-.817h-.475q-.954,0-1.015.659l0,.075a.508.508,0,0,0,.167.391A.649.649,0,0,0,22.9-.883Zm5.792-2.681A3.45,3.45,0,0,0,28.23-3.6a.93.93,0,0,0-.945.488V0h-1.27V-4.755h1.2l.035.567a1.177,1.177,0,0,1,1.059-.655,1.331,1.331,0,0,1,.4.057Zm2.351-2.36v1.169h.813v.932h-.813V-1.45a.567.567,0,0,0,.1.378.508.508,0,0,0,.387.114A2.025,2.025,0,0,0,31.9-.989v.962a2.615,2.615,0,0,1-.769.114,1.213,1.213,0,0,1-1.362-1.349V-3.823h-.694v-.932h.694V-5.924ZM33.9,0H32.625V-4.755H33.9ZM32.55-5.985a.625.625,0,0,1,.191-.47.718.718,0,0,1,.521-.185.72.72,0,0,1,.519.185.622.622,0,0,1,.193.47.624.624,0,0,1-.2.475.722.722,0,0,1-.516.185.722.722,0,0,1-.516-.185A.624.624,0,0,1,32.55-5.985Zm2.2,3.573a2.865,2.865,0,0,1,.5-1.771,1.618,1.618,0,0,1,1.365-.659,1.456,1.456,0,0,1,1.147.519V-6.75h1.274V0H37.885l-.062-.505A1.5,1.5,0,0,1,36.6.088a1.614,1.614,0,0,1-1.347-.661A2.958,2.958,0,0,1,34.748-2.413Zm1.27.092A1.872,1.872,0,0,0,36.25-1.3a.759.759,0,0,0,.677.356.85.85,0,0,0,.831-.5V-3.313a.838.838,0,0,0-.822-.5Q36.018-3.81,36.018-2.32ZM42.772,0a1.41,1.41,0,0,1-.127-.426,1.537,1.537,0,0,1-1.2.514,1.688,1.688,0,0,1-1.158-.4,1.3,1.3,0,0,1-.459-1.02,1.344,1.344,0,0,1,.56-1.16A2.765,2.765,0,0,1,42.007-2.9h.584v-.272a.784.784,0,0,0-.169-.527.666.666,0,0,0-.534-.2.757.757,0,0,0-.5.154.523.523,0,0,0-.182.422h-1.27a1.276,1.276,0,0,1,.255-.765,1.685,1.685,0,0,1,.721-.552,2.627,2.627,0,0,1,1.046-.2,2.075,2.075,0,0,1,1.4.442,1.545,1.545,0,0,1,.516,1.241V-1.1a2.273,2.273,0,0,0,.189,1.024V0Zm-1.05-.883a1.094,1.094,0,0,0,.519-.125.823.823,0,0,0,.352-.336v-.817h-.475q-.954,0-1.015.659l0,.075a.508.508,0,0,0,.167.391A.649.649,0,0,0,41.722-.883Z" transform="translate(1075.351 -4981.567)" fill="#12263f"/><path d="M-16.825-2.052a.827.827,0,0,0-.322-.7,4.227,4.227,0,0,0-1.16-.516A8.224,8.224,0,0,1-19.634-3.8a2.168,2.168,0,0,1-1.332-1.939,1.888,1.888,0,0,1,.357-1.131,2.33,2.33,0,0,1,1.026-.776,3.861,3.861,0,0,1,1.5-.279,3.515,3.515,0,0,1,1.493.3,2.378,2.378,0,0,1,1.018.857,2.242,2.242,0,0,1,.363,1.257H-16.82a1.055,1.055,0,0,0-.338-.835,1.391,1.391,0,0,0-.951-.3,1.486,1.486,0,0,0-.918.25.788.788,0,0,0-.328.658.754.754,0,0,0,.384.639,4.339,4.339,0,0,0,1.131.483,4.885,4.885,0,0,1,2,1.026,2.043,2.043,0,0,1,.628,1.525A1.882,1.882,0,0,1-15.976-.47a3.362,3.362,0,0,1-2.068.577,3.993,3.993,0,0,1-1.644-.33,2.6,2.6,0,0,1-1.131-.905,2.318,2.318,0,0,1-.389-1.332h1.617q0,1.294,1.547,1.294a1.5,1.5,0,0,0,.9-.234A.76.76,0,0,0-16.825-2.052ZM-12.582,0h-1.558V-5.812h1.558Zm-1.649-7.315A.764.764,0,0,1-14-7.89a.878.878,0,0,1,.636-.226.88.88,0,0,1,.634.226.76.76,0,0,1,.236.575.762.762,0,0,1-.239.58.882.882,0,0,1-.631.226.882.882,0,0,1-.631-.226A.762.762,0,0,1-14.231-7.315Zm6.075,5.709a.5.5,0,0,0-.282-.448,3.2,3.2,0,0,0-.905-.293q-2.073-.435-2.073-1.762A1.6,1.6,0,0,1-10.774-5.4,2.589,2.589,0,0,1-9.1-5.919a2.787,2.787,0,0,1,1.77.521,1.642,1.642,0,0,1,.663,1.354H-8.215a.751.751,0,0,0-.215-.551A.909.909,0,0,0-9.1-4.812a.929.929,0,0,0-.607.177.56.56,0,0,0-.215.451.478.478,0,0,0,.244.416,2.514,2.514,0,0,0,.824.274,6.734,6.734,0,0,1,.978.26A1.606,1.606,0,0,1-6.647-1.67,1.516,1.516,0,0,1-7.329-.384,2.943,2.943,0,0,1-9.091.107a3.073,3.073,0,0,1-1.3-.26,2.176,2.176,0,0,1-.889-.714,1.66,1.66,0,0,1-.322-.98h1.472a.81.81,0,0,0,.306.634,1.214,1.214,0,0,0,.763.22,1.124,1.124,0,0,0,.674-.169A.526.526,0,0,0-8.156-1.606ZM-3.789-7.24v1.429H-2.8v1.139h-.994v2.9a.693.693,0,0,0,.124.462.62.62,0,0,0,.473.14,2.475,2.475,0,0,0,.457-.038V-.032a3.2,3.2,0,0,1-.94.14A1.482,1.482,0,0,1-5.342-1.542V-4.673H-6.19V-5.812h.849V-7.24ZM.744.107A2.853,2.853,0,0,1-1.337-.677a2.787,2.787,0,0,1-.8-2.089v-.15A3.511,3.511,0,0,1-1.8-4.482,2.483,2.483,0,0,1-.843-5.546,2.691,2.691,0,0,1,.572-5.919a2.412,2.412,0,0,1,1.877.752,3.056,3.056,0,0,1,.685,2.132V-2.4h-3.7a1.442,1.442,0,0,0,.454.913,1.372,1.372,0,0,0,.959.344,1.675,1.675,0,0,0,1.4-.65L3.01-.94a2.33,2.33,0,0,1-.945.771A3.1,3.1,0,0,1,.744.107ZM.567-4.662a.972.972,0,0,0-.749.312,1.609,1.609,0,0,0-.368.892H1.609v-.124a1.147,1.147,0,0,0-.279-.8A1,1,0,0,0,.567-4.662Zm4.9-1.149.048.65a2.042,2.042,0,0,1,1.67-.757,1.55,1.55,0,0,1,1.542.886,2,2,0,0,1,1.746-.886,1.733,1.733,0,0,1,1.407.551,2.531,2.531,0,0,1,.462,1.657V0H10.788V-3.706a1.107,1.107,0,0,0-.193-.722.857.857,0,0,0-.682-.228.969.969,0,0,0-.967.666L8.951,0H7.4V-3.7a1.093,1.093,0,0,0-.2-.73.865.865,0,0,0-.677-.226,1.006,1.006,0,0,0-.956.548V0H4.015V-5.812ZM16.906,0a1.724,1.724,0,0,1-.156-.521,1.878,1.878,0,0,1-1.466.628,2.063,2.063,0,0,1-1.415-.494,1.589,1.589,0,0,1-.561-1.246,1.642,1.642,0,0,1,.685-1.418,3.379,3.379,0,0,1,1.979-.5h.714v-.333a.958.958,0,0,0-.207-.645.813.813,0,0,0-.653-.242.925.925,0,0,0-.615.188.639.639,0,0,0-.223.516H13.436A1.559,1.559,0,0,1,13.747-5a2.059,2.059,0,0,1,.881-.674,3.21,3.21,0,0,1,1.278-.244,2.536,2.536,0,0,1,1.705.54,1.888,1.888,0,0,1,.631,1.517v2.519a2.778,2.778,0,0,0,.231,1.251V0ZM15.622-1.08a1.337,1.337,0,0,0,.634-.153,1,1,0,0,0,.43-.411v-1h-.58q-1.166,0-1.241.806l-.005.091a.621.621,0,0,0,.2.478A.793.793,0,0,0,15.622-1.08ZM-25.357,11a1.724,1.724,0,0,1-.156-.521,1.878,1.878,0,0,1-1.466.628,2.063,2.063,0,0,1-1.415-.494,1.589,1.589,0,0,1-.561-1.246,1.642,1.642,0,0,1,.685-1.418,3.379,3.379,0,0,1,1.979-.5h.714V7.117a.958.958,0,0,0-.207-.645.813.813,0,0,0-.653-.242.925.925,0,0,0-.615.188.639.639,0,0,0-.223.516h-1.552A1.559,1.559,0,0,1-28.515,6a2.059,2.059,0,0,1,.881-.674,3.21,3.21,0,0,1,1.278-.244,2.536,2.536,0,0,1,1.705.54,1.888,1.888,0,0,1,.631,1.517V9.657a2.778,2.778,0,0,0,.231,1.251V11Zm-1.284-1.08a1.337,1.337,0,0,0,.634-.153,1,1,0,0,0,.43-.411v-1h-.58q-1.166,0-1.241.806l-.005.091a.621.621,0,0,0,.2.478A.793.793,0,0,0-26.641,9.92Zm7.079-3.276A4.217,4.217,0,0,0-20.12,6.6a1.137,1.137,0,0,0-1.155.6V11h-1.552V5.188h1.466l.043.693a1.438,1.438,0,0,1,1.294-.8,1.626,1.626,0,0,1,.483.07Zm2.2-1.456.048.65a2.042,2.042,0,0,1,1.67-.757,1.55,1.55,0,0,1,1.542.886,2,2,0,0,1,1.746-.886,1.733,1.733,0,0,1,1.407.551,2.531,2.531,0,0,1,.462,1.657V11h-1.558V7.294a1.107,1.107,0,0,0-.193-.722.857.857,0,0,0-.682-.228.969.969,0,0,0-.967.666L-13.879,11h-1.552V7.3a1.093,1.093,0,0,0-.2-.73.865.865,0,0,0-.677-.226,1.006,1.006,0,0,0-.956.548V11h-1.552V5.188Zm7.826,2.852A3.447,3.447,0,0,1-9.2,6.5a2.438,2.438,0,0,1,.959-1.047,2.8,2.8,0,0,1,1.453-.371,2.646,2.646,0,0,1,1.92.72,2.889,2.889,0,0,1,.83,1.955l.011.4A3.038,3.038,0,0,1-4.775,10.3a2.6,2.6,0,0,1-2,.808A2.608,2.608,0,0,1-8.784,10.3,3.091,3.091,0,0,1-9.534,8.11Zm1.552.113A2.166,2.166,0,0,0-7.67,9.418a1.028,1.028,0,0,0,.892.438A1.031,1.031,0,0,0-5.9,9.424a2.371,2.371,0,0,0,.317-1.383A2.145,2.145,0,0,0-5.9,6.784a1.031,1.031,0,0,0-.892-.446,1.014,1.014,0,0,0-.881.443A2.41,2.41,0,0,0-7.981,8.153Zm6.338-2.965.048.671a2.029,2.029,0,0,1,1.67-.779,1.686,1.686,0,0,1,1.375.542,2.531,2.531,0,0,1,.462,1.622V11H.36V7.283a1.007,1.007,0,0,0-.215-.717.962.962,0,0,0-.714-.223,1.068,1.068,0,0,0-.983.559V11H-3.1V5.188ZM4.727,11H3.169V5.188H4.727ZM3.078,3.685a.764.764,0,0,1,.234-.575.878.878,0,0,1,.636-.226.88.88,0,0,1,.634.226.76.76,0,0,1,.236.575.762.762,0,0,1-.239.58.882.882,0,0,1-.631.226.882.882,0,0,1-.631-.226A.762.762,0,0,1,3.078,3.685Zm4.71,6.064h2.841V11H5.806v-.945L8.54,6.445H5.887V5.188h4.657v.918ZM14.969,11a1.724,1.724,0,0,1-.156-.521,1.878,1.878,0,0,1-1.466.628,2.063,2.063,0,0,1-1.415-.494,1.589,1.589,0,0,1-.561-1.246,1.642,1.642,0,0,1,.685-1.418,3.379,3.379,0,0,1,1.979-.5h.714V7.117a.958.958,0,0,0-.207-.645.813.813,0,0,0-.653-.242.925.925,0,0,0-.615.188.639.639,0,0,0-.223.516H11.5A1.559,1.559,0,0,1,11.811,6a2.059,2.059,0,0,1,.881-.674,3.21,3.21,0,0,1,1.278-.244,2.536,2.536,0,0,1,1.705.54,1.888,1.888,0,0,1,.631,1.517V9.657a2.778,2.778,0,0,0,.231,1.251V11ZM13.686,9.92a1.337,1.337,0,0,0,.634-.153,1,1,0,0,0,.43-.411v-1h-.58q-1.166,0-1.241.806l-.005.091a.621.621,0,0,0,.2.478A.793.793,0,0,0,13.686,9.92Zm3.572-1.869a3.5,3.5,0,0,1,.61-2.165,1.978,1.978,0,0,1,1.668-.806,1.78,1.78,0,0,1,1.4.634V2.75h1.558V11h-1.4l-.075-.618a1.827,1.827,0,0,1-1.493.725,1.973,1.973,0,0,1-1.646-.808A3.615,3.615,0,0,1,17.257,8.051Zm1.552.113a2.288,2.288,0,0,0,.285,1.251.928.928,0,0,0,.827.435,1.039,1.039,0,0,0,1.015-.607V6.95a1.024,1.024,0,0,0-1-.607Q18.81,6.343,18.81,8.164Zm4.646-.124A3.447,3.447,0,0,1,23.789,6.5a2.438,2.438,0,0,1,.959-1.047A2.8,2.8,0,0,1,26.2,5.081a2.646,2.646,0,0,1,1.92.72,2.889,2.889,0,0,1,.83,1.955l.011.4a3.038,3.038,0,0,1-.747,2.146,2.894,2.894,0,0,1-4.01,0,3.091,3.091,0,0,1-.749-2.191Zm1.552.113a2.166,2.166,0,0,0,.312,1.265,1.12,1.12,0,0,0,1.772.005,2.371,2.371,0,0,0,.317-1.383,2.145,2.145,0,0,0-.317-1.257,1.031,1.031,0,0,0-.892-.446,1.014,1.014,0,0,0-.881.443A2.41,2.41,0,0,0,25.008,8.153Z" transform="translate(1101.925 -4945.413)" fill="#12263f"/><path d="M5.774,0H4.456L1.89-4.21V0H.571V-6.4H1.89L4.46-2.18V-6.4H5.774ZM9.6,0A1.41,1.41,0,0,1,9.47-.426a1.537,1.537,0,0,1-1.2.514,1.688,1.688,0,0,1-1.158-.4,1.3,1.3,0,0,1-.459-1.02,1.344,1.344,0,0,1,.56-1.16A2.765,2.765,0,0,1,8.833-2.9h.584v-.272A.784.784,0,0,0,9.248-3.7a.666.666,0,0,0-.534-.2.757.757,0,0,0-.5.154.523.523,0,0,0-.182.422H6.759a1.276,1.276,0,0,1,.255-.765,1.685,1.685,0,0,1,.721-.552,2.627,2.627,0,0,1,1.046-.2,2.075,2.075,0,0,1,1.4.442,1.545,1.545,0,0,1,.516,1.241V-1.1a2.273,2.273,0,0,0,.189,1.024V0ZM8.547-.883a1.094,1.094,0,0,0,.519-.125.823.823,0,0,0,.352-.336v-.817H8.943q-.954,0-1.015.659l0,.075a.508.508,0,0,0,.167.391A.649.649,0,0,0,8.547-.883Zm4.289-3.872.04.549a1.66,1.66,0,0,1,1.367-.637,1.38,1.38,0,0,1,1.125.444,2.071,2.071,0,0,1,.378,1.327V0h-1.27V-3.041a.824.824,0,0,0-.176-.587.787.787,0,0,0-.584-.182.874.874,0,0,0-.8.457V0h-1.27V-4.755ZM16.51-2.413a2.865,2.865,0,0,1,.5-1.771,1.618,1.618,0,0,1,1.365-.659,1.456,1.456,0,0,1,1.147.519V-6.75h1.274V0H19.648l-.062-.505a1.5,1.5,0,0,1-1.222.593,1.614,1.614,0,0,1-1.347-.661A2.958,2.958,0,0,1,16.51-2.413Zm1.27.092A1.872,1.872,0,0,0,18.013-1.3a.759.759,0,0,0,.677.356.85.85,0,0,0,.831-.5V-3.313a.838.838,0,0,0-.822-.5Q17.78-3.81,17.78-2.32ZM23.12,0H21.845V-4.755H23.12ZM21.771-5.985a.625.625,0,0,1,.191-.47.718.718,0,0,1,.521-.185A.72.72,0,0,1,23-6.456a.622.622,0,0,1,.193.47.624.624,0,0,1-.2.475.722.722,0,0,1-.516.185.722.722,0,0,1-.516-.185A.624.624,0,0,1,21.771-5.985Zm3.564,1.23.04.549a1.66,1.66,0,0,1,1.367-.637,1.38,1.38,0,0,1,1.125.444,2.071,2.071,0,0,1,.378,1.327V0h-1.27V-3.041a.824.824,0,0,0-.176-.587.787.787,0,0,0-.584-.182.874.874,0,0,0-.8.457V0h-1.27V-4.755ZM31.961,0a1.41,1.41,0,0,1-.127-.426,1.537,1.537,0,0,1-1.2.514,1.688,1.688,0,0,1-1.158-.4,1.3,1.3,0,0,1-.459-1.02,1.344,1.344,0,0,1,.56-1.16A2.765,2.765,0,0,1,31.2-2.9h.584v-.272a.784.784,0,0,0-.169-.527.666.666,0,0,0-.534-.2.757.757,0,0,0-.5.154.523.523,0,0,0-.182.422h-1.27a1.276,1.276,0,0,1,.255-.765,1.685,1.685,0,0,1,.721-.552,2.627,2.627,0,0,1,1.046-.2,2.075,2.075,0,0,1,1.4.442,1.545,1.545,0,0,1,.516,1.241V-1.1a2.273,2.273,0,0,0,.189,1.024V0Zm-1.05-.883a1.094,1.094,0,0,0,.519-.125.823.823,0,0,0,.352-.336v-.817h-.475q-.954,0-1.015.659l0,.075a.508.508,0,0,0,.167.391A.649.649,0,0,0,30.911-.883Z" transform="translate(1231.321 -4902.611)" fill="#12263f"/><path d="M4.184-1.318H1.872L1.433,0H.031L2.413-6.4H3.634L6.029,0h-1.4ZM2.228-2.386h1.6l-.8-2.4ZM9.215-3.564A3.45,3.45,0,0,0,8.758-3.6a.93.93,0,0,0-.945.488V0H6.543V-4.755h1.2l.035.567a1.177,1.177,0,0,1,1.059-.655,1.331,1.331,0,0,1,.4.057ZM12.45,0a1.41,1.41,0,0,1-.127-.426,1.537,1.537,0,0,1-1.2.514,1.688,1.688,0,0,1-1.158-.4,1.3,1.3,0,0,1-.459-1.02,1.344,1.344,0,0,1,.56-1.16A2.765,2.765,0,0,1,11.685-2.9h.584v-.272A.784.784,0,0,0,12.1-3.7a.666.666,0,0,0-.534-.2.757.757,0,0,0-.5.154.523.523,0,0,0-.182.422H9.611a1.276,1.276,0,0,1,.255-.765,1.685,1.685,0,0,1,.721-.552,2.627,2.627,0,0,1,1.046-.2,2.075,2.075,0,0,1,1.4.442,1.545,1.545,0,0,1,.516,1.241V-1.1a2.273,2.273,0,0,0,.189,1.024V0ZM11.4-.883a1.094,1.094,0,0,0,.519-.125.823.823,0,0,0,.352-.336v-.817h-.475q-.954,0-1.015.659l0,.075a.508.508,0,0,0,.167.391A.649.649,0,0,0,11.4-.883Zm4.289-3.872.04.549a1.66,1.66,0,0,1,1.367-.637A1.38,1.38,0,0,1,18.22-4.4,2.071,2.071,0,0,1,18.6-3.072V0h-1.27V-3.041a.824.824,0,0,0-.176-.587.787.787,0,0,0-.584-.182.874.874,0,0,0-.8.457V0h-1.27V-4.755ZM21.538-.936a.833.833,0,0,0,.571-.193.677.677,0,0,0,.229-.514h1.191a1.629,1.629,0,0,1-.264.885,1.74,1.74,0,0,1-.71.624,2.221,2.221,0,0,1-1,.222A2.064,2.064,0,0,1,19.951-.56a2.565,2.565,0,0,1-.589-1.791v-.083a2.536,2.536,0,0,1,.584-1.753,2.04,2.04,0,0,1,1.6-.655,2,2,0,0,1,1.43.508,1.8,1.8,0,0,1,.547,1.351H22.337a.866.866,0,0,0-.229-.6.764.764,0,0,0-.58-.231.765.765,0,0,0-.67.323,1.87,1.87,0,0,0-.226,1.048v.132a1.893,1.893,0,0,0,.224,1.055A.775.775,0,0,0,21.538-.936Zm4.9,1.024a2.334,2.334,0,0,1-1.7-.642,2.281,2.281,0,0,1-.657-1.709v-.123a2.872,2.872,0,0,1,.277-1.281,2.032,2.032,0,0,1,.784-.87A2.2,2.2,0,0,1,26.3-4.843a1.973,1.973,0,0,1,1.536.615,2.5,2.5,0,0,1,.56,1.745v.519H25.37a1.18,1.18,0,0,0,.371.747,1.123,1.123,0,0,0,.784.281,1.371,1.371,0,0,0,1.147-.532l.624.7a1.907,1.907,0,0,1-.773.631A2.538,2.538,0,0,1,26.442.088Zm-.145-3.9a.8.8,0,0,0-.613.255,1.317,1.317,0,0,0-.3.729h1.767v-.1a.939.939,0,0,0-.229-.653A.821.821,0,0,0,26.3-3.814ZM30.458,0H29.184V-6.75h1.274Zm5.265-.936a.833.833,0,0,0,.571-.193.677.677,0,0,0,.229-.514h1.191a1.629,1.629,0,0,1-.264.885,1.74,1.74,0,0,1-.71.624,2.221,2.221,0,0,1-1,.222A2.064,2.064,0,0,1,34.137-.56a2.565,2.565,0,0,1-.589-1.791v-.083a2.536,2.536,0,0,1,.584-1.753,2.04,2.04,0,0,1,1.6-.655,2,2,0,0,1,1.43.508,1.8,1.8,0,0,1,.547,1.351H36.523a.866.866,0,0,0-.229-.6.764.764,0,0,0-.58-.231.765.765,0,0,0-.67.323,1.87,1.87,0,0,0-.226,1.048v.132a1.893,1.893,0,0,0,.224,1.055A.775.775,0,0,0,35.723-.936Zm2.518-1.485a2.82,2.82,0,0,1,.272-1.261A2,2,0,0,1,39.3-4.54a2.289,2.289,0,0,1,1.189-.3,2.165,2.165,0,0,1,1.571.589,2.363,2.363,0,0,1,.679,1.6l.009.325a2.485,2.485,0,0,1-.611,1.756A2.123,2.123,0,0,1,40.5.088a2.134,2.134,0,0,1-1.641-.659,2.529,2.529,0,0,1-.613-1.793Zm1.27.092a1.773,1.773,0,0,0,.255,1.035.841.841,0,0,0,.729.358.843.843,0,0,0,.721-.354,1.94,1.94,0,0,0,.259-1.132,1.755,1.755,0,0,0-.259-1.028.843.843,0,0,0-.729-.365.829.829,0,0,0-.721.363A1.972,1.972,0,0,0,39.511-2.329ZM44.868,0H43.594V-6.75h1.274Zm.848-2.421a2.82,2.82,0,0,1,.272-1.261,2,2,0,0,1,.784-.857,2.289,2.289,0,0,1,1.189-.3,2.165,2.165,0,0,1,1.571.589,2.363,2.363,0,0,1,.679,1.6l.009.325A2.485,2.485,0,0,1,49.61-.573a2.123,2.123,0,0,1-1.639.661,2.134,2.134,0,0,1-1.641-.659,2.529,2.529,0,0,1-.613-1.793Zm1.27.092a1.773,1.773,0,0,0,.255,1.035.841.841,0,0,0,.729.358.843.843,0,0,0,.721-.354,1.94,1.94,0,0,0,.259-1.132,1.755,1.755,0,0,0-.259-1.028.843.843,0,0,0-.729-.365.829.829,0,0,0-.721.363A1.972,1.972,0,0,0,46.986-2.329Zm5.208-2.426.04.532a1.671,1.671,0,0,1,1.367-.62,1.268,1.268,0,0,1,1.261.725,1.633,1.633,0,0,1,1.428-.725,1.418,1.418,0,0,1,1.151.45,2.07,2.07,0,0,1,.378,1.356V0H56.544V-3.032a.905.905,0,0,0-.158-.591.7.7,0,0,0-.558-.187.793.793,0,0,0-.791.545l0,3.265h-1.27V-3.028a.894.894,0,0,0-.163-.6.708.708,0,0,0-.554-.185.823.823,0,0,0-.782.448V0H51V-4.755ZM63.079-2.333a2.879,2.879,0,0,1-.488,1.782,1.616,1.616,0,0,1-1.362.639,1.485,1.485,0,0,1-1.235-.593L59.937,0H58.794V-6.75h1.27v2.421a1.446,1.446,0,0,1,1.156-.514,1.629,1.629,0,0,1,1.365.639,2.883,2.883,0,0,1,.494,1.8Zm-1.27-.092a1.892,1.892,0,0,0-.229-1.052A.773.773,0,0,0,60.9-3.81a.838.838,0,0,0-.835.5v1.876a.849.849,0,0,0,.844.5.784.784,0,0,0,.809-.606A3.128,3.128,0,0,0,61.809-2.426ZM65.2,0H63.927V-4.755H65.2ZM63.853-5.985a.625.625,0,0,1,.191-.47.718.718,0,0,1,.521-.185.72.72,0,0,1,.519.185.622.622,0,0,1,.193.47.624.624,0,0,1-.2.475.722.722,0,0,1-.516.185.722.722,0,0,1-.516-.185A.624.624,0,0,1,63.853-5.985ZM69,0a1.41,1.41,0,0,1-.127-.426,1.537,1.537,0,0,1-1.2.514,1.688,1.688,0,0,1-1.158-.4,1.3,1.3,0,0,1-.459-1.02,1.344,1.344,0,0,1,.56-1.16A2.765,2.765,0,0,1,68.238-2.9h.584v-.272a.784.784,0,0,0-.169-.527.666.666,0,0,0-.534-.2.757.757,0,0,0-.5.154.523.523,0,0,0-.182.422h-1.27a1.276,1.276,0,0,1,.255-.765,1.685,1.685,0,0,1,.721-.552,2.627,2.627,0,0,1,1.046-.2,2.075,2.075,0,0,1,1.4.442A1.545,1.545,0,0,1,70.1-3.16V-1.1a2.273,2.273,0,0,0,.189,1.024V0Zm-1.05-.883a1.094,1.094,0,0,0,.519-.125.823.823,0,0,0,.352-.336v-.817h-.475q-.954,0-1.015.659l0,.075a.508.508,0,0,0,.167.391A.649.649,0,0,0,67.953-.883Zm4.289-3.872.04.549a1.66,1.66,0,0,1,1.367-.637,1.38,1.38,0,0,1,1.125.444,2.071,2.071,0,0,1,.378,1.327V0h-1.27V-3.041a.824.824,0,0,0-.176-.587.787.787,0,0,0-.584-.182.874.874,0,0,0-.8.457V0h-1.27V-4.755Zm3.674,2.333a2.82,2.82,0,0,1,.272-1.261,2,2,0,0,1,.784-.857,2.289,2.289,0,0,1,1.189-.3,2.165,2.165,0,0,1,1.571.589,2.363,2.363,0,0,1,.679,1.6l.009.325a2.485,2.485,0,0,1-.611,1.756A2.123,2.123,0,0,1,78.17.088a2.134,2.134,0,0,1-1.641-.659,2.529,2.529,0,0,1-.613-1.793Zm1.27.092a1.773,1.773,0,0,0,.255,1.035.841.841,0,0,0,.729.358.843.843,0,0,0,.721-.354,1.94,1.94,0,0,0,.259-1.132,1.755,1.755,0,0,0-.259-1.028.843.843,0,0,0-.729-.365.829.829,0,0,0-.721.363A1.972,1.972,0,0,0,77.186-2.329Z" transform="translate(1093.652 -4760.29)" fill="#12263f"/><path d="M8.162,3.047V9.814a3.175,3.175,0,0,1-.885,2.3,3.567,3.567,0,0,1-2.382,1l-.349.014a3.725,3.725,0,0,1-2.6-.882A3.154,3.154,0,0,1,.957,9.828V3.047h1.3v6.74a2.277,2.277,0,0,0,.595,1.678,2.286,2.286,0,0,0,1.7.6,2.3,2.3,0,0,0,1.706-.595,2.272,2.272,0,0,0,.591-1.675V3.047ZM16.3,9.384a4.4,4.4,0,0,1-.779,2.724,2.49,2.49,0,0,1-2.092,1.029,2.578,2.578,0,0,1-2.167-.991L11.2,13H10.035V2.5H11.3V6.417a2.564,2.564,0,0,1,2.112-.95,2.505,2.505,0,0,1,2.116,1.019A4.53,4.53,0,0,1,16.3,9.274ZM15.032,9.24a3.417,3.417,0,0,0-.5-2,1.652,1.652,0,0,0-1.436-.7A1.857,1.857,0,0,0,11.3,7.7v3.2a1.909,1.909,0,0,0,1.812,1.162,1.643,1.643,0,0,0,1.415-.7A3.634,3.634,0,0,0,15.032,9.24ZM19.264,13H18V5.6h1.265ZM17.9,3.642a.755.755,0,0,1,.188-.52.706.706,0,0,1,.557-.212.717.717,0,0,1,.561.212.747.747,0,0,1,.191.52.722.722,0,0,1-.191.513.73.73,0,0,1-.561.205.718.718,0,0,1-.557-.205A.73.73,0,0,1,17.9,3.642ZM24.254,12.1a1.822,1.822,0,0,0,1.183-.41A1.443,1.443,0,0,0,26,10.669h1.2a2.293,2.293,0,0,1-.437,1.21,2.881,2.881,0,0,1-1.077.916,3.107,3.107,0,0,1-1.425.342,3.047,3.047,0,0,1-2.4-1.008,4.016,4.016,0,0,1-.892-2.758V9.158a4.453,4.453,0,0,1,.4-1.921,3.02,3.02,0,0,1,1.138-1.306,3.233,3.233,0,0,1,1.753-.465,2.966,2.966,0,0,1,2.068.745,2.663,2.663,0,0,1,.878,1.935H26a1.743,1.743,0,0,0-.543-1.179,1.691,1.691,0,0,0-1.207-.461,1.77,1.77,0,0,0-1.494.694,3.259,3.259,0,0,0-.53,2.006v.239a3.194,3.194,0,0,0,.526,1.969A1.779,1.779,0,0,0,24.254,12.1Zm8.928.9A2.657,2.657,0,0,1,33,12.221a2.822,2.822,0,0,1-2.105.916,2.611,2.611,0,0,1-1.794-.619,2,2,0,0,1-.7-1.569,2.091,2.091,0,0,1,.878-1.794,4.142,4.142,0,0,1,2.471-.639h1.23V7.935a1.42,1.42,0,0,0-.4-1.056,1.593,1.593,0,0,0-1.169-.393,1.844,1.844,0,0,0-1.135.342,1.007,1.007,0,0,0-.458.827H28.554a1.745,1.745,0,0,1,.393-1.07,2.683,2.683,0,0,1,1.066-.817,3.588,3.588,0,0,1,1.48-.3,2.924,2.924,0,0,1,2,.639,2.306,2.306,0,0,1,.752,1.76v3.4a4.162,4.162,0,0,0,.26,1.62V13Zm-2.1-.964a2.223,2.223,0,0,0,1.128-.308,1.861,1.861,0,0,0,.772-.8V9.411h-.991q-2.324,0-2.324,1.36a1.151,1.151,0,0,0,.4.93A1.524,1.524,0,0,0,31.083,12.036ZM39.2,12.1a1.822,1.822,0,0,0,1.183-.41,1.443,1.443,0,0,0,.561-1.025h1.2a2.293,2.293,0,0,1-.437,1.21,2.881,2.881,0,0,1-1.077.916,3.107,3.107,0,0,1-1.425.342,3.047,3.047,0,0,1-2.4-1.008A4.016,4.016,0,0,1,35.9,9.37V9.158a4.453,4.453,0,0,1,.4-1.921,3.02,3.02,0,0,1,1.138-1.306,3.233,3.233,0,0,1,1.753-.465,2.966,2.966,0,0,1,2.068.745,2.663,2.663,0,0,1,.878,1.935h-1.2A1.743,1.743,0,0,0,40.4,6.967a1.691,1.691,0,0,0-1.207-.461A1.77,1.77,0,0,0,37.7,7.2a3.259,3.259,0,0,0-.53,2.006v.239a3.194,3.194,0,0,0,.526,1.969A1.779,1.779,0,0,0,39.2,12.1Zm5.735.9H43.668V5.6h1.265ZM43.565,3.642a.755.755,0,0,1,.188-.52.706.706,0,0,1,.557-.212.717.717,0,0,1,.561.212.747.747,0,0,1,.191.52.722.722,0,0,1-.191.513.73.73,0,0,1-.561.205.718.718,0,0,1-.557-.205A.73.73,0,0,1,43.565,3.642Zm3.056,5.592a4.369,4.369,0,0,1,.427-1.955,3.187,3.187,0,0,1,1.189-1.34,3.238,3.238,0,0,1,1.74-.472,3.119,3.119,0,0,1,2.444,1.046,4.024,4.024,0,0,1,.933,2.782v.089a4.407,4.407,0,0,1-.414,1.938,3.14,3.14,0,0,1-1.183,1.336,3.275,3.275,0,0,1-1.767.479,3.111,3.111,0,0,1-2.437-1.046,4,4,0,0,1-.933-2.769Zm1.271.15a3.164,3.164,0,0,0,.571,1.976,1.934,1.934,0,0,0,3.059-.01,3.46,3.46,0,0,0,.567-2.116,3.159,3.159,0,0,0-.578-1.972,1.836,1.836,0,0,0-1.535-.755,1.816,1.816,0,0,0-1.511.745A3.435,3.435,0,0,0,47.893,9.384ZM50.552,2.5h1.531L50.251,4.51H49.232Zm5.585,3.1.041.93a2.7,2.7,0,0,1,2.215-1.066q2.345,0,2.365,2.646V13H59.493V8.105a1.7,1.7,0,0,0-.366-1.183A1.466,1.466,0,0,0,58.01,6.54a1.825,1.825,0,0,0-1.08.328,2.228,2.228,0,0,0-.725.861V13H54.94V5.6ZM65.823,9.24A4.333,4.333,0,0,1,66.63,6.5a2.745,2.745,0,0,1,4.17-.147V2.5h1.265V13H70.9l-.062-.793a2.575,2.575,0,0,1-2.112.93,2.526,2.526,0,0,1-2.1-1.053,4.382,4.382,0,0,1-.81-2.748Zm1.265.144a3.281,3.281,0,0,0,.52,1.969,1.68,1.68,0,0,0,1.436.711,1.845,1.845,0,0,0,1.757-1.08v-3.4A1.859,1.859,0,0,0,69.057,6.54a1.687,1.687,0,0,0-1.449.718A3.612,3.612,0,0,0,67.088,9.384ZM77.1,13.137a3.232,3.232,0,0,1-2.447-.988,3.666,3.666,0,0,1-.943-2.642V9.274a4.438,4.438,0,0,1,.42-1.965A3.28,3.28,0,0,1,75.3,5.956a2.956,2.956,0,0,1,1.637-.489,2.77,2.77,0,0,1,2.242.95,4.114,4.114,0,0,1,.8,2.721v.526H74.97a2.629,2.629,0,0,0,.639,1.767,2.009,2.009,0,0,0,1.555.673,2.2,2.2,0,0,0,1.135-.273,2.851,2.851,0,0,0,.813-.725l.772.6A3.106,3.106,0,0,1,77.1,13.137Zm-.157-6.631a1.687,1.687,0,0,0-1.285.557,2.708,2.708,0,0,0-.643,1.562h3.705v-.1a2.409,2.409,0,0,0-.52-1.494A1.588,1.588,0,0,0,76.938,6.506ZM86.283,13H85.019V2.5h1.265Zm6.59,0a2.657,2.657,0,0,1-.178-.779,2.822,2.822,0,0,1-2.105.916,2.611,2.611,0,0,1-1.794-.619,2,2,0,0,1-.7-1.569,2.091,2.091,0,0,1,.878-1.794,4.141,4.141,0,0,1,2.471-.639h1.23V7.935a1.42,1.42,0,0,0-.4-1.056,1.593,1.593,0,0,0-1.169-.393,1.844,1.844,0,0,0-1.135.342,1.007,1.007,0,0,0-.458.827H88.245a1.745,1.745,0,0,1,.393-1.07A2.683,2.683,0,0,1,89.7,5.768a3.588,3.588,0,0,1,1.48-.3,2.924,2.924,0,0,1,2,.639,2.306,2.306,0,0,1,.752,1.76v3.4a4.162,4.162,0,0,0,.26,1.62V13Zm-2.1-.964a2.223,2.223,0,0,0,1.128-.308,1.861,1.861,0,0,0,.772-.8V9.411h-.991q-2.324,0-2.324,1.36a1.151,1.151,0,0,0,.4.93A1.524,1.524,0,0,0,90.774,12.036ZM7.205,29.384A4.429,4.429,0,0,1,6.433,32.1a2.476,2.476,0,0,1-2.092,1.032,2.713,2.713,0,0,1-2.119-.854v3.562H.957V25.6H2.112l.062.82a2.605,2.605,0,0,1,2.146-.957,2.522,2.522,0,0,1,2.109,1,4.477,4.477,0,0,1,.776,2.8ZM5.94,29.24a3.268,3.268,0,0,0-.533-1.976,1.718,1.718,0,0,0-1.463-.725,1.859,1.859,0,0,0-1.723,1.019v3.534A1.863,1.863,0,0,0,3.958,32.1,1.71,1.71,0,0,0,5.4,31.383,3.567,3.567,0,0,0,5.94,29.24ZM13.378,33a2.657,2.657,0,0,1-.178-.779,2.822,2.822,0,0,1-2.105.916A2.611,2.611,0,0,1,9.3,32.518a2,2,0,0,1-.7-1.569,2.091,2.091,0,0,1,.878-1.794,4.142,4.142,0,0,1,2.471-.639h1.23v-.581a1.42,1.42,0,0,0-.4-1.056,1.593,1.593,0,0,0-1.169-.393,1.844,1.844,0,0,0-1.135.342,1.007,1.007,0,0,0-.458.827H8.75a1.745,1.745,0,0,1,.393-1.07,2.683,2.683,0,0,1,1.066-.817,3.588,3.588,0,0,1,1.48-.3,2.924,2.924,0,0,1,2,.639,2.306,2.306,0,0,1,.752,1.76v3.4a4.162,4.162,0,0,0,.26,1.62V33Zm-2.1-.964a2.223,2.223,0,0,0,1.128-.308,1.861,1.861,0,0,0,.772-.8V29.411h-.991q-2.324,0-2.324,1.36a1.151,1.151,0,0,0,.4.93A1.524,1.524,0,0,0,11.279,32.036ZM20,26.738a3.79,3.79,0,0,0-.622-.048,1.667,1.667,0,0,0-1.688,1.06V33H16.427V25.6h1.23l.021.854a1.969,1.969,0,0,1,1.764-.991,1.292,1.292,0,0,1,.561.1Zm3.22-2.926V25.6H24.6v.978H23.222v4.587a1.024,1.024,0,0,0,.185.667.777.777,0,0,0,.629.222,3.062,3.062,0,0,0,.6-.082V33a3.666,3.666,0,0,1-.971.137,1.575,1.575,0,0,1-1.278-.513,2.2,2.2,0,0,1-.431-1.456V26.581H20.61V25.6h1.347V23.813ZM27.453,33H26.188V25.6h1.265Zm-1.367-9.358a.755.755,0,0,1,.188-.52.706.706,0,0,1,.557-.212.717.717,0,0,1,.561.212.747.747,0,0,1,.191.52.722.722,0,0,1-.191.513.73.73,0,0,1-.561.205.718.718,0,0,1-.557-.205A.73.73,0,0,1,26.086,23.642Zm3.083,5.6a4.333,4.333,0,0,1,.807-2.738,2.745,2.745,0,0,1,4.17-.147V22.5H35.41V33H34.248l-.062-.793a2.575,2.575,0,0,1-2.112.93,2.526,2.526,0,0,1-2.1-1.053,4.382,4.382,0,0,1-.81-2.748Zm1.265.144a3.281,3.281,0,0,0,.52,1.969,1.68,1.68,0,0,0,1.436.711,1.845,1.845,0,0,0,1.757-1.08v-3.4A1.859,1.859,0,0,0,32.4,26.54a1.687,1.687,0,0,0-1.449.718A3.612,3.612,0,0,0,30.434,29.384ZM41.938,33a2.657,2.657,0,0,1-.178-.779,2.822,2.822,0,0,1-2.105.916,2.611,2.611,0,0,1-1.794-.619,2,2,0,0,1-.7-1.569,2.091,2.091,0,0,1,.878-1.794,4.142,4.142,0,0,1,2.471-.639h1.23v-.581a1.42,1.42,0,0,0-.4-1.056,1.593,1.593,0,0,0-1.169-.393,1.844,1.844,0,0,0-1.135.342,1.007,1.007,0,0,0-.458.827H37.311a1.745,1.745,0,0,1,.393-1.07,2.683,2.683,0,0,1,1.066-.817,3.588,3.588,0,0,1,1.48-.3,2.924,2.924,0,0,1,2,.639A2.306,2.306,0,0,1,43,27.866v3.4a4.162,4.162,0,0,0,.26,1.62V33Zm-2.1-.964a2.223,2.223,0,0,0,1.128-.308,1.861,1.861,0,0,0,.772-.8V29.411h-.991q-2.324,0-2.324,1.36a1.151,1.151,0,0,0,.4.93A1.524,1.524,0,0,0,39.84,32.036Zm11.683,1.1a3.232,3.232,0,0,1-2.447-.988,3.666,3.666,0,0,1-.943-2.642v-.232a4.438,4.438,0,0,1,.42-1.965,3.279,3.279,0,0,1,1.176-1.354,2.956,2.956,0,0,1,1.637-.489,2.77,2.77,0,0,1,2.242.95,4.114,4.114,0,0,1,.8,2.721v.526H49.4a2.629,2.629,0,0,0,.639,1.767,2.009,2.009,0,0,0,1.555.673,2.2,2.2,0,0,0,1.135-.273,2.851,2.851,0,0,0,.813-.725l.772.6A3.106,3.106,0,0,1,51.522,33.137Zm-.157-6.631a1.687,1.687,0,0,0-1.285.557,2.708,2.708,0,0,0-.643,1.562h3.705v-.1a2.409,2.409,0,0,0-.52-1.494A1.588,1.588,0,0,0,51.365,26.506Zm5.7-.9.041.93a2.7,2.7,0,0,1,2.215-1.066q2.345,0,2.365,2.646V33H60.423V28.105a1.7,1.7,0,0,0-.366-1.183,1.466,1.466,0,0,0-1.118-.383,1.825,1.825,0,0,0-1.08.328,2.228,2.228,0,0,0-.725.861V33H55.87V25.6ZM70.13,33.137a3.232,3.232,0,0,1-2.447-.988,3.666,3.666,0,0,1-.943-2.642v-.232a4.438,4.438,0,0,1,.42-1.965,3.28,3.28,0,0,1,1.176-1.354,2.956,2.956,0,0,1,1.637-.489,2.77,2.77,0,0,1,2.242.95,4.114,4.114,0,0,1,.8,2.721v.526H68a2.629,2.629,0,0,0,.639,1.767A2.009,2.009,0,0,0,70.2,32.1a2.2,2.2,0,0,0,1.135-.273,2.851,2.851,0,0,0,.813-.725l.772.6A3.106,3.106,0,0,1,70.13,33.137Zm-.157-6.631a1.687,1.687,0,0,0-1.285.557,2.708,2.708,0,0,0-.643,1.562H71.75v-.1a2.409,2.409,0,0,0-.52-1.494A1.588,1.588,0,0,0,69.973,26.506ZM75.852,33H74.587V22.5h1.265ZM3.924,52.1a1.822,1.822,0,0,0,1.183-.41,1.443,1.443,0,0,0,.561-1.025h1.2a2.293,2.293,0,0,1-.437,1.21,2.881,2.881,0,0,1-1.077.916,3.107,3.107,0,0,1-1.425.342,3.047,3.047,0,0,1-2.4-1.008A4.016,4.016,0,0,1,.629,49.37v-.212a4.453,4.453,0,0,1,.4-1.921,3.02,3.02,0,0,1,1.138-1.306,3.233,3.233,0,0,1,1.753-.465,2.966,2.966,0,0,1,2.068.745,2.663,2.663,0,0,1,.878,1.935h-1.2a1.743,1.743,0,0,0-.543-1.179,1.691,1.691,0,0,0-1.207-.461,1.77,1.77,0,0,0-1.494.694,3.259,3.259,0,0,0-.53,2.006v.239a3.194,3.194,0,0,0,.526,1.969A1.779,1.779,0,0,0,3.924,52.1Zm8.928.9a2.657,2.657,0,0,1-.178-.779,2.822,2.822,0,0,1-2.105.916,2.611,2.611,0,0,1-1.794-.619,2,2,0,0,1-.7-1.569,2.091,2.091,0,0,1,.878-1.794,4.142,4.142,0,0,1,2.471-.639h1.23v-.581a1.42,1.42,0,0,0-.4-1.056,1.593,1.593,0,0,0-1.169-.393,1.844,1.844,0,0,0-1.135.342,1.007,1.007,0,0,0-.458.827H8.224a1.745,1.745,0,0,1,.393-1.07,2.683,2.683,0,0,1,1.066-.817,3.588,3.588,0,0,1,1.48-.3,2.924,2.924,0,0,1,2,.639,2.306,2.306,0,0,1,.752,1.76v3.4a4.162,4.162,0,0,0,.26,1.62V53Zm-2.1-.964a2.223,2.223,0,0,0,1.128-.308,1.861,1.861,0,0,0,.772-.8V49.411h-.991q-2.324,0-2.324,1.36a1.151,1.151,0,0,0,.4.93A1.524,1.524,0,0,0,10.753,52.036Zm11.4-2.652a4.429,4.429,0,0,1-.772,2.721,2.476,2.476,0,0,1-2.092,1.032,2.713,2.713,0,0,1-2.119-.854v3.562H15.9V45.6h1.155l.062.82a2.605,2.605,0,0,1,2.146-.957,2.522,2.522,0,0,1,2.109,1,4.477,4.477,0,0,1,.776,2.8Zm-1.265-.144a3.268,3.268,0,0,0-.533-1.976,1.718,1.718,0,0,0-1.463-.725,1.859,1.859,0,0,0-1.723,1.019v3.534A1.863,1.863,0,0,0,18.9,52.1a1.71,1.71,0,0,0,1.446-.721A3.567,3.567,0,0,0,20.884,49.24ZM25.129,53H23.857V45.6h1.271Zm.014-10.493h1.531l-1.832,2.01H23.823Zm3.787,1.306V45.6h1.381v.978H28.93v4.587a1.025,1.025,0,0,0,.185.667.777.777,0,0,0,.629.222,3.062,3.062,0,0,0,.6-.082V53a3.666,3.666,0,0,1-.971.137,1.575,1.575,0,0,1-1.278-.513,2.2,2.2,0,0,1-.431-1.456V46.581H26.318V45.6h1.347V43.813Zm7.424,8.456a2.686,2.686,0,0,1-2.167.868,2.3,2.3,0,0,1-1.8-.687,2.974,2.974,0,0,1-.625-2.034V45.6h1.265v4.778q0,1.682,1.367,1.682a1.893,1.893,0,0,0,1.928-1.08V45.6h1.265V53h-1.2ZM40.879,53H39.614V42.5h1.265Zm1.688-3.767a4.369,4.369,0,0,1,.427-1.955,3.187,3.187,0,0,1,1.189-1.34,3.238,3.238,0,0,1,1.74-.472,3.119,3.119,0,0,1,2.444,1.046,4.024,4.024,0,0,1,.933,2.782v.089a4.407,4.407,0,0,1-.414,1.938A3.14,3.14,0,0,1,47.7,52.658a3.275,3.275,0,0,1-1.767.479A3.111,3.111,0,0,1,43.5,52.091a4,4,0,0,1-.933-2.769Zm1.271.15a3.164,3.164,0,0,0,.571,1.976,1.934,1.934,0,0,0,3.059-.01,3.46,3.46,0,0,0,.567-2.116,3.159,3.159,0,0,0-.578-1.972,1.836,1.836,0,0,0-1.535-.755,1.816,1.816,0,0,0-1.511.745A3.435,3.435,0,0,0,43.839,49.384Z" transform="translate(1168.56 -5224.315)" fill="#12263f"/></g></g></svg>