<svg height="67.577" viewBox="0 0 50.158 67.577" width="50.158" xmlns="http://www.w3.org/2000/svg"><g fill-rule="evenodd"><path d="m111.967 42.415h39.289a1.931 1.931 0 0 1 .252-1.516c2.613-3.9.785-5.7-1.823-5.971-2.075-.217-4.44-.077-4.928-.839-1.743-2.718-3.2-3.255-4.844-3.425-11.043-1.143-5.093-5.272-8.494-7.023-4.135-2.129 2.1-9.432 6.594-9.622 2.945-.125-.569-8.086-7.823-1.416-1.229 1.13-5.156 2.221-7.3 2.851-2.476.727-1.179 1.685-3.232 4.761-1.979 2.967-1.719.306-2.649 2.14-1.169 2.3-2.246 2.582-3.11 2.648-2.423.188-4.665 4.46-3.009 6.811 1.815 2.578.586 9.123.833 9.727a4.352 4.352 0 0 1 .244.874z" fill="#ffc144" transform="translate(-104.463 -8.63)"/><path d="m121.446 255.943h-39.288c.478 2.633-1 6.315-3.2 6.446-4.188.249-1.26 2.093-2.64 2.93-1.3.789 1.457 3.246 1.93 3.227 2.955-.117 5.848 5.735 7.53 2.845.21-.361 1.87.08 3.665.788h23.179c.653-1.5 2.216-.842 2.8-1.97 1.016-1.96-1.27-3.648.167-4.508 2.847-1.706 4.509 2.928 7.188 1.34 2.3-1.366-1.817-5.539-.531-6.975.927-1.033-.504-2.619-.8-4.123z" fill="#60a4ff" transform="translate(-74.653 -222.158)"/><path d="m201.2 378.943h-23.175c2.259.89 4.735 2.2 4.817 2.876.315 2.579 1.954 1.058 1.92 2.2-.081 2.71 1.946 1.725 2.053 2.5.506 3.672 5.2 1.828 6.346 1.694 5.424-.634 2.913 7.489 6.168 6.937s1.515-4.5 2-7.8c.337-2.282 1.362-2.5.661-5.062-.449-1.639-1.3-2.1-.808-3.3z" fill="#ff5a58" transform="translate(-163.235 -328.922)"/></g><path d="m113.62 203.584a1.32 1.32 0 0 0 1.32-1.32 1.32 1.32 0 1 0 -1.32 1.321z" transform="translate(-106.186 -174.419)"/><path d="m116.1 43.047a10.475 10.475 0 0 0 -.85-2.579 7.834 7.834 0 0 1 -.613-1.772c1.066-1.3.369-2.859-.1-3.9-.379-.849-.632-1.475-.42-1.791 1.48-2.206 1.865-4.1 1.147-5.637a4.58 4.58 0 0 0 -3.929-2.382c-.592-.062-1.189-.1-1.766-.128a12.13 12.13 0 0 1 -2.279-.252c-1.916-2.925-3.679-3.672-5.728-3.884-3.555-.368-4.966-1.035-5.523-1.53-.464-.412-.5-.84-.522-1.691a3.681 3.681 0 0 0 -1.981-3.663c-.485-.25-.77-.59-.583-1.439.5-2.256 4.008-5.58 6.629-5.69a2.3 2.3 0 0 0 2.223-1.766 4.143 4.143 0 0 0 -2.123-4.251c-1.16-.692-4.346-1.849-8.869 2.308-.92.846-4.573 1.911-6.328 2.424l-.454.133a3.476 3.476 0 0 0 -2.792 2.782 8.441 8.441 0 0 1 -1.167 2.513 6.57 6.57 0 0 1 -.658.864c-1.26-.188-1.841.96-2.071 1.412-.935 1.844-1.6 1.9-2.034 1.929a4.761 4.761 0 0 0 -3.292 1.99 6.753 6.753 0 0 0 -1.431 5.079 1.32 1.32 0 1 0 2.6-.444 4.169 4.169 0 0 1 .911-3.012 2.293 2.293 0 0 1 1.414-.981c1.188-.092 2.729-.55 4.14-3.279 1.013-.031 1.8-.865 2.615-2.093a11.038 11.038 0 0 0 1.5-3.21c.241-.791.241-.791 1.01-1.017l.449-.131c3.163-.923 6.107-1.848 7.376-3.015 2.244-2.063 4.321-2.793 5.7-2a1.949 1.949 0 0 1 .929 1.145 10.07 10.07 0 0 0 -5.45 2.634 10.237 10.237 0 0 0 -3.4 5.111 3.691 3.691 0 0 0 1.953 4.354c.464.239.52.382.55 1.394a4.508 4.508 0 0 0 1.408 3.587c1.267 1.125 3.492 1.818 7 2.182 1.206.125 2.329.423 3.869 2.824.72 1.123 2.284 1.211 4.263 1.321.546.03 1.11.062 1.639.117a2.2 2.2 0 0 1 1.812.876c.286.611-.06 1.722-.949 3.047a3.055 3.055 0 0 0 -.424.931h-38.017a1.32 1.32 0 0 0 -1.3 1.556 5.859 5.859 0 0 1 -1.008 4.227 1.583 1.583 0 0 1 -.972.665c-1.678.1-2.631.448-3.184 1.166a2.458 2.458 0 0 0 -.336 2.105l.008.038a2.037 2.037 0 0 0 -.607 2.232c.371 1.232 2.258 3.309 3.54 3.253h.036c.778 0 1.9.961 2.809 1.735 1.228 1.049 2.392 2.039 3.737 1.9h.045a1.312 1.312 0 0 0 .685-.194 2.639 2.639 0 0 0 .9-.681 18.266 18.266 0 0 1 3.267 1.121 14.23 14.23 0 0 1 3.212 1.752 2.646 2.646 0 0 0 1.893 2.437 2.778 2.778 0 0 0 2.174 2.65 3.59 3.59 0 0 0 1.425 2.062c1.724 1.179 4.153.6 5.6.255.252-.06.537-.128.645-.14 1.622-.19 2.037.532 2.617 3.114a8.893 8.893 0 0 0 .8 2.468 2.562 2.562 0 0 0 2.288 1.391 3.165 3.165 0 0 0 .53-.046 3.429 3.429 0 0 0 2.928-2.55 10.692 10.692 0 0 0 .147-3.461 14.576 14.576 0 0 1 .012-2.9 6.883 6.883 0 0 1 .447-1.592 5.489 5.489 0 0 0 .181-4.012 8.806 8.806 0 0 0 -.658-1.654c-.289-.585-.284-.6-.2-.8.094-.23.146-.274.725-.444a2.991 2.991 0 0 0 2.046-1.465 4.4 4.4 0 0 0 .008-3.686c-.043-.125-.095-.276-.132-.4.536-.23.993-.013 2.092.729 1.136.767 2.852 1.926 4.888.718a2.785 2.785 0 0 0 1.323-2.972zm-12.739 13.046a9.45 9.45 0 0 0 -.591 2.144 16.764 16.764 0 0 0 -.036 3.442c.167 2.767-.031 3.105-.882 3.249l-.049.007a7.056 7.056 0 0 1 -.551-1.8 9.542 9.542 0 0 0 -1.269-3.451 4.078 4.078 0 0 0 -3.51-1.749 6.192 6.192 0 0 0 -.721.043 8.831 8.831 0 0 0 -.95.195c-.89.212-2.743.653-3.5.134a1.147 1.147 0 0 1 -.433-.891 1.88 1.88 0 0 0 -1.652-1.508 2.3 2.3 0 0 1 -.312-.083 1.674 1.674 0 0 1 -.077-.692 1.741 1.741 0 0 0 -1.745-1.876l-.073-.008a2.263 2.263 0 0 1 -.111-.514 2.133 2.133 0 0 0 -.863-1.4h16.489a5.072 5.072 0 0 0 .461 1.193 6.245 6.245 0 0 1 .479 1.182 2.962 2.962 0 0 1 -.104 2.383zm10.128-12.393a.242.242 0 0 1 -.058.043c-.5.3-.831.2-2.064-.635-1.179-.8-2.961-2-5.129-.7-1.64.982-1.077 2.626-.807 3.417.241.7.377 1.159.151 1.608a2.878 2.878 0 0 1 -.451.156 3.626 3.626 0 0 0 -1.909 1.11h-22.2a17.667 17.667 0 0 0 -2.582-.805c-.508-.1-1.858-.382-2.473.674a1.287 1.287 0 0 1 -.08.123 9.036 9.036 0 0 1 -1.7-1.258c-1.258-1.074-2.673-2.284-4.345-2.364a5.237 5.237 0 0 1 -1.085-1.107 2.367 2.367 0 0 0 .523-2.273 6 6 0 0 1 1.083-.142 3.991 3.991 0 0 0 2.891-1.669 8.49 8.49 0 0 0 1.635-4.774h36.911c.107.276.223.534.326.767a5.148 5.148 0 0 1 .432 1.187c-1.1 1.265-.376 2.953.26 4.444a6.085 6.085 0 0 1 .667 2.2z" transform="translate(-65.98 -.001)"/></svg>