<svg xmlns="http://www.w3.org/2000/svg" width="80" height="80.695" viewBox="0 0 80 80.695"><g transform="translate(0 0.001)"><path d="M32.374,65.263V83.042a.924.924,0,0,0,.924.924H68.03v1.5H65.193a.924.924,0,0,0-.924.924V90.32a.924.924,0,0,0,.924.924h20.18A6.384,6.384,0,1,0,92.614,84V58.593L97,52.935a.921.921,0,0,0-.166-1.292l-3.105-2.406a.921.921,0,0,0-1.292.166l-5.4,6.972a.918.918,0,0,0-.192.563h0v9.241H85.261V29.148a.923.923,0,0,0-.271-.653L72.783,16.287a.921.921,0,0,0-.661-.279H33.3a.924.924,0,0,0-.924.924V35.6A14.789,14.789,0,0,0,28.988,57.87a2.12,2.12,0,0,0-.3,1.828l-2.724,4.019a2.149,2.149,0,0,0-2.165.917L18.54,72.442h0l0,0,0,0a2.745,2.745,0,0,0,.75,3.806v0l0,0,0,0,2.729,1.831a2.752,2.752,0,0,0,3.815-.751l5.254-7.807h0v0l0,0a2.141,2.141,0,0,0,.005-2.378l1.277-1.883Z" transform="translate(-18.073 -16.008)" fill-rule="evenodd"/><path d="M142.246,27V38.293a.924.924,0,0,0,.924.924h11.292V75.324H140a.924.924,0,0,0-.924.924V91.262H105.271V72.189a2.1,2.1,0,0,0,1.15-.886,14.786,14.786,0,0,0,15.542-3.881l12.556-.009a.92.92,0,1,0,0-1.841l-11.089.008a14.8,14.8,0,0,0,1.878-3.916l9.212-.007a.92.92,0,0,0,0-1.841l-8.772.007a14.812,14.812,0,0,0-.785-7.84l9.556-.007a.92.92,0,1,0,0-1.841l-10.417.008a14.678,14.678,0,0,0-3.153-3.912l13.569-.01a.92.92,0,1,0,0-1.841l-16.18.012a14.781,14.781,0,0,0-13.068-.616V27h36.975Zm-4.222,17.3a.92.92,0,0,0-1.148,1.436l1.148.967v5.648a.924.924,0,0,0,.924.924H147.3a.924.924,0,0,0,.924-.924V44a.924.924,0,0,0-.924-.924h-8.352a.924.924,0,0,0-.924.924v.3Zm0,15.437a.92.92,0,0,0-1.148,1.436l1.148.967v5.648a.924.924,0,0,0,.924.924H147.3a.924.924,0,0,0,.924-.924V59.439a.924.924,0,0,0-.924-.924h-8.352a.924.924,0,0,0-.924.924v.3Zm-3.505,15.514-22.085.017a.92.92,0,0,0,0,1.841l22.085-.017a.92.92,0,0,0,0-1.841Zm-21.671,7.612,21.671-.016a.92.92,0,0,0,0-1.841l-21.671.016a.92.92,0,0,0,0,1.841Z" transform="translate(-89.122 -25.153)" fill="#e6e6e6" fill-rule="evenodd"/><path d="M136.475,27V38.292a.924.924,0,0,0,.924.924h11.292V75.323H134.232a.924.924,0,0,0-.924.924V87.984a38.39,38.39,0,0,1-11.522-5.13l6.961-.005a.92.92,0,0,0,0-1.841l-9.518.007a38.8,38.8,0,0,1-4.285-3.911l13.8-.01a.92.92,0,0,0,0-1.841l-15.433.012a38.722,38.722,0,0,1-2.934-4.036,14.709,14.709,0,0,0,5.81-3.807l12.556-.009a.92.92,0,1,0,0-1.841l-11.089.008a14.8,14.8,0,0,0,1.878-3.916l9.212-.007a.92.92,0,0,0,0-1.841l-8.772.007a14.811,14.811,0,0,0-.785-7.84l9.556-.007a.92.92,0,1,0,0-1.841l-10.417.008a14.677,14.677,0,0,0-3.153-3.912l13.569-.01a.92.92,0,1,0,0-1.841l-16.18.012a14.69,14.69,0,0,0-7.3-1.85A38.435,38.435,0,0,1,112.494,27h23.981Zm-4.222,17.3a.92.92,0,0,0-1.148,1.436l1.148.967v5.648a.924.924,0,0,0,.924.924h8.352a.924.924,0,0,0,.924-.924V44a.924.924,0,0,0-.924-.924h-8.352a.924.924,0,0,0-.924.924v.3Zm0,15.437a.92.92,0,0,0-1.148,1.436l1.148.967V67.79a.924.924,0,0,0,.924.924h8.352a.924.924,0,0,0,.924-.924V59.438a.924.924,0,0,0-.924-.924h-8.352a.924.924,0,0,0-.924.924v.3Z" transform="translate(-83.351 -25.152)" fill="#fff" fill-rule="evenodd"/><path d="M122.1,43.833h-9.062V34.771Z" transform="translate(-58.069 -31.617)" fill="#b3b3b3" fill-rule="evenodd"/><path d="M84.9,340.44V325.422h5.447v5.214a.924.924,0,0,0,1.52.706l1.512-1.14,1.553,1.17a.926.926,0,0,0,1.478-.736h0v-5.214h5.447v17.441H84.9V340.44Z" transform="translate(-33.097 -273.403)" fill="#997854" fill-rule="evenodd"/><path d="M84.9,336.666V325.422h5.447v5.214a.924.924,0,0,0,1.52.706l1.512-1.14,1.553,1.17a.926.926,0,0,0,1.478-.736h0v-5.214h5.447v10.965a38.862,38.862,0,0,1-16.959.279Z" transform="translate(-33.097 -273.403)" fill="#b58e63" fill-rule="evenodd"/><path d="M292.129,156.472l-.169-.082-2.85-1.918c-.154-.115-.073-.3,0-.41l.4-.59a.921.921,0,0,0-.1-1.151,12.944,12.944,0,0,1-1.456-16.125.923.923,0,0,0,.077-.114,12.865,12.865,0,0,1,4.266-3.953.921.921,0,0,0,.089-.05,12.952,12.952,0,0,1,13.493.5.927.927,0,0,0,.114.076,12.935,12.935,0,0,1,3.5,17.849.944.944,0,0,0-.077.115,12.937,12.937,0,0,1-15.478,4.746.92.92,0,0,0-1.1.343h0l-.458.678a.28.28,0,0,1-.24.084Zm13.13-21.348a10.591,10.591,0,1,0,1.6,14.893A10.6,10.6,0,0,0,305.259,135.124Z" transform="translate(-276.655 -111.187)" fill="#e3a83b" fill-rule="evenodd"/><path d="M286.1,130.432a12.87,12.87,0,0,1,7.643,2.15.927.927,0,0,0,.114.077,12.935,12.935,0,0,1,3.5,17.849.944.944,0,0,0-.077.114,12.866,12.866,0,0,1-6.693,5.027q-.588-1.038-1.113-2.114a10.59,10.59,0,0,0-3.688-20.726Q285.908,131.608,286.1,130.432Z" transform="translate(-264.527 -111.187)" fill="#f0bc5e" fill-rule="evenodd"/><path d="M38.475,258.443a6.341,6.341,0,0,0-1.976.667V231.673l4.641-5.991,1.649,1.277-3.969,5.124a.92.92,0,0,0-.24.621v25.722l-.1.016Z" transform="translate(34.113 -190.432)" fill="#b3b3b3" fill-rule="evenodd"/><path d="M36.5,252.92V231.673l4.641-5.991,1.649,1.277-3.969,5.124a.92.92,0,0,0-.24.621v19.536Q37.552,252.609,36.5,252.92Z" transform="translate(34.113 -190.432)" fill="#ccc" fill-rule="evenodd"/><path d="M109.488,440.154a6.332,6.332,0,0,0-.683,2.08H89.549v-2.08Z" transform="translate(-41.505 -368.847)" fill="#b3b3b3" fill-rule="evenodd"/><path d="M33.6,431.047a4.535,4.535,0,1,1-4.179,2.77l.329-.633.421-.57.222-.239.039-.038.039-.038.04-.037.04-.037.081-.072.041-.035.084-.069.086-.067.176-.128.045-.031.045-.03.092-.059.944-.447a4.533,4.533,0,0,1,1.455-.238Zm0,2.07a2.466,2.466,0,1,0,2.466,2.466A2.468,2.468,0,0,0,33.6,433.117Z" transform="translate(40.017 -361.271)" fill="#999" fill-rule="evenodd"/><path d="M52.51,454.493a.618.618,0,0,1,.874.874A.618.618,0,0,1,52.51,454.493Z" transform="translate(20.669 -380.618)" fill="#ccc" fill-rule="evenodd"/><path d="M130.663,325.422v3.362l-.615-.464a.923.923,0,0,0-1.125-.01l-.629.474v-3.362h2.369Z" transform="translate(-69.194 -273.403)" fill="#f0bc5e" fill-rule="evenodd"/><path d="M159.142,136.888a.919.919,0,0,0-1.148-1.437l-1.827,1.462-2.8-2.356v-.932h6.5v6.5h-6.5v-3.168l2.19,1.845a.92.92,0,0,0,1.166.014l2.417-1.933Z" transform="translate(-102.621 -113.852)" fill="#87b187" fill-rule="evenodd"/><path d="M159.142,228.706a.919.919,0,0,0-1.148-1.437l-1.827,1.462-2.8-2.356v-.932h6.5v6.5h-6.5v-3.168l2.19,1.845a.92.92,0,0,0,1.166.014l2.417-1.933Z" transform="translate(-102.621 -190.234)" fill="#87b187" fill-rule="evenodd"/><path d="M431.137,310.618l3.731,2.5v0h0l0,0a.311.311,0,0,1,.078.417h0v0l0,0-5.253,7.806a.92.92,0,0,1-1.26.245l-2.731-1.832v0l0,0,0,0a.913.913,0,0,1-.242-1.251h0l0,0,0,0,5.253-7.806A.316.316,0,0,1,431.137,310.618Z" transform="translate(-423.462 -261.048)" fill="#e3a83b" fill-rule="evenodd"/><path d="M413.053,289.221l-2.073-1.391,2.353-3.471c.69.463,1.392.918,2.077,1.386Z" transform="translate(-401.465 -239.244)" fill="#e3a83b" fill-rule="evenodd"/><path d="M319.059,155.458a8.748,8.748,0,1,1-7.759,9.635,8.747,8.747,0,0,1,7.759-9.635Zm5.4,9.672a.919.919,0,0,0-1.148-1.437l-1.881,1.5-4.724-3.979a.92.92,0,1,0-1.184,1.408l5.3,4.465a.92.92,0,0,0,1.166.014l2.47-1.976Z" transform="translate(-298.038 -131.97)" fill="#cbe4f1" fill-rule="evenodd"/><path d="M311.3,155.452a8.747,8.747,0,0,1,3.051,17.169,38.263,38.263,0,0,1-2.012-6.05l.624.525a.92.92,0,0,0,1.166.014l2.47-1.976a.919.919,0,0,0-1.148-1.437l-1.881,1.5-1.817-1.53a38.819,38.819,0,0,1-.5-6.231q0-1,.05-1.989Z" transform="translate(-290.178 -131.973)" fill="#d7ebf4" fill-rule="evenodd"/></g></svg>