<svg xmlns="http://www.w3.org/2000/svg" width="73.046" height="89" viewBox="0 0 73.046 89"><g transform="translate(-153)"><path d="M212.594,69.865h-11.21a1.512,1.512,0,0,1,0-3.024h11.21A1.512,1.512,0,0,1,212.594,69.865Zm4.119,16.111a6.342,6.342,0,0,0,6.309-6.361V3.024H164.835v68.51h4.8V54.38a1.513,1.513,0,0,1,1.512-1.512h19.448A1.513,1.513,0,0,1,192.1,54.38V71.534h3.65V54.38a1.513,1.513,0,0,1,1.512-1.512h19.448a1.513,1.513,0,0,1,1.512,1.512V73.046l-.052.365-.1.261-.052.1-.209.313-1.095.469a5.709,5.709,0,0,0,0,11.418Zm-54.9-14.442V1.512A1.513,1.513,0,0,1,163.323,0h61.21a1.513,1.513,0,0,1,1.512,1.512v78.1A9.368,9.368,0,0,1,216.713,89H161.707a8.733,8.733,0,1,1,.1-17.466Zm-.1,3.024a5.709,5.709,0,0,0,0,11.418h48.384a8.774,8.774,0,0,1,0-11.418ZM215.149,17.31H172.708A1.513,1.513,0,0,1,171.2,15.8V8.186a1.513,1.513,0,0,1,1.512-1.512h42.441a1.513,1.513,0,0,1,1.512,1.512V15.8A1.513,1.513,0,0,1,215.149,17.31ZM174.22,14.286h39.417V9.7H174.22Zm34.828,9.489h-30.24a1.512,1.512,0,0,1,0-3.024h30.24A1.512,1.512,0,0,1,209.049,23.775Zm6.1,6.413H172.708a1.512,1.512,0,0,1,0-3.024h42.441A1.512,1.512,0,0,1,215.149,30.188Zm0,6.413H172.708a1.512,1.512,0,0,1,0-3.024h42.441A1.512,1.512,0,0,1,215.149,36.6Zm0,6.413H172.708a1.512,1.512,0,0,1,0-3.024h42.441A1.512,1.512,0,0,1,215.149,43.014Zm0,6.413H172.708a1.486,1.486,0,1,1,0-2.972h42.441A1.486,1.486,0,1,1,215.149,49.427ZM172.656,71.534H189.08V55.892h-3.858V60.48a1.513,1.513,0,0,1-1.512,1.512h-5.683a1.513,1.513,0,0,1-1.512-1.512V55.892h-3.858ZM182.2,55.892h-2.659v3.076H182.2Zm4.275,13.973h-11.21a1.512,1.512,0,0,1,0-3.024h11.21A1.512,1.512,0,0,1,186.473,69.865Zm12.3,1.668H215.2V55.892h-3.858V60.48a1.513,1.513,0,0,1-1.512,1.512h-5.683a1.513,1.513,0,0,1-1.512-1.512V55.892h-3.858Zm9.541-15.641H205.66v3.076h2.659Z" fill-rule="evenodd"/><path d="M387.873,104.4a1.486,1.486,0,1,1,0-2.972h42.44a1.486,1.486,0,1,1,0,2.972Zm-1.564,3.441h19.448a1.513,1.513,0,0,1,1.512,1.512V126.51h3.65V109.356a1.513,1.513,0,0,1,1.512-1.512h19.448a1.513,1.513,0,0,1,1.512,1.512v18.666l-.052.365-.1.261-.052.1-.209.313-1.095.469a5.709,5.709,0,0,0,0,11.418,6.342,6.342,0,0,0,6.309-6.361V58H380v68.51h4.8V109.356A1.513,1.513,0,0,1,386.309,107.844Zm1.564-9.854a1.512,1.512,0,0,1,0-3.024h42.44a1.512,1.512,0,0,1,0,3.024Zm42.44-6.413h-42.44a1.512,1.512,0,0,1,0-3.024h42.44A1.512,1.512,0,0,1,430.313,91.577Zm0-6.413h-42.44a1.512,1.512,0,0,1,0-3.024h42.44A1.512,1.512,0,0,1,430.313,85.164Zm-6.1-6.413h-30.24a1.512,1.512,0,0,1,0-3.024h30.24A1.512,1.512,0,0,1,424.213,78.751Zm6.1-6.465h-42.44a1.513,1.513,0,0,1-1.512-1.512V63.162a1.513,1.513,0,0,1,1.512-1.512h42.44a1.513,1.513,0,0,1,1.512,1.512v7.612A1.513,1.513,0,0,1,430.313,72.286Z" transform="translate(-215.165 -54.976)" fill="#ecf6ff" fill-rule="evenodd"/><path d="M664.659,1072H662v3.076h2.659Z" transform="translate(-482.462 -1016.108)" fill="#ff3131" fill-rule="evenodd"/><path d="M542.565,1076.588a1.513,1.513,0,0,1-1.512,1.512H535.37a1.513,1.513,0,0,1-1.512-1.512V1072H530v15.641h16.424V1072h-3.858Zm-9.958,6.361h11.21a1.512,1.512,0,0,1,0,3.024h-11.21A1.512,1.512,0,0,1,532.607,1082.949Z" transform="translate(-357.344 -1016.108)" fill="#ffa721" fill-rule="evenodd"/><path d="M1163,1072v3.076h2.659V1072Z" transform="translate(-957.34 -1016.108)" fill="#ff3131" fill-rule="evenodd"/><path d="M1042.053,1078.1h-5.683a1.513,1.513,0,0,1-1.512-1.512V1072H1031v15.641h16.424V1072h-3.858v4.588A1.513,1.513,0,0,1,1042.053,1078.1Zm-8.446,4.849h11.21a1.512,1.512,0,0,1,0,3.024h-11.21A1.512,1.512,0,0,1,1033.607,1082.949Z" transform="translate(-832.223 -1016.108)" fill="#ffa721" fill-rule="evenodd"/><path d="M560,190.588h39.417V186H560Z" transform="translate(-385.78 -176.302)" fill="#3adcca" fill-rule="evenodd"/><path d="M265.067,1430H216.683a5.709,5.709,0,0,0,0,11.418h48.384A8.774,8.774,0,0,1,265.067,1430Z" transform="translate(-54.976 -1355.442)" fill="#7c40e3" fill-rule="evenodd"/></g></svg>