<svg xmlns="http://www.w3.org/2000/svg" xmlns:xlink="http://www.w3.org/1999/xlink" width="1600" height="220" viewBox="0 0 1600 220"><defs><clipPath id="a"><path d="M0,0H1600V220H0Z" transform="translate(0 70)" fill="#fff" opacity="0.41"/></clipPath><clipPath id="b"><path d="M24.846,0H1701.308a24.846,24.846,0,0,1,24.846,24.846V638.154A24.846,24.846,0,0,1,1701.308,663H24.846A24.846,24.846,0,0,1,0,638.154V24.846A24.846,24.846,0,0,1,24.846,0Z" fill="#ecf6ff"/></clipPath></defs><g transform="translate(0 -70)" clip-path="url(#a)"><g transform="translate(-180.333 -208)"><path d="M24.846,0H1701.308a24.846,24.846,0,0,1,24.846,24.846V638.154A24.846,24.846,0,0,1,1701.308,663H24.846A24.846,24.846,0,0,1,0,638.154V24.846A24.846,24.846,0,0,1,24.846,0Z" transform="translate(144.333 70)" fill="#ecf6ff"/><g transform="translate(144.333 70)" clip-path="url(#b)"><path d="M308.336,0C478.626,0,616.673,138.047,616.673,308.336S478.626,616.673,308.336,616.673,0,478.626,0,308.336,138.047,0,308.336,0Z" transform="translate(1035.051 -40.53)" fill="#b0f6ee" opacity="0.33"/><circle cx="348" cy="348" r="348" transform="translate(833 332)" fill="#9fa3ff" opacity="0.332"/><ellipse cx="347.5" cy="348" rx="347.5" ry="348" transform="translate(-311 -293)" fill="#b0f6ee" opacity="0.332"/><path d="M-12656.5-11835.572c-2.458,0-4.9-.03-7.312-.091l.125-5c3.9.1,7.905.114,11.9.052l.079,5Q-12654.1-11835.572-12656.5-11835.572Zm12.849-.271-.209-5c3.9-.163,7.9-.4,11.891-.717l.391,4.985C-12635.621-11836.253-12639.684-11836.009-12643.647-11835.844Zm-28.232-.137c-4.056-.219-8.118-.53-12.075-.926l.5-4.976c3.882.389,7.867.693,11.848.908Zm48.321-1.312-.506-4.975c3.892-.4,7.877-.866,11.844-1.4l.667,4.955C-12615.574-11838.171-12619.613-11837.693-12623.559-11837.292Zm-68.419-.546c-4.029-.533-8.061-1.171-11.98-1.895l.906-4.917c3.838.708,7.785,1.332,11.73,1.855Zm88.385-2.029-.769-4.94c3.87-.6,7.829-1.278,11.768-2.009l.912,4.916C-12595.668-11841.161-12599.676-11840.477-12603.593-11839.867Zm-108.285-1.471c-3.968-.878-7.932-1.871-11.78-2.95l1.351-4.814c3.76,1.055,7.633,2.024,11.511,2.883Zm128.092-2.1-1-4.9c3.832-.784,7.751-1.64,11.646-2.542l1.129,4.871C-12575.949-11845.1-12579.911-11844.233-12583.786-11843.44Zm-147.621-3.182c-3.861-1.245-7.711-2.614-11.443-4.069l1.816-4.658c3.64,1.419,7.395,2.754,11.161,3.969Zm167.214-1.269-1.209-4.852c3.8-.948,7.693-1.966,11.557-3.025l1.321,4.822C-12556.425-11849.876-12560.351-11848.849-12564.193-11847.891Zm19.405-5.237-1.394-4.8c3.766-1.092,7.611-2.252,11.43-3.448l1.494,4.771C-12537.11-11855.4-12540.989-11854.23-12544.788-11853.128Zm-205.552-.661c-3.711-1.626-7.4-3.384-10.977-5.225l2.291-4.444c3.479,1.793,7.076,3.506,10.691,5.089Zm224.731-5.27-1.558-4.751c1.227-.4,2.473-.815,3.705-1.229,2.579-.863,5.154-1.743,7.654-2.615l1.646,4.721c-2.52.879-5.114,1.766-7.713,2.637C-12523.115-11859.881-12524.372-11859.464-12525.608-11859.059Zm-242.832-3.822c-3.511-2-7-4.146-10.359-6.367l2.755-4.172c3.273,2.161,6.666,4.246,10.083,6.2Zm261.849-2.748-1.71-4.7c3.8-1.385,7.564-2.8,11.175-4.206l1.814,4.658C-12498.957-11868.455-12502.752-11867.026-12506.592-11865.629Zm18.747-7.226-1.893-4.628c3.757-1.536,7.452-3.106,10.983-4.668l2.022,4.573C-12480.306-11876-12484.045-11874.408-12487.845-11872.854Zm-297.623-1.007c-3.266-2.366-6.5-4.874-9.609-7.452l3.191-3.85c3.027,2.51,6.174,4.949,9.353,7.253Zm316.06-7.047-2.119-4.529c3.681-1.723,7.278-3.485,10.692-5.239l2.285,4.447C-12462.019-11884.447-12465.672-11882.657-12469.408-11880.908Zm-331.8-5.712c-2.983-2.7-5.928-5.536-8.751-8.436l3.583-3.488c2.749,2.824,5.616,5.588,8.521,8.216Zm349.785-3.4-2.41-4.381c3.565-1.962,7.018-3.972,10.262-5.974l2.626,4.256C-12444.257-11894.072-12447.782-11892.021-12451.42-11890.019Zm17.282-10.481-2.791-4.148c3.377-2.271,6.6-4.6,9.58-6.927l3.075,3.942C-12427.346-11905.236-12430.664-11902.836-12434.138-11900.5Zm-381.351-.482c-2.678-2.992-5.309-6.12-7.818-9.3l3.924-3.1c2.446,3.1,5.01,6.146,7.62,9.062Zm397.491-11.831-3.293-3.763a115.294,115.294,0,0,0,8.438-8.153l3.66,3.406A120.35,120.35,0,0,1-12418-11912.813Zm-410.205-3.926c-2.361-3.249-4.665-6.624-6.847-10.032l4.211-2.7c2.129,3.326,4.377,6.619,6.681,9.789Zm424.354-10.807-3.927-3.095a80.926,80.926,0,0,0,6.542-9.615l4.331,2.5A85.776,85.776,0,0,1-12403.849-11927.546Zm-435.432-6.127c-2.038-3.474-4-7.055-5.842-10.645l4.45-2.279c1.795,3.506,3.714,7,5.7,10.393Zm446.119-11.462-4.576-2.014a68.737,68.737,0,0,0,3.746-10.939l4.851,1.216A73.735,73.735,0,0,1-12393.161-11945.135Zm-455.51-6.455c-1.717-3.7-3.329-7.455-4.791-11.17l4.652-1.832c1.426,3.623,3,7.289,4.674,10.9Zm461.1-13.391-4.952-.7a87.549,87.549,0,0,0,.814-11.634l5,.037A92.656,92.656,0,0,1-12387.567-11964.98Zm-468.7-5.387a119.121,119.121,0,0,1-3.5-11.758l4.881-1.085c.009.042.97,4.3,3.35,11.216Zm464.367-14.783c-.217-4-.576-7.89-.956-11.857l4.977-.478c.386,4.022.751,7.972.972,12.064Zm-1.69-19.86a104.81,104.81,0,0,1-.417-12.275l5,.175a100.389,100.389,0,0,0,.4,11.7Zm5.421-19.627-4.9-1.006a32.922,32.922,0,0,1,4.876-11.925l4.155,2.781A28.01,28.01,0,0,0-12388.173-12024.638Zm8.99-15.657-3.316-3.741a48.631,48.631,0,0,1,10.528-6.943l2.236,4.472A43.734,43.734,0,0,0-12379.183-12040.295Zm16.543-9.265-1.741-4.687a116.221,116.221,0,0,1,11.724-3.605l1.234,4.845A111.6,111.6,0,0,0-12362.64-12049.56Zm18.9-5.2-1-4.9c3.713-.756,7.731-1.457,11.943-2.085l.736,4.945C-12336.187-12056.181-12340.117-12055.5-12343.744-12054.757Zm19.543-3.1-.6-4.963c3.8-.463,7.839-.887,12.012-1.262l.447,4.98C-12316.467-12058.729-12320.455-12058.312-12324.2-12057.855Zm19.786-1.888-.363-4.986c3.846-.28,7.9-.53,12.042-.745l.259,4.993C-12296.588-12060.269-12300.6-12060.021-12304.415-12059.743Zm19.885-1.1-.2-5c3.868-.155,7.918-.286,12.035-.391l.126,5C-12276.662-12061.13-12280.687-12061-12284.53-12060.846Zm19.941-.554-.084-5c3.884-.064,7.93-.108,12.026-.131l.027,5C-12256.7-12061.508-12260.725-12061.464-12264.589-12061.4Zm31.976-.089c-.687,0-1.385-.006-2.074-.012-3.368-.028-6.719-.044-9.957-.048l0-5c3.251,0,6.613.02,9.993.048.682.006,1.371.01,2.05.012Zm8.053-.054-.085-5c4.01-.067,8.018-.2,11.91-.394l.248,4.994C-12216.435-12061.746-12220.5-12061.611-12224.561-12061.542Zm20.115-.893-.364-4.987c4-.292,7.987-.659,11.854-1.09l.553,4.97C-12196.331-12063.1-12200.383-12062.732-12204.445-12062.435Zm20.035-2.106-.687-4.952c3.973-.552,7.924-1.188,11.743-1.892l.906,4.917C-12176.341-12065.751-12180.365-12065.1-12184.41-12064.541Zm19.89-3.518-1.062-4.886c3.91-.85,7.787-1.8,11.521-2.814l1.314,4.824C-12156.565-12069.895-12160.526-12068.927-12164.521-12068.059Zm19.549-5.15-1.494-4.771c3.812-1.194,7.573-2.5,11.181-3.876l1.784,4.671C-12137.2-12075.771-12141.062-12074.434-12144.972-12073.209Zm18.989-7.039-1.989-4.587c3.658-1.587,7.247-3.3,10.668-5.084l2.315,4.432C-12118.516-12083.645-12122.215-12081.882-12125.982-12080.248Zm18.1-9.187-2.542-4.306c3.418-2.019,6.745-4.174,9.89-6.407l2.9,4.077C-12100.9-12093.757-12104.347-12091.524-12107.885-12089.435Zm16.743-11.549-3.133-3.9c3.076-2.475,6.039-5.1,8.8-7.792l3.49,3.58C-12084.858-12106.285-12087.941-12103.557-12091.142-12100.983Zm14.817-14-3.721-3.34a114.024,114.024,0,0,0,7.379-9.125l4.046,2.937A118.782,118.782,0,0,1-12076.324-12114.982Zm12.269-16.308-4.243-2.645a109.952,109.952,0,0,0,5.66-10.271l4.5,2.176A115.268,115.268,0,0,1-12064.056-12131.29Zm9.212-18.224-4.645-1.851a112.24,112.24,0,0,0,3.763-11.112l4.813,1.355A117.591,117.591,0,0,1-12054.844-12149.514Zm5.874-19.542-4.894-1.024c.793-3.791,1.409-7.7,1.831-11.6l4.972.536C-12047.5-12177.076-12048.143-12173.008-12048.97-12169.056Zm2.526-20.226-5-.222c.172-3.871.165-7.83-.019-11.769l4.994-.233C-12046.271-12197.416-12046.265-12193.3-12046.443-12189.281Zm-5.61-19.821c-.406-3.861-.987-7.784-1.728-11.66l4.911-.937c.767,4.013,1.368,8.074,1.789,12.074Zm-3.41-19.343c-.935-3.779-2.038-7.594-3.28-11.338l4.746-1.574c1.282,3.866,2.423,7.808,3.388,11.713Zm-5.946-18.746c-1.415-3.639-2.991-7.287-4.685-10.844l4.514-2.15c1.747,3.667,3.372,7.43,4.831,11.184Zm-8.243-17.873c-1.853-3.449-3.858-6.884-5.961-10.207l4.226-2.674c2.166,3.424,4.231,6.962,6.141,10.516Zm-10.331-16.766c-2.253-3.213-4.649-6.387-7.123-9.434l3.881-3.151c2.548,3.138,5.017,6.406,7.336,9.715Zm-12.234-15.433c-2.618-2.931-5.371-5.8-8.184-8.53l3.483-3.587c2.9,2.812,5.731,5.768,8.429,8.786Zm-308.029-9.092-.067-5c3.856-.053,7.838-.229,11.835-.522l.366,4.986C-12392.21-12306.588-12396.292-12306.408-12400.248-12306.354Zm-8.108-.064c-4.113-.124-8.2-.393-12.153-.8l.511-4.974c3.831.393,7.8.653,11.793.773Zm28.3-1.211-.547-4.971c3.845-.423,7.806-.96,11.772-1.6l.792,4.937C-12372.09-12308.611-12376.134-12308.062-12380.061-12307.63Zm-48.511-.626c-4.066-.634-8.095-1.436-11.974-2.385l1.188-4.856c3.741.915,7.629,1.689,11.556,2.3Zm68.48-2.405-.94-4.911c3.807-.729,7.72-1.563,11.632-2.481l1.142,4.868C-12352.236-12312.253-12356.217-12311.4-12360.091-12310.661Zm253.905-.483c-2.949-2.6-6.023-5.122-9.139-7.492l3.027-3.979c3.21,2.442,6.38,5.04,9.419,7.721Zm-342.214-1.672c-3.923-1.218-7.792-2.627-11.5-4.187l1.939-4.608c3.56,1.5,7.274,2.851,11.043,4.021Zm107.968-2.311-1.264-4.838c3.763-.982,7.625-2.065,11.48-3.217l1.431,4.791C-12332.694-12317.223-12336.613-12316.125-12340.432-12315.127Zm-126.886-5.3a117.853,117.853,0,0,1-10.645-6.071l2.7-4.208a112.553,112.553,0,0,0,10.191,5.813Zm146.21-.348-1.532-4.76c3.707-1.192,7.508-2.479,11.3-3.822l1.671,4.712C-12313.507-12323.282-12317.354-12321.98-12321.107-12320.772Zm199.4-2.479c-3.242-2.225-6.6-4.351-9.979-6.319l2.516-4.32c3.487,2.03,6.95,4.223,10.293,6.517Zm-180.4-4.151-1.757-4.682c3.652-1.37,7.394-2.828,11.118-4.334l1.874,4.636C-12294.638-12330.261-12298.418-12328.787-12302.109-12327.4Zm-182.572-3.749a118.067,118.067,0,0,1-9.424-7.834l3.392-3.674a112.807,112.807,0,0,0,9.022,7.5Zm346.093-2.209c-3.489-1.8-7.084-3.494-10.687-5.022l1.953-4.6c3.719,1.577,7.429,3.321,11.029,5.184Zm-144.847-1.5-1.946-4.605.407-.172c3.611-1.53,7.273-2.971,10.885-4.282l1.707,4.7c-3.53,1.282-7.11,2.691-10.643,4.187Zm126.839-6.415c-3.684-1.346-7.463-2.564-11.235-3.623l1.351-4.814c3.895,1.093,7.8,2.353,11.6,3.741Zm-108.309-.5-1.527-4.762c3.877-1.243,7.806-2.376,11.675-3.365l1.239,4.844C-12257.292-12344.092-12261.123-12342.987-12264.905-12341.774Zm-235.01-2.953c-2.769-2.929-5.447-6.057-7.961-9.3l3.951-3.064c2.414,3.113,4.985,6.116,7.643,8.927Zm324.452-2.1c-3.816-.862-7.722-1.59-11.606-2.162l.728-4.946c4.01.59,8.041,1.341,11.982,2.232Zm-70.374-.024-1.035-4.892c3.983-.843,8.015-1.56,11.98-2.13l.712,4.948C-12238.038-12348.37-12241.96-12347.673-12245.837-12346.853Zm19.485-3.019-.486-4.977c4.046-.4,8.133-.65,12.146-.759l.135,5C-12218.454-12350.5-12222.423-12350.256-12226.352-12349.871Zm31.466-.068c-3.889-.373-7.856-.605-11.793-.69l.107-5c4.06.088,8.152.327,12.164.713Zm-317.782-10.68c-2.259-3.318-4.419-6.817-6.419-10.4l4.364-2.439c1.93,3.453,4.012,6.826,6.188,10.023Zm-10.187-17.611c-1.764-3.616-3.412-7.375-4.9-11.171l4.655-1.824c1.438,3.672,3.033,7.307,4.738,10.8Zm-7.668-18.816c-1.3-3.92-2.44-7.864-3.381-11.725l4.858-1.183c.907,3.728,2.007,7.539,3.268,11.329Zm-5.049-19.73c-.167-1-.237-1.55-.24-1.572l4.959-.635s.064.492.213,1.384Z" transform="translate(12620.781 12318.667)" fill="#707070" opacity="0.23"/><g transform="translate(1084.231 93.288)"><g transform="translate(23 32.591)"><path d="M292.873,146.88c3.862-4.077,7.618-8.154,11.694-12.446.429-1.609,1.073-4.292,1.609-6.866-4.935-.966-9.227-10.943-5.15-15.879,7.188-8.69,12.338-19.741,21.887-25.857,3.97-2.575,8.583-3.97,12.875-5.794a4.265,4.265,0,0,1,3,.429c6.008,3.648,12.124,7.3,17.917,11.373,1.18.858,1.073,4.077,1.5,6.115-3.54-.644-7.081-1.287-11.373-2.146,1.717,4.4.858,9.227,5.257,7.618,2.038-1.824,3.97-3.755,6.008-5.579,5.472-1.073,3.326-5.364,2.682-9.441,2.253.429,4.077.858,6.223,1.287.107,1.5.322,3.111.429,5.257,3.219-2.146,5.9-4.721,9.12-5.9,3.326-1.18,7.188-.858,11.158-1.287-.966-1.073-1.717-2.146-3-3.541,1.18-.322,2.253-.966,2.9-.644,6.652,3.326,10.3-.644,13.84-6.115.751-1.073,3.219-1.073,4.828-.966s3.111,1.18,4.721,1.717l.644-1.609c.429,1.5.858,3,1.717,6.223.751-3.326,1.073-4.828,1.5-6.759,2.146.966,4.077,1.717,7.081,3.111-1.717-2.253-2.682-3.541-3.326-4.292,2.682-2.253,4.721-4.506,7.188-5.794,4.721-2.468,9.656-5.579,14.7-5.9,1.824-.107,4.721,1.287,5.686-.858,2.9-6.545,6.33-5.794,10.836-2.36,1.073.751,3.111-.322,4.613.107,2.038.536,4.613,1.18,5.686,2.79,1.073,1.717.644,4.721.858,6.974,7.081,2.038,14.7,5.043,22.531,6.33,6.652,1.073,13.626.429,20.385.215.858,0,1.717-3.219,2.468-3.219,3.433,0,6.974,0,10.085,1.395,4.828,2.038,9.227,5.043,13.948,7.51.322.215.966-.858,1.5-.858,2.039-.107,5.364-.858,5.794,0,3.433,7.081,8.9,3.111,13.518,3.755,1.717.322,3.219,1.824,5.043,2.9V82.292c4.935,1.609,9.441,3,13.948,4.613,4.184,1.5,8.261,3.111,12.338,4.613.322.107.966,0,.966.215,1.287,4.292,5.686,3.862,7.832,6.437,1.18,1.395.644,4.721.858,7.081-4.4,3.862-8.154-9.871-12.767,0,1.18,1.609,2.468,3.433,3.97,5.364-4.828,2.9-11.695.644-13.411,8.476-4.292.107-9.227-2.575-11.373,3.541-.536,1.395,1.073,3.648,3,5.472-2.682,5.9-5.472,11.909-8.154,17.81-.536-.215-1.073-.322-1.5-.536-.536-6.437-6.759-11.158-4.184-18.346,1.5-4.292,3.862-8.154,5.579-11.909-2.039.215-4.721-.322-6.545.858-1.395.966-1.717,3.97-3.219,7.725-4.184-.536-9.978-.966-15.664-2.038-3.97-.751-6.33.215-7.725,4.721-.751,2.682-2.468,4.935-4.613,9.12,4.721-.536,8.583-.858,12.338-1.287,1.931,4.4,4.4,9.763,6.545,15.128.536,1.287,3.219,3.755-.966,4.077-.215,0-.215,2.79-1.609,4.828a66.409,66.409,0,0,1-2.468-6.437c-.751-2.575-1.073-5.257-2.146-7.939-.322,7.081-.429,13.948-4.935,19.419a42.543,42.543,0,0,1-5.579,6.008c-4.077,3.433-4.077,8.261-3.648,13.2.107,1.5,1.073,3.111.751,4.4-.429,1.609-1.717,2.9-2.682,4.292a23.307,23.307,0,0,1-3.433-3.862c-.858-1.5-.858-3.755-1.824-5.15-1.073-1.395-2.789-2.253-4.184-3.219,0,1.395.107,2.79.215,4.184,0,.107-.215.322-.322.429-5.579,5.043-1.18,9.227.644,13.948.966,2.468.322,5.794.107,8.8-.429,6.974-9.227,18.132-15.128,19.312-2.468.536-3.97,1.717-3.755,5.043s-.107,6.652,0,9.978c.536,6.866-2.575,10.943-7.3,13.626-3-3.111-5.9-6.115-8.8-9.12-1.5,6.974-1.073,7.188,2.79,12.338,2.79,3.648,4.292,8.476,5.9,13.089-5.472-4.292-11.909-7.4-13.2-15.664-.858-5.686-1.609-11.373-2.253-15.879-3.111-1.824-5.364-3.111-7.618-4.4,1.5-3-.644-4.292-1.931-6.437-2.9-4.721-5.9-5.043-9.656-.429-3.326,4.077-7.081,7.725-9.871,12.124-1.5,2.468-1.18,6.33-1.717,9.441-.322,1.717-.536,3.541-1.395,4.828a4.784,4.784,0,0,1-3.54,1.609c-.858,0-1.824-1.5-2.253-2.575-1.5-3.541-2.79-7.188-4.077-10.836-1.5-4.292-2.9-8.583-4.613-12.767-.751-1.717-2.468-3-3.541-4.613s-1.5-4.184-2.9-5.15c-5.15-3.97-10.836-4.613-16.737-1.609-.858-1.395-1.5-2.682-2.253-3.97-4.613-.215-6.974-3.433-8.476-7.832-.966-2.79-2.36-5.043-4.828-2.36,2.253,4.077,4.292,7.939,6.33,11.587,2.468-.429,4.721-.966,7.081-1.395.215,1.824,0,3.755.644,5.364.644,1.717,3.111,3.862,2.682,4.721-1.287,3-3,6.33-5.364,7.939-6.008,4.292-12.66,7.618-18.776,11.8-3.219,2.146-4.292,0-5.472-2.36-4.4-9.12-8.8-18.346-13.2-27.466-.536.322-1.073.536-1.609.858,1.073,2.575,2.253,5.257,3.326,7.832,1.18,2.9,2.038,5.9,3.54,8.583,2.575,4.721,5.364,9.334,8.154,13.948,2.575,4.184,5.9,2.146,9.12,1.395a41.913,41.913,0,0,1,5.15-.536c0,2.038.858,4.613,0,6.008-4.4,7.832-9.227,15.342-13.948,22.96-3.433,5.472-6.652,10.729-5.579,18.132a55.73,55.73,0,0,1,0,15.235c-.322,2.575-2.682,4.935-4.184,7.4-.858,1.395-2.575,2.36-2.9,3.862-1.717,7.3-5.364,13.518-8.154,20.278-4.721,11.48-13.089,17.166-23.282,20.278-1.073.322-3.755-2.146-4.184-3.862-1.824-7.51-6.437-14.162-5.579-22.638.215-2.146-.858-5.472-2.36-6.759-6.115-5.257-2.682-11.373-2.038-17.381a26.179,26.179,0,0,0-.107-8.69c-1.717-7.081-1.717-14.913-6.545-20.921-.644-.858.322-3.219.536-4.828.429-3.541.966-7.081,1.395-9.656-4.184-.536-7.618-.751-11.051-1.395-1.073-.215-1.824-1.717-2.9-2.146-.858-.429-2.468-.644-3,0-6.759,7.188-19.312,4.292-24.676-4.4-6.008-9.441-6.974-19.741-5.472-30.255.858-6.115,4.4-11.8,6.866-17.6,1.395-3.219,4.292-5.9,4.721-9.12.751-5.579,4.184-8.476,7.188-12.016.322-.429.858-.858,1.287-.751,9.871,1.395,19.1-2.468,28.646-3.648.644,0,1.395.107,2.36.215-1.609,6.866,1.18,10.622,6.866,12.553,2.682.966,5.15,2.79,7.939,4.4,2.253-6.008,6.223-6.437,11.373-4.506,3.648,1.395,7.618,1.824,11.587,2.36.966.107,2.9-1.073,3.111-2.038.751-3.219.966-6.545,1.609-10.729-1.824,2.038-3,3.433-4.184,4.721-.429-1.287-.858-2.575-1.287-3.97-7.4,3.648-12.553-1.073-11.909-10.943-.536-.215-.966-.322-1.5-.536-.429,1.824-1.5,3.648-1.18,5.257.966,5.043-.858,6.223-4.613,5.257-.858-3.326-1.717-6.545-2.575-9.763-.858-.644-1.717-1.395-2.468-2.038-2.36,2.9-4.613,5.686-6.974,8.583l1.287,1.931c-1.287-.966-2.468-1.931-3.97-3.111,1.717-1.073,3.111-1.931,5.472-3.433-3.862-2.79-7.081-5.043-10.192-7.3-.215,2.9-.429,6.008-.644,9.227h-2.575c-.215-4.4-.429-8.8-.536-12.446-1.5,0-4.184-.858-5.9.215-2.79,1.824-6.33,4.613-7.188,7.725-3.111,11.158-3.97,12.124-14.055,9.763a22.534,22.534,0,0,0-4.292-.322V167.8c3.97,0,7.618.429,11.158-.215,1.18-.215,2.9-3.648,2.575-4.935-.751-2.575-2.146-5.472-5.472-5.257-.858,0-1.717-.858-3.219-1.717,4.4-2.79,8.154-5.15,11.909-7.51a16.049,16.049,0,0,0,1.18-1.395Zm39.053-45.812a5.954,5.954,0,0,0-.644-.858c-.751.322-1.824.429-2.36,1.073a72.35,72.35,0,0,0-5.9,9.012c-.966,1.931-2.36,5.043-1.609,6.33,3.755,7.188-2.575,11.48-3.219,17.6,2.038-.107,5.686.644,6.545-.644,1.931-3,2.468-7.188,3.755-11.587,1.073.966,1.931,1.824,2.9,2.682.751-3.862.536-6.974-3.648-8.583-3.755-1.395-3.111-4.506-1.18-7.3,1.717-2.575,3.54-5.043,5.364-7.618Z" transform="translate(-5.768 -30.784)" fill="#a7b6db"/><path d="M137.477,230.223q1.824-5.9,10.407-6.437c-.751,4.292-1.395,8.261-2.038,12.446.644,0,1.287.429,1.931.215,6.437-1.5,7.832,3.326,6.974,9.978a60.186,60.186,0,0,0,0,6.223c3.541-1.287,6.759-6.867,8.9.429,3.111-3.111,6.437-6.437,9.978-9.871,1.395,1.395,2.575,2.468,3.755,3.541.751-.966,1.395-1.931,2.253-3,2.9,3.433,5.15,6.437,10.3,6.437a11.945,11.945,0,0,1,10.514,7.939c.751,2.146,2.146,5.043,6.008,3.433,3.111-1.287,6.974,3.433,7.3,7.939.107,1.717,0,3.433,0,4.935,7.832,3.219,15.664,5.686,22.745,9.549,7.939,4.4,8.476,9.549,3.111,19.312-1.073,1.931-2.79,3.541-3.648,5.579a52.033,52.033,0,0,0-2.253,8.261c-.751,3.326-1.824,6.652-1.931,10.085-.107,5.364-4.506,3.648-6.545,5.794a27.32,27.32,0,0,0-4.935,6.759c-2.682,5.472-4.721,11.587-7.832,16.737-1.18,2.038-4.721,2.253-7.3,3.326,2.038,7.725,1.073,9.334-6.115,10.943-2.575,3.111-4.184,5.043-5.686,6.866,3.433,2.038,0,5.472-.322,8.69-.215,1.824.215,3.648.215,5.472,0,1.609.429,3.755-.322,4.828-6.115,9.334-6.008,10.407,2.468,17.274-5.686,3-10.943,1.18-14.162-4.184-5.364-9.012-4.077-19.527-6.33-29.183-1.287-5.472,4.506-7.081,3-11.587a36.958,36.958,0,0,1-4.292-.215c1.609-6.866,3.433-12.982,4.292-19.312.644-4.935,0-10.192-.215-15.235-.107-3.326.215-6.866-.751-9.871a23.628,23.628,0,0,0-5.364-9.12c-3.755-3.755-5.9-7.3-6.33-10.3-2.038-3.111-4.292-5.9-5.794-9.334-.429-.966,1.824-3.326,2.79-4.935-.966-.858-3.648-2.038-3.648-3.433-.215-4.935-.751-10.407.858-14.806,2.146-5.794,3.755-10.943,1.073-15.557-2.038.215-3.97,1.073-4.935.322-2.468-1.717-4.506-4.292-6.866-6.33-4.828-4.077-9.549-8.476-14.806-11.909-2.146-1.5-5.472-.644-8.154-1.395-7.188-1.931-11.373-6.33-12.016-15.45-.215-3.541-4.077-6.652-7.081-9.656.536,2.253,1.073,4.613,1.609,6.866a11.312,11.312,0,0,1-.751,1.18c-1.824-1.824-3.97-3.326-5.472-5.364-3.755-5.15-5.472-11.48-6.974-17.81a5.2,5.2,0,0,0-1.18-2.575c-7.51-5.794-5.686-13.948-5.257-22.209.536-9.12-.429-18.346-.644-27.573a42.5,42.5,0,0,0-.644-8.9c-.429,1.18-.858,2.468-1.5,4.184C81.9,127.762,72.353,120.681,64.2,123.685c1.395,8.583-2.9,13.2-12.553,13.411.858-1.931,1.824-3.97,2.682-5.9l-1.18-1.18c-4.506,4.935-8.69,10.622-13.84,14.7-4.506,3.541-10.192,5.364-15.235,7.939A17.358,17.358,0,0,0,23,150.721c6.759-6.223,13.411-12.446,20.17-18.776-.429-.751-.751-1.5-1.18-2.36-2.253.751-4.613,1.609-6.223,2.146-2.038-1.395-4.828-2.146-5.9-4.184-1.609-2.9-3-6.866-2.575-9.978.322-2.36,3.433-4.828,5.794-6.008,3.97-1.931,8.369-2.9,12.231-5.472H36.089c-2.468-2.682-4.721-5.15-7.081-7.618,5.043-.107,9.334-6.759,15.771-3.219.751.429,2.575-1.395,3.648-2.146-2.682-1.824-5.472-3.755-8.261-5.579a12.093,12.093,0,0,1,.322-1.931A54.912,54.912,0,0,0,46.5,83.988c12.231-4.613,24.033-.429,36.049,1.717,6.437,1.18,13.948,3.541,20.385-3,.858,1.717,1.5,3.111,2.36,4.828,2.682-3.326,4.828-2.9,8.583-.322,3.97,2.79,9.441,2.682,14.269,4.077,2.146.644,4.184,1.824,8.047,3.541-1.931-2.682-2.79-5.043-4.292-5.9-3.219-1.609-6.759-2.468-10.085-3.755-.858-.322-1.5-1.287-2.253-1.931.644-.751,1.287-1.5,1.717-2.038-1.287-.644-3-1.5-5.686-2.79-.858.429-3.111,1.395-5.9,2.682-.536-3.326-3.433-5.15-.966-9.227,3.326-5.686,7.081-8.69,12.982-5.686,2.253,1.18,4.184,1.395,5.472-.858,2.36-4.184,5.579-3.326,8.9-2.36.966.322,2.038,0,3.326,0-.322-1.395-1.073-2.9-.751-3.862.429-1.073,1.931-1.717,3.433-2.9.322,2.79.644,4.721.858,6.759,3.648-1.609,7.081-3.219,11.587-5.257.215,2.79.322,4.935.429,7.081-2.146,0-4.4-.215-6.545-.107a11.051,11.051,0,0,0-3.755.644c-4.828,1.609-9.656,3.326-14.377,4.935,1.717.966,3.648,2.038,5.686,3.219,4.292-6.437,11.051-4.292,17.274-4.613.536,2.146,1.073,4.184,1.824,6.866-2.682,1.717-5.579,3.648-8.476,5.472-.536.429-1.717.858-1.717,1.073,1.931,9.549-4.613,2.682-6.759,4.4,3.862,6.115,8.261,4.935,12.767.644.858,1.824,1.5,3.219,2.146,4.613a7.516,7.516,0,0,0,1.5-.322c-.322-2.575-.751-5.15-.858-7.618,0-1.717.322-3.433.429-5.15,1.287.215,3,0,3.97.858,2.36,1.931,4.292,4.4,6.866,6.652-2.682-5.257-1.073-9.656,1.824-13.626,2.9-4.077,4.4-3.755,6.545.966.644-.429,1.5-1.395,1.931-1.287,3.97,1.5,8.583,1.609,12.124,3.326,2.682,1.287,4.828,3.755,8.369,3.862,2.79,0,4.077,6.008,2.9,8.69,2.9,2.36,6.008,4.292,8.261,7.188.536.751-1.287,4.935-2.9,6.33-.858.751-3.541-1.18-4.828-1.609v14.269c-7.188-4.077-13.948-7.832-21.243-12.016,2.038-1.609,4.292-3.111,6.437-4.828,1.5-1.287,4.184-3.326,3.97-4.077-.644-2.253-2.253-4.828-4.077-5.686-3.541-1.5-7.51-1.931-11.694-2.468,6.223,1.717,1.824,6.33,2.253,9.441.107.858-2.575,2.79-4.292,3.219-5.043,1.287-7.832,5.9-11.48,9.334-2.36,2.253-3.97,5.257-6.115,7.832-3.97,4.828-3.219,8.69,2.146,11.8,3.541,2.039,6.437,5.686,11.051,4.4.322,0,1.18,2.038,1.5,3.219.644,2.253.966,4.613,1.5,6.974h1.287c.536-3.97.966-8.047,1.5-12.553a15.643,15.643,0,0,1,2.682.215c.429-5.9.751-11.909,1.717-17.7.107-.966,3.219-2.253,4.721-1.931,3.219.644,6.223,2.36,9.763,3.755v8.047h5.9c.215-1.18.429-2.468.536-3.648.429-.429.858-.751,1.287-1.18l1.287,3.219c1.931,5.15,3.755,10.407,5.9,15.557.322.858,2.038.966,2.682,1.824.966,1.18,2.038,2.575,2.146,3.97.429,4.721-.966,9.763,3.326,13.411.966.751.429,3.648.751,6.33-3.97-1.287-7.725-2.468-12.016-3.862,2.038-3.326,4.4-7.188,7.188-11.8-4.077,1.609-7.4,3-10.836,4.4a13.589,13.589,0,0,1-.966,3.862,14.263,14.263,0,0,1-3.111,3.111c1.287,1.073,2.468,2.146,3.755,3.219.429.322.751.751,1.395,1.287-2.682,1.717-5.257,3.326-8.261,5.15.429-1.5.751-2.468.966-3.541-9.012,3.648-12.016,3.326-8.476,9.978-6.008,1.287-9.334,4.721-9.978,12.124-.322,3.111-4.4,6.437-7.4,8.476-5.257,3.755-6.115,5.794-4.613,13.3.536,2.79,0,5.794-.966,9.656-1.395-1.824-3.326-3.541-3.97-5.686-1.395-4.4-7.081-8.154-9.334-4.828-2.36,3.433-3.648.644-5.257.644s-3.648-1.5-4.935-.858c-3,1.395-7.725,1.18-6.008,7.939.858,3.433-.751,7.618-.429,11.373.322,3.862,2.146,6.652,6.437,4.721Z" transform="translate(-23 -30.871)" fill="#a7b6db"/><path d="M182.907,57.277c4.506-1.609,9.012-3.111,14.7-5.15-1.609-1.609-2.468-2.468-3.219-3.111C204.58,43.33,215.2,38.18,227.432,42.364c-1.287-8.261-.966-8.583,5.794-8.8,7.51-.215,15.02-1.073,22.531-.966,4.721,0,9.441,1.5,14.162,2.36V37c-2.682,1.609-5.472,3.219-8.154,4.828,6.652-2.36,12.016-.966,17.81,5.472a51.9,51.9,0,0,0-5.794.429c-2.79.644-6.008.858-5.579,5.9.107,1.395-1.931,3.111-2.79,4.4.966.644,2.9,1.824,6.223,3.97-3.862.751-6.008,1.18-8.69,1.717,1.18,5.364,3.648,10.943-2.9,13.948.536,1.287,1.073,2.79,1.931,4.721-1.287-.215-2.038-.322-2.9-.429.215,1.287.429,2.468.644,3.648a14,14,0,0,1-3.648-.322c-2.468-.644-4.828-1.5-7.188-2.253-.107.644-.322,1.18-.429,1.824,2.468.751,4.935,1.395,8.047,2.36-7.4,6.759-14.7,13.3-23.711,15.02-3.755.644-3.755,2.79-4.721,5.043-2.146,5.257-4.184,10.622-5.9,15.235-3.219-1.18-5.9-1.5-7.725-3.111a15.5,15.5,0,0,1-4.077-6.759,46.22,46.22,0,0,1-2.575-12.016c-.107-2.36,1.287-5.043,2.36-7.3.536-1.18,2.146-1.717,3.862-3-2.575-1.824-4.828-3.219-6.974-4.721,1.717-1.287,3.111-2.253,4.506-3.219-.322-.536-.644-1.073-.858-1.5-1.073.858-2.253,1.609-3.648,2.682-.751-4.935-1.395-9.334-2.146-13.948l-19.634-4.506c0-.858.215-1.824.215-2.682l9.763-.858a5.223,5.223,0,0,1,.107-1.287c-4.077-.215-8.261-.429-12.338-.644a13.208,13.208,0,0,0-.215-2.146Zm77.784-18.239c-3.862.429-7.725.858-11.587,1.395a8.12,8.12,0,0,0,.107,1.609c3.755-2.253,8.261,3.541,11.373-2.9Z" transform="translate(-11.352 -32.591)" fill="#a7b6db"/><path d="M520.743,350.843c.322-1.931.429-3.433.751-5.043-.536-.322-.858-.644-1.287-.858-1.931-.966-4.613-1.395-5.794-3-4.077-5.794-10.085-6.652-15.771-2.9a44.786,44.786,0,0,1-13.518,5.472c-1.18.322-4.077-2.9-4.4-4.828-1.073-6.866-1.288-13.84-1.824-20.707,0-1.395.429-3.97.644-3.97,6.223-.215,7.4-5.686,8.9-11.158,1.395.644,2.253,1.073,3.219,1.609.107-.536,0-1.18.322-1.395,1.717-1.717,3.97-5.043,5.15-4.721,3.755,1.287,3.97-.536,4.506-3.755a6.572,6.572,0,0,1,3.433-4.4c2.789-1.073,5.794-.966,6.437-5.15,0-.429.858-1.073,1.18-.966,4.613.536,9.227,1.18,15.128,1.931L523,291.834c2.575,2.038,4.828,3.97,8.583,6.974.751-5.794,1.395-10.729,2.146-16.308,1.287.536,2.682.751,2.9,1.395,3.326,9.549,6.545,19.2,10.085,29.4,0,0,1.073-.107,2.468-.322,1.287,7.4,4.935,14.806.429,22.1-3.97,6.437-7.51,13.948-12.982,18.239-4.077,3.219-10.622,1.287-15.879-2.468Z" transform="translate(10.23 -14.376)" fill="#a7b6db"/><path d="M206.416,40.483c-3.219.966-6.33,1.824-8.8,2.575-1.287,2.038-2.038,4.292-3.541,5.15-5.686,3.326-11.8,5.686-15.235,12.66-.858,1.824-3.111,2.682-4.077,3.433-.215,1.395,0,3.326-.536,3.862-6.866,5.364-14.913,4.721-21.887-1.18a42.739,42.739,0,0,1,4.292-5.364c1.395-1.287,3.326-2.038,5.043-3-1.717-4.184,2.146-5.043,5.043-6.437-.429-.429-.751-.966-1.18-1.395-2.575,1.824-5.15,3.755-7.725,5.579-5.15,2.038-3.862-4.4-5.794-7.3-1.609-2.468,3.541-7.51,5.9-5.9,1.18.751,1.931,2.146,3,3.219.858.751,1.717,1.5,2.682,2.253-1.18-2.9-2.146-5.472-3.111-8.047,2.682-.858,5.472-2.468,8.154-2.575,9.871-.322,19.741-.215,29.5-.215h7.939c0,.858.215,1.824.215,2.682Z" transform="translate(-13.618 -32.213)" fill="#a7b6db"/><path d="M546.669,282.881c-.966-.429-2.36-.429-3-1.287-2.36-3.219-4.613-4.613-7.725-.966-.429.536-2.039,0-3-.322-2.039-.751-3.97-1.609-6.437-2.575-.751-6.437-8.154-13.3-14.7-12.231,2.575-7.725,22.316-4.613,27.144,3.862,2.468,4.292,5.794,7.939,8.69,11.909l-.966,1.609Z" transform="translate(12.628 -15.937)" fill="#a7b6db"/><path d="M487.153,272.149c-4.828-.215-12.875-8.154-12.553-11.48.215-1.824,2.038-3.648,3.433-5.15,2.575-3,5.15-6.223,8.261-8.583,1.18-.966,3.755-.429,5.472.215.966.429,2.253,2.575,2.039,3.541-1.287,6.008-2.9,11.909-4.613,17.81a13.952,13.952,0,0,1-1.931,3.648Z" transform="translate(9.916 -17.006)" fill="#a7b6db"/><path d="M311.01,54.7c-2.038,1.073-4.184,2.146-5.686,2.9-1.609-2.575-3.219-4.828-4.506-7.4a4.437,4.437,0,0,1,.215-3.541c.966-1.073,2.789-2.146,3.862-1.824,1.717.644,3.219,2.36,4.935,3.862v-3.97c2.36-.215,4.506-1.287,4.828,3.219,0,1.287,3.111,2.575,4.935,3.219,4.506,1.609,7.081,4.828,8.154,9.656-.322.644-.751,1.287-1.073,1.931-2.682-1.5-5.364-2.9-7.725-4.184-1.073,2.253-2.146,5.9-4.292,7.832-.858.751-5.579-1.609-6.33-3.541-.751-1.717,1.5-5.043,2.575-8.154Z" transform="translate(-2.769 -31.727)" fill="#a7b6db"/><path d="M362.5,321.349c-.429-1.609-1.5-3.862-1.5-6.223a142.282,142.282,0,0,1,1.287-14.913c0-.322.322-.644.536-.966,3.433-4.721,6.866-9.441,10.192-13.948,4.506,9.763-.429,18.99-1.717,28.539-.644,4.4-2.146,8.69-8.8,7.51Z" transform="translate(1.636 -14.172)" fill="#a7b6db"/><path d="M291.577,142.608A16.044,16.044,0,0,0,290.4,144c-4.077.215-8.154.429-13.2.644,1.824-1.609,3-2.682,4.292-3.755-4.506-5.15,1.18-6.437,3.433-9.656-8.261-2.682-3.326-8.9-3.541-14.055,1.931-.536,3.862-1.073,4.184-1.18,2.36,6.867,4.506,12.982,6.759,19.312-.107,1.931-.322,4.613-.536,7.3Z" transform="translate(-4.472 -26.512)" fill="#a7b6db"/><path d="M520.028,163.216c.858,0,2.468-.322,2.468-.215,1.18,5.043,2.682,10.192,2.9,15.342,0,1.717-2.575,4.184-4.506,5.364-2.36,1.395-5.364,1.5-7.725,2.9-2.038,1.18-3.648,3.219-5.794,5.15-.429-.644-1.395-1.931-2.468-3.541,1.18-.322,2.575-.644,3.97-1.073a.765.765,0,0,0-.322-.644c-.858-.644-1.824-1.18-2.682-1.717.751-.858,1.395-2.146,2.253-2.575,3.648-2.038,7.939-3.111,10.943-5.9,3.755-3.433,2.36-8.583,1.18-13.3v.215Z" transform="translate(12.125 -23.088)" fill="#a7b6db"/><path d="M391.551,61.86c-2.36,1.287-4.828,2.36-7.188,3.755-4.292,2.468-8.69,4.935-12.767,7.832-.536.322,0,3.219.644,4.721a41.709,41.709,0,0,0,3.219,5.364c-4.935,4.613-7.081-1.609-11.158-3,3.219-5.472,5.257-12.124,9.441-15.235,4.721-3.541,11.265-3.97,16.952-5.794.322.751.536,1.609.858,2.36Z" transform="translate(1.877 -30.63)" fill="#a7b6db"/><path d="M449.5,248.043c5.686-1.5,8.261-.322,10.3,3.648,2.9,5.579,9.441,8.476,9.763,15.986a23.237,23.237,0,0,1-.966,4.4c-1.073-.429-2.468-.536-3.326-1.287-2.682-2.253-5.794-4.184-4.935-9.12.215-.966-1.395-2.468-2.36-3.541C455.4,255.016,452.826,252.012,449.5,248.043Z" transform="translate(8.087 -16.933)" fill="#a7b6db"/><path d="M251.6,96.906c1.287-1.931,2.468-3.541,3.111-4.506a67.756,67.756,0,0,0,8.583,1.395c3.862,0,5.9,3,5.579,6.33-.215,1.717-3.862,3.541-6.223,4.184-4.721,1.18-8.69-.107-9.12-6.866,0-.215-1.18-.322-1.931-.536Z" transform="translate(-6.338 -28.232)" fill="#a7b6db"/><path d="M172.926,222.1h-11.48c.644-2.146,1.073-3.433,1.073-3.326-3.433-1.931-6.652-4.292-10.192-5.472-2.575-.858-5.579-.215-9.227-1.073,1.609-1.073,3-2.9,4.721-3.111,5.9-.966,11.051.858,15.235,6.115.751.966,2.36,1.073,3.648,1.5,2.36.858,4.721,1.717,6.974,2.575-.215.966-.536,1.824-.751,2.79Z" transform="translate(-14.246 -19.743)" fill="#a7b6db"/><path d="M573.871,350.2c4.935,4.613,4.721,6.008,0,9.978-2.36,1.931-3.97,5.15-6.223,7.3-1.073,1.073-2.9,1.395-4.506,1.931-1.287.429-2.575.536-5.043-.322,5.15-6.223,10.3-12.338,15.771-18.883Z" transform="translate(16.003 -9.441)" fill="#a7b6db"/><path d="M316.444,42.1c6.759.751,13.411,1.395,20.707,2.253-2.146,6.545-7.4,5.9-10.407,5.579-3.648-.429-8.583-1.824-10.943-6.008a11.923,11.923,0,0,1,.751-1.717Z" transform="translate(-1.658 -31.898)" fill="#a7b6db"/><path d="M500.727,270.454c-1.395-.858-2.789-1.824-4.292-2.79-.429,1.18-1.073,2.682-1.609,4.292-4.184-5.15-4.506-9.334-.536-14.055,3.433-4.077,5.364,1.287,8.154,3-1.287.215-2.575.536-3.97.858,1.073,2.468,2.038,4.935,3.111,7.51-.322.429-.536.858-.858,1.288Z" transform="translate(11.148 -16.278)" fill="#a7b6db"/><path d="M579.419,335.2c1.18,2.468,1.931,3.97,2.575,5.257,1.931.107,3.755.215,5.9.322-3.541,5.472-6.33,9.978-9.334,14.591-.966-3-1.609-5.364-2.36-7.832C577.058,344.212,578.131,340.35,579.419,335.2Z" transform="translate(17.322 -10.535)" fill="#a7b6db"/><path d="M488.664,280.49c-6.759-1.395-12.446-2.468-18.025-3.862-.858-.215-1.609-1.609-2.038-2.682-.107-.536,1.073-2.146,1.287-2.146,5.686,1.717,11.265,3.541,16.844,5.472.429.215.751,1.18,1.824,3.219Z" transform="translate(9.479 -15.156)" fill="#a7b6db"/><path d="M502.813,235.754c-1.395.429-2.468.751-4.613,1.395,2.468-3.433,4.184-5.9,6.759-9.549,1.824,2.253,4.292,5.15,6.867,8.154-3.219,1.5-5.9,2.79-9.012,4.184v-4.184Z" transform="translate(11.637 -18.377)" fill="#a7b6db"/><path d="M433.43,52.188H416.8c1.395-2.253,2.038-4.506,3.111-4.935C424.31,45.858,428.709,45.75,433.43,52.188Z" transform="translate(5.704 -31.579)" fill="#a7b6db"/><path d="M519.21,163.736c-.536-1.287-1.717-2.682-1.609-3.97,0-2.253.858-4.4,1.5-6.866,3.111,1.18,6.223,2.253,9.227,3.433-1.287,2.36-2.468,4.506-3.648,6.652-.215-.429-.429-.751-.644-1.18-1.609.751-3.326,1.5-4.935,2.253l.107-.107Z" transform="translate(13.05 -23.822)" fill="#a7b6db"/><path d="M500.8,63.782c-2.038,1.287-4.077,3.648-6.008,3.433-2.575-.322-4.828-2.682-7.3-4.077.215-.644.536-1.287.751-2.038h12.231C500.589,61.958,500.7,62.817,500.8,63.782Z" transform="translate(10.857 -30.513)" fill="#a7b6db"/><path d="M527.8,362.4c-2.575-4.613-4.184-7.4-5.9-10.3h12.338c-2.146,3.433-4.077,6.437-6.545,10.3Z" transform="translate(13.364 -9.303)" fill="#a7b6db"/><path d="M272.853,137.426c-2.038-6.974-.107-9.763,6.437-9.12C278.217,132.276,280.792,138.928,272.853,137.426Z" transform="translate(-4.845 -25.621)" fill="#a7b6db"/><path d="M152.8,106.739c2.682-3.541,4.077-5.364,6.008-7.939,2.253,1.931,4.506,3.97,7.725,6.759C161.276,105.988,157.628,106.31,152.8,106.739Z" transform="translate(-13.539 -27.766)" fill="#a7b6db"/><path d="M495.846,226.434c-.751-2.575-1.395-5.257-2.146-7.832,1.824-.536,4.506-2.038,5.257-1.287,3.219,3.433,0,5.9-1.18,8.69-.644.107-1.287.322-2.039.429Z" transform="translate(11.309 -19.142)" fill="#a7b6db"/><path d="M550.123,309.632c-2.039-2.038-4.184-4.077-6.223-6.115a9.39,9.39,0,0,1,.215-1.717c1.5.215,3.541-.107,4.506.751,1.395,1.395,2.146,3.648,3.219,5.579-.536.429-1.073.966-1.717,1.395Z" transform="translate(14.968 -12.969)" fill="#a7b6db"/><path d="M509,261.577c2.575-7.188,5.686-5.9,8.8-4.292a9.082,9.082,0,0,0,.429,1.824c-2.682.644-5.257,1.395-9.12,2.36Z" transform="translate(12.424 -16.305)" fill="#a7b6db"/><path d="M489.6,206.448c1.717-1.073,3-1.931,5.794-3.648-.536,4.292-.966,7.081-1.609,11.694C491.96,211.061,490.995,209.13,489.6,206.448Z" transform="translate(11.01 -20.185)" fill="#a7b6db"/></g></g><g transform="translate(13419.729 12120.215)"><g transform="translate(-12394.39 -11732)"><path d="M26.709,50.018a.47.47,0,0,1-.235-.063l-4.847-2.818a1.109,1.109,0,0,1-.342-.3C17.942,42.8,10.17,32.74,10.14,26.4c-.013-7.964,5.608-17.7,12.53-21.705C26.137,2.7,29.417,2.4,31.907,3.841l4.834,2.818h0a.467.467,0,1,1-.47.808c-2.189-1.276-5.131-.975-8.287.851C21.321,12.168,15.91,21.541,15.924,29.212c.013,6.024,7.645,15.887,10.925,19.848a.5.5,0,0,0,.119.1.467.467,0,0,1-.259.857Zm1.72-46.139A10.841,10.841,0,0,0,23.137,5.5C16.474,9.357,11.063,18.729,11.076,26.394,11.1,32.433,18.726,42.286,22,46.242c.01,0,.087.08.1.086L24.631,47.8C20.9,43.067,15,34.72,14.988,29.214c-.014-7.969,5.607-17.706,12.53-21.7a11.427,11.427,0,0,1,5.816-1.755l-1.9-1.1a5.925,5.925,0,0,0-3.01-.771Z" transform="translate(-10.14 -2.943)" fill="#aeb8ce"/><path d="M26.709,50.518a.972.972,0,0,1-.485-.13l-4.834-2.81a1.616,1.616,0,0,1-.489-.415,88.383,88.383,0,0,1-6.856-9.414c-2.91-4.693-4.392-8.511-4.4-11.348A25.885,25.885,0,0,1,13.372,13.81,26.053,26.053,0,0,1,22.42,4.259a12.177,12.177,0,0,1,6.012-1.816,7.334,7.334,0,0,1,3.727.965l4.719,2.75h.365v.274A.968.968,0,0,1,36.021,7.9a5.4,5.4,0,0,0-2.761-.71,10.329,10.329,0,0,0-5.024,1.562,24.05,24.05,0,0,0-8.353,8.831,23.925,23.925,0,0,0-3.46,11.629c.005,2.511,1.405,6.021,4.161,10.433a87.779,87.779,0,0,0,6.643,9.089l.018.012a.968.968,0,0,1-.088,1.662l-.016.11Zm-2.286-2.334,2.028,1.179c-.447-.54-.944-1.151-1.472-1.82Zm-2.028-2.261.295.172a73.5,73.5,0,0,1-4.708-7.048c-2.312-4.008-3.487-7.316-3.493-9.832a25.884,25.884,0,0,1,3.731-12.592,26,26,0,0,1,9.049-9.546A13.4,13.4,0,0,1,31.7,5.383l-.516-.3a5.418,5.418,0,0,0-2.72-.7h-.038a10.435,10.435,0,0,0-5.043,1.557,24.089,24.089,0,0,0-8.349,8.834,23.925,23.925,0,0,0-3.46,11.624c.011,2.516,1.414,6.03,4.169,10.441a87.629,87.629,0,0,0,6.613,9.055ZM34.349,6.272a6.289,6.289,0,0,1,1.377.374l-.62-.361Z" transform="translate(-10.14 -2.943)" fill="#aeb8ce"/><g transform="translate(4.848 2.809)"><path d="M26.433,49.72a1.28,1.28,0,0,1-1-.458c-4.155-5.044-11.12-14.4-11.143-20.449-.023-7.969,5.6-17.708,12.54-21.711,3.443-1.989,6.709-2.3,9.193-.871s3.849,4.388,3.861,8.345c.011,6.305-7.622,25.153-10.9,32.963a3.991,3.991,0,0,1-1.576,1.9,1.957,1.957,0,0,1-.969.286ZM32.575,6.282A10.749,10.749,0,0,0,27.3,7.911c-6.68,3.854-12.1,13.229-12.072,20.9.022,5.974,7.646,15.873,10.924,19.852.208.243.581.079.785-.038a3.089,3.089,0,0,0,1.182-1.449c2.543-6.051,10.843-26.291,10.831-32.6-.01-3.609-1.214-6.285-3.391-7.536a5.9,5.9,0,0,0-2.981-.76Z" transform="translate(-14.289 -5.347)" fill="#aeb8ce"/><path d="M26.433,50.22h-.343l-.013-.034a1.772,1.772,0,0,1-1.026-.6l0-.006a89.406,89.406,0,0,1-7.163-9.905c-2.707-4.455-4.084-8.108-4.095-10.86A25.819,25.819,0,0,1,17.516,16.22a26.025,26.025,0,0,1,9.063-9.552,12.1,12.1,0,0,1,6-1.822,7.3,7.3,0,0,1,3.691.951c2.64,1.518,4.1,4.635,4.112,8.777.005,2.786-1.424,8.2-4.246,16.087-2.258,6.312-4.889,12.767-6.7,17.071a4.5,4.5,0,0,1-1.787,2.134A2.464,2.464,0,0,1,26.433,50.22ZM32.575,6.782a10.342,10.342,0,0,0-5.028,1.563A24.064,24.064,0,0,0,19.18,17.18a23.857,23.857,0,0,0-3.456,11.629c.009,2.49,1.41,5.993,4.165,10.411a90.663,90.663,0,0,0,6.592,9.06.882.882,0,0,0,.2-.09,2.619,2.619,0,0,0,.971-1.211c1.366-3.251,4.01-9.678,6.363-16.178,2.9-8.013,4.432-13.623,4.427-16.223-.01-3.423-1.125-5.946-3.14-7.1a5.405,5.405,0,0,0-2.732-.694Z" transform="translate(-14.289 -5.347)" fill="#aeb8ce"/></g></g><g transform="translate(-12383.523 -11722.549)"><path d="M23.4,28.2a3.71,3.71,0,0,1-1.876-.484c-1.339-.77-2.078-2.353-2.085-4.458a14.4,14.4,0,0,1,6.521-11.3c1.841-1.063,3.6-1.223,4.945-.445s2.079,2.353,2.086,4.455a14.4,14.4,0,0,1-6.522,11.3A6.232,6.232,0,0,1,23.4,28.2Zm3.028-15.431a13.36,13.36,0,0,0-6.053,10.486c0,1.758.579,3.054,1.615,3.65s2.471.442,4.012-.447a13.36,13.36,0,0,0,6.054-10.485c0-1.755-.579-3.05-1.616-3.647s-2.473-.444-4.012.444Z" transform="translate(-19.439 -11.031)" fill="#aeb8ce"/><path d="M23.4,28.7a4.2,4.2,0,0,1-2.126-.551c-1.5-.862-2.328-2.6-2.335-4.89a13.685,13.685,0,0,1,1.97-6.674,13.781,13.781,0,0,1,4.8-5.058,6.674,6.674,0,0,1,3.315-1,4.207,4.207,0,0,1,2.13.553c1.5.863,2.329,2.6,2.336,4.887a13.682,13.682,0,0,1-1.971,6.674,13.781,13.781,0,0,1-4.8,5.058A6.685,6.685,0,0,1,23.4,28.7Zm3.278-15.5a11.823,11.823,0,0,0-4.1,4.342,11.725,11.725,0,0,0-1.7,5.709c0,1.572.489,2.715,1.364,3.218a2.3,2.3,0,0,0,1.164.292,4.858,4.858,0,0,0,2.348-.739,11.823,11.823,0,0,0,4.1-4.342,11.723,11.723,0,0,0,1.7-5.709c0-1.569-.489-2.711-1.366-3.216a2.316,2.316,0,0,0-1.169-.293,4.849,4.849,0,0,0-2.343.737h0Z" transform="translate(-19.439 -11.031)" fill="#aeb8ce"/></g></g><path d="M825.142,495.782l-2.905-4.916a44.55,44.55,0,0,1,8.525-3.838c2.779-.762,9.958-2.877,12.111-.518Zm26.98,39.339a30.492,30.492,0,0,1-59.736-11.675c-1.968,1.027-3.144,1.631-3.144,1.631l-4.843,2.976L769.577,512.6l4.033-2.5,10.066,4.536c1.725-1.158,8.971-5.973,17.422-11.294l-19.51-15.574,7.572-4.442,23.3,13.042c2.851-1.7,5.65-3.294,8.2-4.689l3.941,6.713,18.774-11.015c.857,3-4.613,7.851-6.637,9.829a21.469,21.469,0,0,1-2.083,1.766A30.623,30.623,0,0,1,852.122,535.121Zm-40.5-33.806a2.689,2.689,0,1,0,2.691-2.687A2.688,2.688,0,0,0,811.625,501.315Zm-7.522,4.7a2.687,2.687,0,1,0,2.689-2.687A2.7,2.7,0,0,0,804.1,506.014Zm-7.524,4.7a2.689,2.689,0,1,0,2.689-2.685A2.692,2.692,0,0,0,796.579,510.717Zm37.708-11.477a163.089,163.089,0,0,1-14.765,9.362l.03,26.5-7.566,4.436-4.065-24.412c-5.981,3.289-11.477,6.2-14.934,8a28.327,28.327,0,1,0,41.3-23.89Z" transform="translate(350.091 -159.912)" fill="#a7b6db"/><g transform="translate(12585.729 11936.215)"><g transform="translate(-12394.39 -11732)"><path d="M26.709,50.018a.47.47,0,0,1-.235-.063l-4.847-2.818a1.109,1.109,0,0,1-.342-.3C17.942,42.8,10.17,32.74,10.14,26.4c-.013-7.964,5.608-17.7,12.53-21.705C26.137,2.7,29.417,2.4,31.907,3.841l4.834,2.818h0a.467.467,0,1,1-.47.808c-2.189-1.276-5.131-.975-8.287.851C21.321,12.168,15.91,21.541,15.924,29.212c.013,6.024,7.645,15.887,10.925,19.848a.5.5,0,0,0,.119.1.467.467,0,0,1-.259.857Zm1.72-46.139A10.841,10.841,0,0,0,23.137,5.5C16.474,9.357,11.063,18.729,11.076,26.394,11.1,32.433,18.726,42.286,22,46.242c.01,0,.087.08.1.086L24.631,47.8C20.9,43.067,15,34.72,14.988,29.214c-.014-7.969,5.607-17.706,12.53-21.7a11.427,11.427,0,0,1,5.816-1.755l-1.9-1.1a5.925,5.925,0,0,0-3.01-.771Z" transform="translate(-10.14 -2.943)" fill="#aeb8ce"/><path d="M26.709,50.518a.972.972,0,0,1-.485-.13l-4.834-2.81a1.616,1.616,0,0,1-.489-.415,88.383,88.383,0,0,1-6.856-9.414c-2.91-4.693-4.392-8.511-4.4-11.348A25.885,25.885,0,0,1,13.372,13.81,26.053,26.053,0,0,1,22.42,4.259a12.177,12.177,0,0,1,6.012-1.816,7.334,7.334,0,0,1,3.727.965l4.719,2.75h.365v.274A.968.968,0,0,1,36.021,7.9a5.4,5.4,0,0,0-2.761-.71,10.329,10.329,0,0,0-5.024,1.562,24.05,24.05,0,0,0-8.353,8.831,23.925,23.925,0,0,0-3.46,11.629c.005,2.511,1.405,6.021,4.161,10.433a87.779,87.779,0,0,0,6.643,9.089l.018.012a.968.968,0,0,1-.088,1.662l-.016.11Zm-2.286-2.334,2.028,1.179c-.447-.54-.944-1.151-1.472-1.82Zm-2.028-2.261.295.172a73.5,73.5,0,0,1-4.708-7.048c-2.312-4.008-3.487-7.316-3.493-9.832a25.884,25.884,0,0,1,3.731-12.592,26,26,0,0,1,9.049-9.546A13.4,13.4,0,0,1,31.7,5.383l-.516-.3a5.418,5.418,0,0,0-2.72-.7h-.038a10.435,10.435,0,0,0-5.043,1.557,24.089,24.089,0,0,0-8.349,8.834,23.925,23.925,0,0,0-3.46,11.624c.011,2.516,1.414,6.03,4.169,10.441a87.629,87.629,0,0,0,6.613,9.055ZM34.349,6.272a6.289,6.289,0,0,1,1.377.374l-.62-.361Z" transform="translate(-10.14 -2.943)" fill="#aeb8ce"/><g transform="translate(4.848 2.809)"><path d="M26.433,49.72a1.28,1.28,0,0,1-1-.458c-4.155-5.044-11.12-14.4-11.143-20.449-.023-7.969,5.6-17.708,12.54-21.711,3.443-1.989,6.709-2.3,9.193-.871s3.849,4.388,3.861,8.345c.011,6.305-7.622,25.153-10.9,32.963a3.991,3.991,0,0,1-1.576,1.9,1.957,1.957,0,0,1-.969.286ZM32.575,6.282A10.749,10.749,0,0,0,27.3,7.911c-6.68,3.854-12.1,13.229-12.072,20.9.022,5.974,7.646,15.873,10.924,19.852.208.243.581.079.785-.038a3.089,3.089,0,0,0,1.182-1.449c2.543-6.051,10.843-26.291,10.831-32.6-.01-3.609-1.214-6.285-3.391-7.536a5.9,5.9,0,0,0-2.981-.76Z" transform="translate(-14.289 -5.347)" fill="#aeb8ce"/><path d="M26.433,50.22h-.343l-.013-.034a1.772,1.772,0,0,1-1.026-.6l0-.006a89.406,89.406,0,0,1-7.163-9.905c-2.707-4.455-4.084-8.108-4.095-10.86A25.819,25.819,0,0,1,17.516,16.22a26.025,26.025,0,0,1,9.063-9.552,12.1,12.1,0,0,1,6-1.822,7.3,7.3,0,0,1,3.691.951c2.64,1.518,4.1,4.635,4.112,8.777.005,2.786-1.424,8.2-4.246,16.087-2.258,6.312-4.889,12.767-6.7,17.071a4.5,4.5,0,0,1-1.787,2.134A2.464,2.464,0,0,1,26.433,50.22ZM32.575,6.782a10.342,10.342,0,0,0-5.028,1.563A24.064,24.064,0,0,0,19.18,17.18a23.857,23.857,0,0,0-3.456,11.629c.009,2.49,1.41,5.993,4.165,10.411a90.663,90.663,0,0,0,6.592,9.06.882.882,0,0,0,.2-.09,2.619,2.619,0,0,0,.971-1.211c1.366-3.251,4.01-9.678,6.363-16.178,2.9-8.013,4.432-13.623,4.427-16.223-.01-3.423-1.125-5.946-3.14-7.1a5.405,5.405,0,0,0-2.732-.694Z" transform="translate(-14.289 -5.347)" fill="#aeb8ce"/></g></g><g transform="translate(-12383.523 -11722.549)"><path d="M23.4,28.2a3.71,3.71,0,0,1-1.876-.484c-1.339-.77-2.078-2.353-2.085-4.458a14.4,14.4,0,0,1,6.521-11.3c1.841-1.063,3.6-1.223,4.945-.445s2.079,2.353,2.086,4.455a14.4,14.4,0,0,1-6.522,11.3A6.232,6.232,0,0,1,23.4,28.2Zm3.028-15.431a13.36,13.36,0,0,0-6.053,10.486c0,1.758.579,3.054,1.615,3.65s2.471.442,4.012-.447a13.36,13.36,0,0,0,6.054-10.485c0-1.755-.579-3.05-1.616-3.647s-2.473-.444-4.012.444Z" transform="translate(-19.439 -11.031)" fill="#aeb8ce"/><path d="M23.4,28.7a4.2,4.2,0,0,1-2.126-.551c-1.5-.862-2.328-2.6-2.335-4.89a13.685,13.685,0,0,1,1.97-6.674,13.781,13.781,0,0,1,4.8-5.058,6.674,6.674,0,0,1,3.315-1,4.207,4.207,0,0,1,2.13.553c1.5.863,2.329,2.6,2.336,4.887a13.682,13.682,0,0,1-1.971,6.674,13.781,13.781,0,0,1-4.8,5.058A6.685,6.685,0,0,1,23.4,28.7Zm3.278-15.5a11.823,11.823,0,0,0-4.1,4.342,11.725,11.725,0,0,0-1.7,5.709c0,1.572.489,2.715,1.364,3.218a2.3,2.3,0,0,0,1.164.292,4.858,4.858,0,0,0,2.348-.739,11.823,11.823,0,0,0,4.1-4.342,11.723,11.723,0,0,0,1.7-5.709c0-1.569-.489-2.711-1.366-3.216a2.316,2.316,0,0,0-1.169-.293,4.849,4.849,0,0,0-2.343.737h0Z" transform="translate(-19.439 -11.031)" fill="#aeb8ce"/></g></g><g transform="translate(46.481 202)"><g transform="translate(-120)"><path d="M61.7,104c-3.6-1-13,2.5-13.8,8.6s3.4,25.9,7.7,24.9C59.9,136.6,67.4,105.6,61.7,104Z" fill="#dd876b"/><rect width="108.3" height="136.6" rx="10.7" transform="translate(61.4 28.8)" fill="#283847"/><rect width="98.1" height="125.5" rx="10.7" transform="translate(66.6 34.4)" fill="#fff"/><path d="M120.9,8.2A7.493,7.493,0,0,0,115.6,6a7.6,7.6,0,0,0-7.6,7.6V26.9a7.6,7.6,0,1,0,15.2,0V13.6A7.157,7.157,0,0,0,121,8.3ZM120,21.9a4.4,4.4,0,0,1-8.8,0V14.1a4.439,4.439,0,0,1,4.4-4.4c2.4,0,2.3.5,3.1,1.3a4.387,4.387,0,0,1,1.3,3.1v7.8Z" fill="#f9b437"/><path d="M141.3,34.4H89.8a12.463,12.463,0,0,1,3.7-8.9,12.639,12.639,0,0,1,8.9-3.7h26.2a12.7,12.7,0,0,1,12.6,12.7Z" fill="#fac64a"/><path d="M130.6,22.1H100.4a7.1,7.1,0,0,1,2.2-5.2,7.5,7.5,0,0,1,5.2-2.2h15.4a7.383,7.383,0,0,1,7.4,7.4Z" fill="#f9b437"/><path d="M54.9,187.9c-.2.8-7-.3-15.3-2.4s-14.8-4.3-14.6-5.1,7,.3,15.3,2.4S55.1,187.1,54.9,187.9Z" fill="#438ac4"/><path d="M47.4,225.9c-1.3-8.2,4.3-46,6.6-50s13.6-25.2,14.5-40.3,7.3-34.4,7.4-36.8a3.654,3.654,0,0,0-3.8-3.6c-1.5.2-6.9,3.1-9.2,11.3s-9.3,21.6-10.1,21.2-1-11.3-.7-12.5c.2-1.2,6.4-6.6,7.3-6.7.9,0,2,1.4,2,1.4V98.7a12.786,12.786,0,0,0-5.6.6c-2.2,1-21.2,13.3-23.5,17.3s2.7,25.3,3.4,31.1-7.5,39.2-15,50.5,26.7,27.9,26.7,27.9Z" fill="#f39e7c"/><path d="M72.8,95.9c-1.3,1.2-2.6,6.6-1.7,7.9,1,1.3,1.9,2.4,2.8,1.6.8-.7,2.6-7.3,1.7-8.6C74.5,95.2,73.3,95.4,72.8,95.9Z" fill="#f6bdba"/><path d="M54.9,187.9c-.3,3.8-2.2,23.9-4.3,46.3H7.3c8.8-26.8,17.4-52.7,17.7-53.7a8.415,8.415,0,0,0,2.8,1.5c.5.2,1.1.4,1.7.6a.367.367,0,0,1,.3.1,70.541,70.541,0,0,0,6.8,2,1.421,1.421,0,0,1,.6.2,135.649,135.649,0,0,0,14,2.9c1.8.2,3.2.3,3.7,0Z" fill="#5ea6d1"/><path d="M26.7,185.3a27.436,27.436,0,0,1-.9,3.9c-.3,1.3-.7,2.6-1.1,3.8-.4,1.3-.8,2.5-1.3,3.8-.5,1.2-1,2.5-1.6,3.7l.9-3.9c.4-1.3.7-2.5,1.1-3.8s.8-2.5,1.3-3.8c.5-1.2.9-2.5,1.5-3.7Z" fill="#438ac4"/><path d="M33.2,186.8a26.62,26.62,0,0,1-.7,3.9l-.9,3.9c-.3,1.3-.7,2.6-1.1,3.8-.4,1.3-.9,2.5-1.4,3.7.2-1.3.4-2.6.7-3.9s.6-2.6,1-3.9c.3-1.3.7-2.6,1.1-3.8.4-1.3.8-2.5,1.3-3.8Z" fill="#438ac4"/><path d="M39.6,188.4a27.331,27.331,0,0,1-.5,4c-.2,1.3-.5,2.6-.8,3.9s-.6,2.6-1,3.9-.8,2.5-1.2,3.8a29.824,29.824,0,0,1,.6-4c.2-1.3.5-2.6.8-3.9s.6-2.6,1-3.9a24.01,24.01,0,0,1,1.2-3.8Z" fill="#438ac4"/><path d="M46,189.9a26.929,26.929,0,0,1-.3,4c-.1,1.3-.3,2.6-.5,3.9s-.5,2.6-.7,3.9c-.3,1.3-.6,2.6-1,3.9,0-1.3.2-2.7.3-4,.2-1.3.3-2.6.6-3.9.2-1.3.5-2.6.7-3.9Z" fill="#438ac4"/><path d="M52.4,191.4a26.929,26.929,0,0,1-.3,4,26.291,26.291,0,0,1-.6,3.9c-.2,1.3-.5,2.6-.8,3.9s-.6,2.6-1,3.9a27.1,27.1,0,0,1,.4-4l.6-3.9c.2-1.3.5-2.6.7-3.9l.9-3.9Z" fill="#438ac4"/><path d="M151.7,55.2h-57a.645.645,0,0,1-.6-.6h0a.645.645,0,0,1,.6-.6h57a.645.645,0,0,1,.6.6h0A.645.645,0,0,1,151.7,55.2Z" fill="#283847"/><path d="M138.5,59.5H94.7a.645.645,0,0,1-.6-.6h0a.645.645,0,0,1,.6-.6h43.8a.645.645,0,0,1,.6.6h0A.645.645,0,0,1,138.5,59.5Z" fill="#283847"/><path d="M111.1,63.7H94.7a.645.645,0,0,1-.6-.6h0a.645.645,0,0,1,.6-.6h16.4a.645.645,0,0,1,.6.6h0A.645.645,0,0,1,111.1,63.7Z" fill="#283847"/><path d="M151.7,74.2h-57a.645.645,0,0,1-.6-.6h0a.645.645,0,0,1,.6-.6h57a.645.645,0,0,1,.6.6h0A.645.645,0,0,1,151.7,74.2Z" fill="#283847"/><path d="M138.5,78.5H94.7a.645.645,0,0,1-.6-.6h0a.645.645,0,0,1,.6-.6h43.8a.645.645,0,0,1,.6.6h0A.645.645,0,0,1,138.5,78.5Z" fill="#283847"/><path d="M111.1,82.7H94.7a.645.645,0,0,1-.6-.6h0a.645.645,0,0,1,.6-.6h16.4a.645.645,0,0,1,.6.6h0A.645.645,0,0,1,111.1,82.7Z" fill="#283847"/><path d="M151.7,93.2h-57a.645.645,0,0,1-.6-.6h0a.645.645,0,0,1,.6-.6h57a.645.645,0,0,1,.6.6h0A.645.645,0,0,1,151.7,93.2Z" fill="#283847"/><path d="M138.5,97.4H94.7a.645.645,0,0,1-.6-.6h0a.645.645,0,0,1,.6-.6h43.8a.645.645,0,0,1,.6.6h0A.645.645,0,0,1,138.5,97.4Z" fill="#283847"/><path d="M111.1,101.7H94.7a.645.645,0,0,1-.6-.6h0a.645.645,0,0,1,.6-.6h16.4a.645.645,0,0,1,.6.6h0A.645.645,0,0,1,111.1,101.7Z" fill="#283847"/><path d="M87.6,63.2H78.8V54.4h8.8Zm-8.2-.7h7.5V55H79.4Z" fill="#283847"/><path d="M86.8,52.5a7.458,7.458,0,0,0-.7,1.2c-.5.8-.9,1.7-1.3,2.5s-.8,1.7-1.2,2.6c-.2.5-.4,1-.6,1.6h-.1a4.348,4.348,0,0,0-.4-.7l-.4-.6c-.6-.7-1.2-1.5-1.9-2.2.3.9.7,1.7,1.1,2.6l.3.6.3.6.3.6.3.6.6,1.1.5-1.1c.4-.8.8-1.7,1.2-2.6s.7-1.7,1.1-2.6l.9-2.7c.1-.4.3-.9.4-1.4s.2-.9.3-1.4c-.3.4-.5.8-.8,1.2Z" fill="#5b95d6"/><path d="M87.6,82.2H78.8V73.4h8.8Zm-8.2-.7h7.5V74H79.4Z" fill="#283847"/><path d="M86.8,71.4a7.458,7.458,0,0,0-.7,1.2c-.5.8-.9,1.7-1.3,2.5s-.8,1.7-1.2,2.6c-.2.5-.4,1-.6,1.6h-.1a4.348,4.348,0,0,0-.4-.7l-.4-.6c-.6-.7-1.2-1.5-1.9-2.2.3.9.7,1.7,1.1,2.6l.3.6.3.6.3.6.3.6.6,1.1.5-1.1c.4-.8.8-1.7,1.2-2.6s.7-1.7,1.1-2.6l.9-2.7c.1-.4.3-.9.4-1.4s.2-.9.3-1.4c-.3.4-.5.8-.8,1.2Z" fill="#5b95d6"/><path d="M87.6,101.1H78.8V92.3h8.8Zm-8.2-.6h7.5V93H79.4Z" fill="#283847"/><path d="M86.8,90.4a7.458,7.458,0,0,0-.7,1.2c-.5.8-.9,1.7-1.3,2.5s-.8,1.7-1.2,2.6c-.2.5-.4,1-.6,1.6h-.1a4.348,4.348,0,0,0-.4-.7l-.4-.6c-.6-.7-1.2-1.5-1.9-2.2.3.9.7,1.7,1.1,2.6l.3.6.3.6.3.6.3.6.6,1.1.5-1.1c.4-.8.8-1.7,1.2-2.6s.7-1.7,1.1-2.6l.9-2.7c.1-.4.3-.9.4-1.4s.2-.9.3-1.4c-.3.4-.5.8-.8,1.2Z" fill="#5b95d6"/><path d="M151.7,112.1h-57a.645.645,0,0,1-.6-.6h0a.645.645,0,0,1,.6-.6h57a.645.645,0,0,1,.6.6h0A.645.645,0,0,1,151.7,112.1Z" fill="#283847"/><path d="M138.5,116.4H94.7a.645.645,0,0,1-.6-.6h0a.645.645,0,0,1,.6-.6h43.8a.645.645,0,0,1,.6.6h0A.645.645,0,0,1,138.5,116.4Z" fill="#283847"/><path d="M111.1,120.6H94.7a.645.645,0,0,1-.6-.6h0a.645.645,0,0,1,.6-.6h16.4a.645.645,0,0,1,.6.6h0A.645.645,0,0,1,111.1,120.6Z" fill="#283847"/><path d="M151.7,131.1h-57a.645.645,0,0,1-.6-.6h0a.645.645,0,0,1,.6-.6h57a.645.645,0,0,1,.6.6h0A.645.645,0,0,1,151.7,131.1Z" fill="#283847"/><path d="M138.5,135.4H94.7a.645.645,0,0,1-.6-.6h0a.645.645,0,0,1,.6-.6h43.8a.645.645,0,0,1,.6.6h0A.645.645,0,0,1,138.5,135.4Z" fill="#283847"/><path d="M111.1,139.6H94.7a.645.645,0,0,1-.6-.6h0a.645.645,0,0,1,.6-.6h16.4a.645.645,0,0,1,.6.6h0A.645.645,0,0,1,111.1,139.6Z" fill="#283847"/><path d="M87.6,120.1H78.8v-8.8h8.8Zm-8.2-.7h7.5v-7.5H79.4Z" fill="#283847"/><path d="M87.6,139.1H78.8v-8.8h8.8Zm-8.2-.7h7.5v-7.5H79.4Z" fill="#283847"/><path d="M179.2,201c.3.7,7.1-1.4,15.3-4.7,8.1-3.3,14.5-6.7,14.2-7.4s-7.1,1.4-15.3,4.7C185.3,196.9,178.9,200.3,179.2,201Z" fill="#438ac4"/><path d="M166,117.3l10.4-1.5,16.5,13.4-3.8,24.4L178.7,149Z" fill="#dd876b"/><path d="M163,122.4c-3,5.9-10,19.4-9.8,21.2.2,1.9,3.8,2.8,8.2.8-1.9,4.6-3.9,10-3.1,11.4s3.6,3,6.2-.6,7.8-13.7,7.8-13.7L163,122.3Z" fill="#dd876b"/><path d="M149,120.9c.4,1.4,3.1,4.5,6,4.2s18-5,20.4-3.7c2.4,1.2,7.7,5.5,8.3,7.2s-.2,19.8-.2,19.8,18.9,12.1,19.9,6c.9-6.1,4.2-22.8,2.4-25.9s-20.1-17.3-24.7-18.5-21.1,4-22.3,3.8-10,6-9.8,7Z" fill="#f39e7c"/><path d="M245.7,125.6v.5a4.2,4.2,0,0,1-.9,1.4,2.52,2.52,0,0,1-2,.6l-15.7-1.4a2.721,2.721,0,0,1-2.5-3,2.417,2.417,0,0,1,1-1.9,2.52,2.52,0,0,1,2-.6l15.7,1.4a2.765,2.765,0,0,1,2.5,2.4v.7Z" fill="#969eae"/><path d="M245.7,125.6v.5a2.9,2.9,0,0,0-2.5-2.1h-1.5c0-.1.1-1.2.1-1.2h1.5a3.148,3.148,0,0,1,2.5,2.2v.7Z" fill="#fff" opacity="0.5"/><rect width="88.6" height="5.6" transform="translate(152.92 114.389) rotate(5.3)" fill="#47536b"/><path d="M152.6,119.9l-9-2.8.2-1.8,9.3-1Z" fill="#969eae"/><path d="M143.6,117l-2.4-.7v-.5l2.6-.3Z" fill="#47536b"/><rect width="2.1" height="5.6" transform="translate(205.71 119.272) rotate(5.3)" fill="#969eae"/><path d="M238.1,130.6l-25.9-2.4a2.713,2.713,0,0,1-2.2-1.4l.8-.5a1.859,1.859,0,0,0,1.5.9l25.9,2.4a1.992,1.992,0,0,0,2.1-1.7h.9a2.768,2.768,0,0,1-3.1,2.6Z" fill="#969eae"/><path d="M211.6,126.5a.851.851,0,1,0-.9.8A.817.817,0,0,0,211.6,126.5Z" fill="#969eae"/><path d="M144.1,115.7l8.6-1-.1,1.4-8.5-.1Z" fill="#fff" opacity="0.5"/><path d="M211.8,203.8h0c-1.1,6.6-10.3,21.5-16,30.3h-6c-1.2-6.4-3-15.6-4.3-21.7h0c-.4-1.9-.8-3.5-1.1-4.6-.1-.4-.3-.9-.4-1.4h0c-.6-1.8-1.2-3.8-2-5.8v-.1c-.2-.5-.3-.9-.5-1.4-2.6-6.8-5.8-14-7.7-18.8a123.321,123.321,0,0,1-7.9-27c-1-6.2-1.1-11.1-1.9-16-.6-4.2-1.5-8.3-2.3-12.1a9.364,9.364,0,0,0-.4-1.6c-.2-1.1-.5-2.1-.7-3.1-.5-2.1-.9-4-1.3-5.7a3.553,3.553,0,0,0-.2-1,2.2,2.2,0,0,0-.1-.8h0c-.6-3.6-.7-6,.3-6.5a3.707,3.707,0,0,1,1.5-.4,8.351,8.351,0,0,1,7.2,5.6c.3.8.8,2.2,1.5,4a3.552,3.552,0,0,0,.4.9c.6,1.4,1.2,3,1.9,4.7,0,0,0,.2.1.2,3.7,8.8,8.7,20.1,10.5,20.6.7.2,1.1-.4,1.4-1.5h0c.7-2.7.2-8.2.2-8.9h0s3.5,2.9,7.5,6.7c5.3,5,11.5,11.5,12.1,15h0v1c-1.2,5.4-1.9,15.8-1,21.1a123.667,123.667,0,0,0,3.6,13.5c.2.5.3,1,.5,1.4h0c.6,1.6,1.1,3.2,1.7,4.6h0a26.256,26.256,0,0,0,3.1,5.9h0a4.875,4.875,0,0,1,.3.7h0a6.62,6.62,0,0,1,0,2Z" fill="#f39e7c"/><path d="M161.1,106.4c1.9,1.1,2.9,7,2.2,8s-2.9,1.6-3.7.5c-.9-1-1.7-7.3-.7-8.3s1.6-.7,2.2-.3Z" fill="#f6bdba"/><path d="M231.6,234.2H187.5c-3.7-14.6-7.1-28.2-8.3-33.2a8.49,8.49,0,0,0,2.7-.4,105.629,105.629,0,0,0,14.8-5.3c.2-.1.5-.2.7-.3.2,0,.4-.2.6-.3h0c.1,0,.2-.1.4-.2q3.15-1.35,5.7-2.7c.1,0,.2-.1.3-.2a14.208,14.208,0,0,0,2.2-1.3,6.128,6.128,0,0,0,2-1.6c.6,1.1,11.6,23,22.9,45.3Z" fill="#5ea6d1"/><path d="M183.4,203.8a27.916,27.916,0,0,1,1.4,3.7c.4,1.3.8,2.5,1.2,3.8s.7,2.6,1,3.9.5,2.6.7,3.9c-.5-1.2-1-2.5-1.4-3.8s-.8-2.5-1.2-3.8-.7-2.6-1-3.9-.6-2.6-.8-3.9Z" fill="#438ac4"/><path d="M189.5,201.5c.6,1.2,1.1,2.4,1.6,3.6s.9,2.5,1.4,3.7c.4,1.3.8,2.5,1.2,3.8a27.437,27.437,0,0,1,.9,3.9c-.6-1.2-1.1-2.4-1.6-3.7-.5-1.2-.9-2.5-1.3-3.7-.4-1.3-.8-2.5-1.2-3.8s-.7-2.6-1-3.9Z" fill="#438ac4"/><path d="M195.7,199.2c.7,1.2,1.2,2.4,1.8,3.6.5,1.2,1,2.4,1.5,3.7.5,1.2.9,2.5,1.3,3.8s.8,2.5,1.1,3.9c-.6-1.2-1.2-2.4-1.7-3.6s-1-2.5-1.5-3.7-.9-2.5-1.3-3.8-.8-2.5-1.1-3.8Z" fill="#438ac4"/><path d="M201.9,196.9a39.728,39.728,0,0,1,2,3.5c.6,1.2,1.2,2.4,1.7,3.6s1.1,2.4,1.5,3.7c.5,1.2.9,2.5,1.3,3.8a39.012,39.012,0,0,1-1.9-3.5c-.6-1.2-1.2-2.4-1.7-3.6s-1.1-2.4-1.6-3.7c-.5-1.2-1-2.5-1.4-3.7Z" fill="#438ac4"/><path d="M208.1,194.6a39.728,39.728,0,0,1,2,3.5c.6,1.2,1.2,2.4,1.7,3.6s1.1,2.4,1.5,3.7c.5,1.2.9,2.5,1.3,3.8a39.012,39.012,0,0,1-1.9-3.5c-.6-1.2-1.2-2.4-1.7-3.6s-1.1-2.4-1.5-3.7c-.5-1.2-1-2.5-1.4-3.8Z" fill="#438ac4"/></g><g transform="translate(375.143 74.449)"><g transform="translate(12.8 11)"><ellipse cx="90.8" cy="0.935" rx="90.8" ry="0.935" transform="translate(0 67.681)" fill="#93c0e5"/><g transform="translate(47.851)"><path d="M270.73,56V92.4H203.5v1.709h70.68V56Z" transform="translate(-189.861 -41.49)" fill="#93c0e5"/><rect width="82.997" height="51.398" fill="#d3e8f4"/><rect width="82.997" height="6.03" transform="translate(0 45.368)" fill="#93c0e5"/><g transform="translate(84.287 12.994)"><path d="M472.063,82.9v6.8A1.211,1.211,0,0,1,470.87,90.9H422.6V53.235a1.7,1.7,0,0,1,.032-.419,1.926,1.926,0,0,1,1-1.29,2.076,2.076,0,0,1,.9-.226H436.11a9.259,9.259,0,0,1,7.319,3.547l.935,1.161,10.9,13.768a10.814,10.814,0,0,0,4.385,3.289l8.029,3.289a7.057,7.057,0,0,1,4.256,5.256A8.327,8.327,0,0,1,472.063,82.9Z" transform="translate(-422.6 -51.3)" fill="#f99300"/><path d="M453.288,131.593H449.1a1.087,1.087,0,0,1-1.1-1.1h0a1.087,1.087,0,0,1,1.1-1.1h4.192a1.087,1.087,0,0,1,1.1,1.1h0A1.087,1.087,0,0,1,453.288,131.593Z" transform="translate(-439.81 -104.217)" fill="#363c48"/><path d="M567.645,146.658v4.579h-2.064a1.171,1.171,0,0,1-1.129-.871l-.742-3.1a1.509,1.509,0,0,1,1.483-1.87h2.322a4.376,4.376,0,0,1,.1.935v.355Z" transform="translate(-518.182 -115.058)" fill="#dbe2ee"/><g transform="translate(0.097)" opacity="0.2"><path d="M444.568,56.008c-4.1-2.805-6.771-3.192-8.351-3.192H422.9a1.939,1.939,0,0,1,1.9-1.515h11.576a9.259,9.259,0,0,1,7.32,3.547l.935,1.161Z" transform="translate(-422.9 -51.3)" fill="#fff"/></g><g transform="translate(46.722 31.277)" opacity="0.3"><path d="M570.241,148.622v.322h-2.418a.323.323,0,0,1-.322-.322.347.347,0,0,1,.322-.322h2.418v.322Z" transform="translate(-567.5 -148.3)" fill="#fff"/></g><g transform="translate(47.012 32.728)" opacity="0.3"><path d="M570.851,152.8v.677h-2.128a.323.323,0,0,1-.322-.322.347.347,0,0,1,.322-.322h2.128Z" transform="translate(-568.4 -152.8)" fill="#fff"/></g><g transform="translate(47.27 34.179)" opacity="0.3"><path d="M571.393,157.3v.677h-1.87a.323.323,0,0,1-.322-.322.347.347,0,0,1,.322-.322h1.87Z" transform="translate(-569.2 -157.3)" fill="#fff"/></g><path d="M423.732,52V91.4H422.7V53.709a1.7,1.7,0,0,1,.032-.419A1.926,1.926,0,0,1,423.732,52Z" transform="translate(-422.668 -51.774)" fill="#ed8129"/><g transform="translate(7.352 22.636)" opacity="0"><path d="M445.4,121.5v3.644h24.054l-.806-3.547Z" transform="translate(-445.4 -121.5)" fill="#fff"/></g><rect width="0.806" height="18.412" transform="translate(6.578 21.185)" fill="#ed8129"/><path d="M513.179,127.448h-.806V117.13a2,2,0,0,0-.419-1.29l-2.354-3.289.645-.451,2.354,3.289a3.117,3.117,0,0,1,.548,1.773v10.318Z" transform="translate(-481.547 -92.495)" fill="#ed8129"/><g transform="translate(6.578 6.61)"><path d="M465.8,88.735H445.909a1.72,1.72,0,0,1-1.709-1.709V75.031A2.023,2.023,0,0,1,446.231,73H455.1a2.328,2.328,0,0,1,1.935,1l1.838,2.547,7.706,10.608a1.017,1.017,0,0,1-.806,1.612Z" transform="translate(-443.813 -72.613)" fill="#305d6d"/><path d="M457.532,90.974V83.558A1.259,1.259,0,0,1,458.79,82.3h5.482a1.424,1.424,0,0,1,1.193.613l5.933,8.126a.635.635,0,0,1-.516,1H458.564a1.074,1.074,0,0,1-1.064-1.064Z" transform="translate(-452.825 -78.914)" fill="#5e8696"/><g transform="translate(0.387 0.355)" opacity="0.1"><path d="M458.9,76.447a68.192,68.192,0,0,0-4.869,12.221h-8.126a1.72,1.72,0,0,1-1.709-1.709V85.121c0-2.644,2.805-8.8,4.482-12.221H455.1a2.328,2.328,0,0,1,1.935,1l1.838,2.547Z" transform="translate(-444.2 -72.9)" fill="#e4eaf7"/></g><path d="M464.991,88.341H445.1a2.092,2.092,0,0,1-2.1-2.1V74.251a2.449,2.449,0,0,1,2.451-2.451h8.867a2.724,2.724,0,0,1,2.257,1.161l9.577,13.156a1.392,1.392,0,0,1,.129,1.451,1.36,1.36,0,0,1-1.258.774ZM445.418,72.574a1.651,1.651,0,0,0-1.644,1.644V86.213a1.328,1.328,0,0,0,1.322,1.322h19.895a.624.624,0,0,0,.548-.322.593.593,0,0,0-.064-.645L455.9,73.412a2.064,2.064,0,0,0-1.612-.838Z" transform="translate(-443 -71.8)" fill="#363c48"/><path d="M498.163,93.4h0a.97.97,0,0,1,.967.967v9.706a.97.97,0,0,1-.967.967h0a3.083,3.083,0,0,1-3.063-3.063V96.5a3.083,3.083,0,0,1,3.063-3.063Z" transform="translate(-478.301 -86.435)" fill="#363c48"/></g></g><g transform="translate(11.221 47.883)"><rect width="122.529" height="7.835" rx="2" transform="translate(0 4.708)" fill="#363c48"/><path d="M218.248,185.767h-1.064a.5.5,0,0,1-.484-.484h0a.5.5,0,0,1,.484-.484h1.064a.5.5,0,0,1,.484.484h0A.5.5,0,0,1,218.248,185.767Z" transform="translate(-210.025 -176.642)" fill="#ec6b18"/><path d="M316.148,185.767h-1.064a.5.5,0,0,1-.484-.484h0a.5.5,0,0,1,.484-.484h1.064a.5.5,0,0,1,.484.484h0A.5.5,0,0,1,316.148,185.767Z" transform="translate(-276.358 -176.642)" fill="#ec6b18"/><path d="M563.848,185.767h-1.064a.5.5,0,0,1-.484-.484h0a.5.5,0,0,1,.484-.484h1.064a.5.5,0,0,1,.484.484h0A.5.5,0,0,1,563.848,185.767Z" transform="translate(-444.189 -176.642)" fill="#ec6b18"/><g transform="translate(10.254)"><path d="M250.145,164.208a12.543,12.543,0,0,0-22.345,7.835h3.031a9.512,9.512,0,1,1,19.024,0h3.031A12.571,12.571,0,0,0,250.145,164.208Z" transform="translate(-227.8 -159.5)" fill="#363c48"/><path d="M252.129,170.577a9.512,9.512,0,0,0-14.929,7.835h19.024A9.519,9.519,0,0,0,252.129,170.577Z" transform="translate(-234.169 -165.869)" fill="#191c21"/><circle cx="8.158" cy="8.158" r="8.158" transform="translate(4.385 4.385)" fill="#363c48"/><circle cx="4.546" cy="4.546" r="4.546" transform="translate(7.997 7.997)" fill="#ccd4e4"/><path d="M260.822,186.27a4.382,4.382,0,0,0-2.644-.838,4.541,4.541,0,0,0-4.546,4.546c0,2.515.322,1.9.871,2.644a4.461,4.461,0,0,1-1.9-3.676,4.541,4.541,0,0,1,4.546-4.546c2.515,0,2.87.742,3.676,1.9Z" transform="translate(-244.603 -176.371)" fill="#9aa5b9"/></g><g transform="translate(92.122)"><path d="M504.045,164.208a12.543,12.543,0,0,0-22.345,7.835h3.031a9.512,9.512,0,1,1,19.024,0h3.031A12.571,12.571,0,0,0,504.045,164.208Z" transform="translate(-481.7 -159.5)" fill="#363c48"/><path d="M506.029,170.577a9.512,9.512,0,0,0-14.929,7.835h19.024A9.519,9.519,0,0,0,506.029,170.577Z" transform="translate(-488.069 -165.869)" fill="#191c21"/><circle cx="8.158" cy="8.158" r="8.158" transform="translate(4.385 4.385)" fill="#363c48"/><circle cx="4.546" cy="4.546" r="4.546" transform="translate(7.997 7.997)" fill="#ccd4e4"/><path d="M514.722,186.27a4.381,4.381,0,0,0-2.644-.838,4.541,4.541,0,0,0-4.547,4.546c0,2.515.322,1.9.871,2.644a4.462,4.462,0,0,1-1.9-3.676,4.541,4.541,0,0,1,4.546-4.546c2.515,0,2.87.742,3.676,1.9Z" transform="translate(-498.503 -176.371)" fill="#9aa5b9"/></g></g></g><g transform="translate(4.192 27.988)"><g transform="translate(49.85 21.894)"><rect width="9.867" height="18.702" fill="#d7834d"/><rect width="15.187" height="18.702" transform="translate(9.899)" fill="#e7b47c"/><rect width="3.708" height="3.708" transform="translate(15.639)" fill="#fff" opacity="0.5"/></g><g transform="translate(26.215 8.448)"><rect width="12.479" height="32.148" fill="#d7834d"/><rect width="17.896" height="32.148" transform="translate(12.479)" fill="#e7b47c"/><rect width="3.515" height="3.515" transform="translate(19.669)" fill="#fff" opacity="0.5"/><path d="M163.7,198.557v6.578H145.8V196.3h13.672Z" transform="translate(-133.321 -172.987)" fill="#e2a76d"/></g><g transform="translate(6.933)"><rect width="9.351" height="17.734" fill="#d7834d"/><rect width="14.413" height="17.734" transform="translate(9.351)" fill="#e7b47c"/><rect width="3.515" height="3.515" transform="translate(14.8)" fill="#fff" opacity="0.5"/><rect width="14.413" height="0.709" transform="translate(9.351 17.025)" fill="#e2a76d"/></g><g transform="translate(0 17.734)"><rect width="11.415" height="22.861" fill="#d7834d"/><rect width="22.281" height="22.861" transform="translate(11.415)" fill="#e7b47c"/><rect width="3.515" height="3.515" transform="translate(20.798)" fill="#fff" opacity="0.5"/><path d="M83.481,196.3v8.835H61.2v-4.224l6.868-4.611Z" transform="translate(-49.785 -182.274)" fill="#e2a76d"/></g><g transform="translate(18.283 32.212)"><rect width="5.675" height="8.416" fill="#d7834d"/><rect width="28.375" height="8.416" transform="translate(5.675)" fill="#e7b47c"/><rect width="3.515" height="3.515" transform="translate(18.121)" fill="#fff" opacity="0.5"/></g></g></g></g><g transform="translate(15087.289 14659.617)"><g transform="translate(-13944.343 -14614.982)"><path d="M596.172,658.4h0a9.843,9.843,0,1,0-15.236,0h0l.057.065q.139.167.285.328l7.278,8.364,7.278-8.364q.146-.161.285-.328Zm-7.621-12.266A5.548,5.548,0,1,1,583,651.682,5.548,5.548,0,0,1,588.551,646.133Z" transform="translate(-578.708 -642.323)" fill="#7c40e3"/><path d="M1009.841,652.161a9.843,9.843,0,0,0-9.843-9.843v3.81a5.548,5.548,0,0,1,0,11.1v9.927l7.278-8.364q.146-.161.285-.328l.057-.065h0A9.8,9.8,0,0,0,1009.841,652.161Z" transform="translate(-990.155 -642.318)" fill="#7c40e3"/></g><g transform="translate(-13941.419 -14588.289)" opacity="0.1"><ellipse cx="6.919" cy="1.019" rx="6.919" ry="1.019" transform="translate(0 0)" fill="#7c40e3"/><ellipse cx="6.827" cy="1.007" rx="6.827" ry="1.007" transform="translate(0.092 0.01)" fill="#7c40e3"/><ellipse cx="6.736" cy="0.995" rx="6.736" ry="0.995" transform="translate(0.183 0.02)" fill="#7c40e3"/><ellipse cx="6.644" cy="0.982" rx="6.644" ry="0.982" transform="translate(0.275 0.03)" fill="#7c40e3"/><ellipse cx="6.552" cy="0.97" rx="6.552" ry="0.97" transform="translate(0.367 0.04)" fill="#7c40e3"/><ellipse cx="6.461" cy="0.958" rx="6.461" ry="0.958" transform="translate(0.459 0.05)" fill="#7c40e3"/><ellipse cx="6.369" cy="0.946" rx="6.369" ry="0.946" transform="translate(0.55 0.06)" fill="#7c40e3"/><ellipse cx="6.277" cy="0.934" rx="6.277" ry="0.934" transform="translate(0.642 0.07)" fill="#7c40e3"/><ellipse cx="6.186" cy="0.922" rx="6.186" ry="0.922" transform="translate(0.734 0.08)" fill="#7c40e3"/><ellipse cx="6.094" cy="0.91" rx="6.094" ry="0.91" transform="translate(0.825 0.09)" fill="#7c40e3"/><ellipse cx="6.002" cy="0.898" rx="6.002" ry="0.898" transform="translate(0.917 0.1)" fill="#7c40e3"/><ellipse cx="5.911" cy="0.886" rx="5.911" ry="0.886" transform="translate(1.009 0.11)" fill="#7c40e3"/><ellipse cx="5.819" cy="0.874" rx="5.819" ry="0.874" transform="translate(1.1 0.12)" fill="#7c40e3"/><ellipse cx="5.727" cy="0.861" rx="5.727" ry="0.861" transform="translate(1.192 0.13)" fill="#7c40e3"/><ellipse cx="5.635" cy="0.849" rx="5.635" ry="0.849" transform="translate(1.284 0.14)" fill="#7c40e3"/><ellipse cx="5.544" cy="0.837" rx="5.544" ry="0.837" transform="translate(1.375 0.15)" fill="#7c40e3"/><ellipse cx="5.452" cy="0.825" rx="5.452" ry="0.825" transform="translate(1.467 0.16)" fill="#7c40e3"/><ellipse cx="5.36" cy="0.813" rx="5.36" ry="0.813" transform="translate(1.559 0.17)" fill="#7c40e3"/><ellipse cx="5.269" cy="0.801" rx="5.269" ry="0.801" transform="translate(1.651 0.18)" fill="#7c40e3"/><ellipse cx="5.177" cy="0.789" rx="5.177" ry="0.789" transform="translate(1.742 0.19)" fill="#7c40e3"/><ellipse cx="5.085" cy="0.777" rx="5.085" ry="0.777" transform="translate(1.834 0.2)" fill="#7c40e3"/><ellipse cx="4.993" cy="0.765" rx="4.993" ry="0.765" transform="translate(1.926 0.21)" fill="#7c40e3"/><ellipse cx="4.902" cy="0.752" rx="4.902" ry="0.752" transform="translate(2.017 0.22)" fill="#7c40e3"/><ellipse cx="4.81" cy="0.74" rx="4.81" ry="0.74" transform="translate(2.109 0.23)" fill="#7c40e3"/><ellipse cx="4.718" cy="0.728" rx="4.718" ry="0.728" transform="translate(2.201 0.24)" fill="#7c40e3"/><ellipse cx="4.627" cy="0.716" rx="4.627" ry="0.716" transform="translate(2.292 0.25)" fill="#7c40e3"/><ellipse cx="4.535" cy="0.704" rx="4.535" ry="0.704" transform="translate(2.384 0.26)" fill="#7c40e3"/><ellipse cx="4.443" cy="0.692" rx="4.443" ry="0.692" transform="translate(2.476 0.27)" fill="#7c40e3"/><ellipse cx="4.352" cy="0.68" rx="4.352" ry="0.68" transform="translate(2.568 0.28)" fill="#7c40e3"/><ellipse cx="4.26" cy="0.668" rx="4.26" ry="0.668" transform="translate(2.659 0.29)" fill="#7c40e3"/><ellipse cx="4.168" cy="0.656" rx="4.168" ry="0.656" transform="translate(2.751 0.299)" fill="#7c40e3"/><ellipse cx="4.077" cy="0.644" rx="4.077" ry="0.644" transform="translate(2.843 0.309)" fill="#7c40e3"/><ellipse cx="3.985" cy="0.631" rx="3.985" ry="0.631" transform="translate(2.934 0.319)" fill="#7c40e3"/><ellipse cx="3.893" cy="0.619" rx="3.893" ry="0.619" transform="translate(3.026 0.329)" fill="#7c40e3"/><ellipse cx="3.801" cy="0.607" rx="3.801" ry="0.607" transform="translate(3.118 0.339)" fill="#7c40e3"/><ellipse cx="3.71" cy="0.595" rx="3.71" ry="0.595" transform="translate(3.209 0.349)" fill="#7c40e3"/><ellipse cx="3.618" cy="0.583" rx="3.618" ry="0.583" transform="translate(3.301 0.359)" fill="#7c40e3"/><ellipse cx="3.526" cy="0.571" rx="3.526" ry="0.571" transform="translate(3.393 0.369)" fill="#7c40e3"/><ellipse cx="3.435" cy="0.559" rx="3.435" ry="0.559" transform="translate(3.485 0.379)" fill="#7c40e3"/><ellipse cx="3.343" cy="0.547" rx="3.343" ry="0.547" transform="translate(3.576 0.389)" fill="#7c40e3"/><ellipse cx="3.251" cy="0.535" rx="3.251" ry="0.535" transform="translate(3.668 0.399)" fill="#7c40e3"/><ellipse cx="3.16" cy="0.522" rx="3.16" ry="0.522" transform="translate(3.76 0.409)" fill="#7c40e3"/><ellipse cx="3.068" cy="0.51" rx="3.068" ry="0.51" transform="translate(3.851 0.419)" fill="#7c40e3"/><ellipse cx="2.976" cy="0.498" rx="2.976" ry="0.498" transform="translate(3.943 0.429)" fill="#7c40e3"/><ellipse cx="2.884" cy="0.486" rx="2.884" ry="0.486" transform="translate(4.035 0.439)" fill="#7c40e3"/><ellipse cx="2.793" cy="0.474" rx="2.793" ry="0.474" transform="translate(4.126 0.449)" fill="#7c40e3"/><ellipse cx="2.701" cy="0.462" rx="2.701" ry="0.462" transform="translate(4.218 0.459)" fill="#7c40e3"/><ellipse cx="2.609" cy="0.45" rx="2.609" ry="0.45" transform="translate(4.31 0.469)" fill="#7c40e3"/><ellipse cx="2.518" cy="0.438" rx="2.518" ry="0.438" transform="translate(4.402 0.479)" fill="#7c40e3"/><ellipse cx="2.426" cy="0.426" rx="2.426" ry="0.426" transform="translate(4.493 0.489)" fill="#7c40e3"/><ellipse cx="2.334" cy="0.413" rx="2.334" ry="0.413" transform="translate(4.585 0.499)" fill="#7c40e3"/><ellipse cx="2.243" cy="0.401" rx="2.243" ry="0.401" transform="translate(4.677 0.509)" fill="#7c40e3"/><ellipse cx="2.151" cy="0.389" rx="2.151" ry="0.389" transform="translate(4.768 0.519)" fill="#7c40e3"/><ellipse cx="2.059" cy="0.377" rx="2.059" ry="0.377" transform="translate(4.86 0.529)" fill="#7c40e3"/><ellipse cx="1.967" cy="0.365" rx="1.967" ry="0.365" transform="translate(4.952 0.539)" fill="#7c40e3"/><ellipse cx="1.876" cy="0.353" rx="1.876" ry="0.353" transform="translate(5.043 0.549)" fill="#7c40e3"/><ellipse cx="1.784" cy="0.341" rx="1.784" ry="0.341" transform="translate(5.135 0.559)" fill="#7c40e3"/><ellipse cx="1.692" cy="0.329" rx="1.692" ry="0.329" transform="translate(5.227 0.569)" fill="#7c40e3"/><ellipse cx="1.601" cy="0.317" rx="1.601" ry="0.317" transform="translate(5.319 0.579)" fill="#7c40e3"/><ellipse cx="1.509" cy="0.305" rx="1.509" ry="0.305" transform="translate(5.41 0.589)" fill="#7c40e3"/><ellipse cx="1.417" cy="0.292" rx="1.417" ry="0.292" transform="translate(5.502 0.599)" fill="#7c40e3"/><ellipse cx="1.326" cy="0.28" rx="1.326" ry="0.28" transform="translate(5.594 0.609)" fill="#7c40e3"/></g></g><g transform="translate(15263.385 14699.46)"><g transform="translate(-13944.343 -14614.982)"><path d="M604.873,666.41h0a14.748,14.748,0,1,0-22.827,0h0l.085.1q.208.25.427.491l10.9,12.531L604.36,667q.219-.241.428-.491Zm-11.418-18.378a8.313,8.313,0,1,1-8.313,8.313A8.313,8.313,0,0,1,593.456,648.032Z" transform="translate(-578.708 -642.323)" fill="#3adcca"/><path d="M1014.746,657.066A14.748,14.748,0,0,0,1000,642.318v5.709a8.313,8.313,0,0,1,0,16.626v14.873l10.9-12.531q.219-.241.428-.491l.085-.1h0A14.687,14.687,0,0,0,1014.746,657.066Z" transform="translate(-985.251 -642.318)" fill="#3adcca"/></g><g transform="translate(-13939.962 -14574.989)" opacity="0.1"><ellipse cx="10.367" cy="1.526" rx="10.367" ry="1.526" transform="translate(0 0)" fill="#fff"/><ellipse cx="10.229" cy="1.508" rx="10.229" ry="1.508" transform="translate(0.137 0.015)" fill="#fcfcfc"/><ellipse cx="10.092" cy="1.49" rx="10.092" ry="1.49" transform="translate(0.275 0.03)" fill="#f9f9f9"/><ellipse cx="9.954" cy="1.472" rx="9.954" ry="1.472" transform="translate(0.412 0.045)" fill="#f6f6f6"/><ellipse cx="9.817" cy="1.454" rx="9.817" ry="1.454" transform="translate(0.55 0.06)" fill="#f3f3f3"/><ellipse cx="9.68" cy="1.436" rx="9.68" ry="1.436" transform="translate(0.687 0.075)" fill="#f0f0f0"/><ellipse cx="9.542" cy="1.418" rx="9.542" ry="1.418" transform="translate(0.824 0.09)" fill="#ededed"/><ellipse cx="9.405" cy="1.399" rx="9.405" ry="1.399" transform="translate(0.962 0.105)" fill="#eaeaea"/><ellipse cx="9.268" cy="1.381" rx="9.268" ry="1.381" transform="translate(1.099 0.12)" fill="#e8e8e8"/><ellipse cx="9.13" cy="1.363" rx="9.13" ry="1.363" transform="translate(1.237 0.135)" fill="#e5e5e5"/><ellipse cx="8.993" cy="1.345" rx="8.993" ry="1.345" transform="translate(1.374 0.15)" fill="#e2e2e2"/><ellipse cx="8.855" cy="1.327" rx="8.855" ry="1.327" transform="translate(1.511 0.165)" fill="#dfdfdf"/><ellipse cx="8.718" cy="1.309" rx="8.718" ry="1.309" transform="translate(1.649 0.18)" fill="#dcdcdc"/><ellipse cx="8.581" cy="1.291" rx="8.581" ry="1.291" transform="translate(1.786 0.195)" fill="#d9d9d9"/><ellipse cx="8.443" cy="1.272" rx="8.443" ry="1.272" transform="translate(1.923 0.21)" fill="#d6d6d6"/><ellipse cx="8.306" cy="1.254" rx="8.306" ry="1.254" transform="translate(2.061 0.224)" fill="#d3d3d3"/><ellipse cx="8.168" cy="1.236" rx="8.168" ry="1.236" transform="translate(2.198 0.239)" fill="#d0d0d0"/><ellipse cx="8.031" cy="1.218" rx="8.031" ry="1.218" transform="translate(2.336 0.254)" fill="#cdcdcd"/><ellipse cx="7.894" cy="1.2" rx="7.894" ry="1.2" transform="translate(2.473 0.269)" fill="#cacaca"/><ellipse cx="7.756" cy="1.182" rx="7.756" ry="1.182" transform="translate(2.61 0.284)" fill="#c7c7c7"/><ellipse cx="7.619" cy="1.164" rx="7.619" ry="1.164" transform="translate(2.748 0.299)" fill="#c4c4c4"/><ellipse cx="7.481" cy="1.146" rx="7.481" ry="1.146" transform="translate(2.885 0.314)" fill="#c1c1c1"/><ellipse cx="7.344" cy="1.127" rx="7.344" ry="1.127" transform="translate(3.023 0.329)" fill="#bebebe"/><ellipse cx="7.207" cy="1.109" rx="7.207" ry="1.109" transform="translate(3.16 0.344)" fill="#bcbcbc"/><ellipse cx="7.069" cy="1.091" rx="7.069" ry="1.091" transform="translate(3.297 0.359)" fill="#b9b9b9"/><ellipse cx="6.932" cy="1.073" rx="6.932" ry="1.073" transform="translate(3.435 0.374)" fill="#b6b6b6"/><ellipse cx="6.795" cy="1.055" rx="6.795" ry="1.055" transform="translate(3.572 0.389)" fill="#b3b3b3"/><ellipse cx="6.657" cy="1.037" rx="6.657" ry="1.037" transform="translate(3.709 0.404)" fill="#b0b0b0"/><ellipse cx="6.52" cy="1.019" rx="6.52" ry="1.019" transform="translate(3.847 0.419)" fill="#adadad"/><ellipse cx="6.382" cy="1" rx="6.382" ry="1" transform="translate(3.984 0.434)" fill="#aaa"/><ellipse cx="6.245" cy="0.982" rx="6.245" ry="0.982" transform="translate(4.122 0.449)" fill="#a7a7a7"/><ellipse cx="6.108" cy="0.964" rx="6.108" ry="0.964" transform="translate(4.259 0.464)" fill="#a4a4a4"/><ellipse cx="5.97" cy="0.946" rx="5.97" ry="0.946" transform="translate(4.396 0.479)" fill="#a1a1a1"/><ellipse cx="5.833" cy="0.928" rx="5.833" ry="0.928" transform="translate(4.534 0.494)" fill="#9e9e9e"/><ellipse cx="5.695" cy="0.91" rx="5.695" ry="0.91" transform="translate(4.671 0.509)" fill="#9b9b9b"/><ellipse cx="5.558" cy="0.892" rx="5.558" ry="0.892" transform="translate(4.809 0.524)" fill="#989898"/><ellipse cx="5.421" cy="0.873" rx="5.421" ry="0.873" transform="translate(4.946 0.539)" fill="#959595"/><ellipse cx="5.283" cy="0.855" rx="5.283" ry="0.855" transform="translate(5.083 0.554)" fill="#929292"/><ellipse cx="5.146" cy="0.837" rx="5.146" ry="0.837" transform="translate(5.221 0.569)" fill="#8f8f8f"/><ellipse cx="5.008" cy="0.819" rx="5.008" ry="0.819" transform="translate(5.358 0.584)" fill="#8d8d8d"/><ellipse cx="4.871" cy="0.801" rx="4.871" ry="0.801" transform="translate(5.496 0.598)" fill="#8a8a8a"/><ellipse cx="4.734" cy="0.783" rx="4.734" ry="0.783" transform="translate(5.633 0.613)" fill="#878787"/><ellipse cx="4.596" cy="0.765" rx="4.596" ry="0.765" transform="translate(5.77 0.628)" fill="#848484"/><ellipse cx="4.459" cy="0.746" rx="4.459" ry="0.746" transform="translate(5.908 0.643)" fill="#818181"/><ellipse cx="4.322" cy="0.728" rx="4.322" ry="0.728" transform="translate(6.045 0.658)" fill="#7e7e7e"/><ellipse cx="4.184" cy="0.71" rx="4.184" ry="0.71" transform="translate(6.182 0.673)" fill="#7b7b7b"/><ellipse cx="4.047" cy="0.692" rx="4.047" ry="0.692" transform="translate(6.32 0.688)" fill="#787878"/><ellipse cx="3.909" cy="0.674" rx="3.909" ry="0.674" transform="translate(6.457 0.703)" fill="#757575"/><ellipse cx="3.772" cy="0.656" rx="3.772" ry="0.656" transform="translate(6.595 0.718)" fill="#727272"/><ellipse cx="3.635" cy="0.638" rx="3.635" ry="0.638" transform="translate(6.732 0.733)" fill="#6f6f6f"/><ellipse cx="3.497" cy="0.619" rx="3.497" ry="0.619" transform="translate(6.869 0.748)" fill="#6c6c6c"/><ellipse cx="3.36" cy="0.601" rx="3.36" ry="0.601" transform="translate(7.007 0.763)" fill="#696969"/><ellipse cx="3.222" cy="0.583" rx="3.222" ry="0.583" transform="translate(7.144 0.778)" fill="#666"/><ellipse cx="3.085" cy="0.565" rx="3.085" ry="0.565" transform="translate(7.282 0.793)" fill="#636363"/><ellipse cx="2.948" cy="0.547" rx="2.948" ry="0.547" transform="translate(7.419 0.808)" fill="#616161"/><ellipse cx="2.81" cy="0.529" rx="2.81" ry="0.529" transform="translate(7.556 0.823)" fill="#5e5e5e"/><ellipse cx="2.673" cy="0.511" rx="2.673" ry="0.511" transform="translate(7.694 0.838)" fill="#5b5b5b"/><ellipse cx="2.535" cy="0.493" rx="2.535" ry="0.493" transform="translate(7.831 0.853)" fill="#585858"/><ellipse cx="2.398" cy="0.474" rx="2.398" ry="0.474" transform="translate(7.969 0.868)" fill="#555"/><ellipse cx="2.261" cy="0.456" rx="2.261" ry="0.456" transform="translate(8.106 0.883)" fill="#525252"/><ellipse cx="2.123" cy="0.438" rx="2.123" ry="0.438" transform="translate(8.243 0.898)" fill="#4f4f4f"/><ellipse cx="1.986" cy="0.42" rx="1.986" ry="0.42" transform="translate(8.381 0.913)" fill="#4c4c4c"/></g></g><g transform="translate(15430.385 14634.46)"><g transform="translate(-13944.343 -14614.982)"><path d="M611.464,672.477h-.005a18.462,18.462,0,1,0-28.577,0h-.005l.107.123q.261.313.535.615L597.17,688.9l13.652-15.687q.274-.3.535-.615ZM597.17,649.47a10.407,10.407,0,1,1-10.406,10.407A10.407,10.407,0,0,1,597.17,649.47Z" transform="translate(-578.708 -642.323)" fill="#562c9e"/><path d="M1018.46,660.78A18.462,18.462,0,0,0,1000,642.318v7.147a10.407,10.407,0,0,1,0,20.813V688.9l13.652-15.687q.274-.3.535-.615l.106-.123h-.005A18.386,18.386,0,0,0,1018.46,660.78Z" transform="translate(-981.536 -642.318)" fill="#562c9e"/></g><g transform="translate(-13938.858 -14564.915)" opacity="0.1"><ellipse cx="12.978" cy="1.911" rx="12.978" ry="1.911" transform="translate(0 0)" fill="#fff"/><ellipse cx="12.806" cy="1.888" rx="12.806" ry="1.888" transform="translate(0.172 0.019)" fill="#fcfcfc"/><ellipse cx="12.634" cy="1.866" rx="12.634" ry="1.866" transform="translate(0.344 0.038)" fill="#f9f9f9"/><ellipse cx="12.462" cy="1.843" rx="12.462" ry="1.843" transform="translate(0.516 0.056)" fill="#f6f6f6"/><ellipse cx="12.29" cy="1.82" rx="12.29" ry="1.82" transform="translate(0.688 0.075)" fill="#f3f3f3"/><ellipse cx="12.118" cy="1.797" rx="12.118" ry="1.797" transform="translate(0.86 0.093)" fill="#f0f0f0"/><ellipse cx="11.946" cy="1.775" rx="11.946" ry="1.775" transform="translate(1.032 0.112)" fill="#ededed"/><ellipse cx="11.774" cy="1.752" rx="11.774" ry="1.752" transform="translate(1.204 0.131)" fill="#eaeaea"/><ellipse cx="11.602" cy="1.729" rx="11.602" ry="1.729" transform="translate(1.376 0.15)" fill="#e8e8e8"/><ellipse cx="11.43" cy="1.707" rx="11.43" ry="1.707" transform="translate(1.548 0.168)" fill="#e5e5e5"/><ellipse cx="11.258" cy="1.684" rx="11.258" ry="1.684" transform="translate(1.72 0.187)" fill="#e2e2e2"/><ellipse cx="11.086" cy="1.661" rx="11.086" ry="1.661" transform="translate(1.892 0.206)" fill="#dfdfdf"/><ellipse cx="10.914" cy="1.638" rx="10.914" ry="1.638" transform="translate(2.064 0.225)" fill="#dcdcdc"/><ellipse cx="10.742" cy="1.616" rx="10.742" ry="1.616" transform="translate(2.236 0.244)" fill="#d9d9d9"/><ellipse cx="10.57" cy="1.593" rx="10.57" ry="1.593" transform="translate(2.408 0.262)" fill="#d6d6d6"/><ellipse cx="10.398" cy="1.57" rx="10.398" ry="1.57" transform="translate(2.58 0.281)" fill="#d3d3d3"/><ellipse cx="10.226" cy="1.548" rx="10.226" ry="1.548" transform="translate(2.752 0.3)" fill="#d0d0d0"/><ellipse cx="10.054" cy="1.525" rx="10.054" ry="1.525" transform="translate(2.924 0.319)" fill="#cdcdcd"/><ellipse cx="9.882" cy="1.502" rx="9.882" ry="1.502" transform="translate(3.096 0.337)" fill="#cacaca"/><ellipse cx="9.71" cy="1.479" rx="9.71" ry="1.479" transform="translate(3.268 0.356)" fill="#c7c7c7"/><ellipse cx="9.538" cy="1.457" rx="9.538" ry="1.457" transform="translate(3.44 0.374)" fill="#c4c4c4"/><ellipse cx="9.366" cy="1.434" rx="9.366" ry="1.434" transform="translate(3.612 0.393)" fill="#c1c1c1"/><ellipse cx="9.194" cy="1.411" rx="9.194" ry="1.411" transform="translate(3.784 0.412)" fill="#bebebe"/><ellipse cx="9.022" cy="1.389" rx="9.022" ry="1.389" transform="translate(3.956 0.431)" fill="#bcbcbc"/><ellipse cx="8.85" cy="1.366" rx="8.85" ry="1.366" transform="translate(4.128 0.449)" fill="#b9b9b9"/><ellipse cx="8.678" cy="1.343" rx="8.678" ry="1.343" transform="translate(4.3 0.468)" fill="#b6b6b6"/><ellipse cx="8.506" cy="1.321" rx="8.506" ry="1.321" transform="translate(4.472 0.487)" fill="#b3b3b3"/><ellipse cx="8.334" cy="1.298" rx="8.334" ry="1.298" transform="translate(4.644 0.506)" fill="#b0b0b0"/><ellipse cx="8.162" cy="1.275" rx="8.162" ry="1.275" transform="translate(4.816 0.525)" fill="#adadad"/><ellipse cx="7.99" cy="1.252" rx="7.99" ry="1.252" transform="translate(4.988 0.543)" fill="#aaa"/><ellipse cx="7.818" cy="1.23" rx="7.818" ry="1.23" transform="translate(5.16 0.562)" fill="#a7a7a7"/><ellipse cx="7.646" cy="1.207" rx="7.646" ry="1.207" transform="translate(5.332 0.58)" fill="#a4a4a4"/><ellipse cx="7.474" cy="1.184" rx="7.474" ry="1.184" transform="translate(5.504 0.599)" fill="#a1a1a1"/><ellipse cx="7.302" cy="1.162" rx="7.302" ry="1.162" transform="translate(5.676 0.618)" fill="#9e9e9e"/><ellipse cx="7.13" cy="1.139" rx="7.13" ry="1.139" transform="translate(5.848 0.637)" fill="#9b9b9b"/><ellipse cx="6.958" cy="1.116" rx="6.958" ry="1.116" transform="translate(6.02 0.655)" fill="#989898"/><ellipse cx="6.786" cy="1.093" rx="6.786" ry="1.093" transform="translate(6.192 0.674)" fill="#959595"/><ellipse cx="6.614" cy="1.071" rx="6.614" ry="1.071" transform="translate(6.364 0.693)" fill="#929292"/><ellipse cx="6.442" cy="1.048" rx="6.442" ry="1.048" transform="translate(6.536 0.712)" fill="#8f8f8f"/><ellipse cx="6.27" cy="1.025" rx="6.27" ry="1.025" transform="translate(6.708 0.73)" fill="#8d8d8d"/><ellipse cx="6.098" cy="1.003" rx="6.098" ry="1.003" transform="translate(6.88 0.749)" fill="#8a8a8a"/><ellipse cx="5.926" cy="0.98" rx="5.926" ry="0.98" transform="translate(7.052 0.768)" fill="#878787"/><ellipse cx="5.754" cy="0.957" rx="5.754" ry="0.957" transform="translate(7.224 0.786)" fill="#848484"/><ellipse cx="5.582" cy="0.934" rx="5.582" ry="0.934" transform="translate(7.396 0.806)" fill="#818181"/><ellipse cx="5.41" cy="0.912" rx="5.41" ry="0.912" transform="translate(7.568 0.824)" fill="#7e7e7e"/><ellipse cx="5.238" cy="0.889" rx="5.238" ry="0.889" transform="translate(7.74 0.843)" fill="#7b7b7b"/><ellipse cx="5.066" cy="0.866" rx="5.066" ry="0.866" transform="translate(7.912 0.861)" fill="#787878"/><ellipse cx="4.894" cy="0.844" rx="4.894" ry="0.844" transform="translate(8.084 0.88)" fill="#757575"/><ellipse cx="4.722" cy="0.821" rx="4.722" ry="0.821" transform="translate(8.256 0.899)" fill="#727272"/><ellipse cx="4.55" cy="0.798" rx="4.55" ry="0.798" transform="translate(8.428 0.918)" fill="#6f6f6f"/><ellipse cx="4.378" cy="0.776" rx="4.378" ry="0.776" transform="translate(8.6 0.936)" fill="#6c6c6c"/><ellipse cx="4.206" cy="0.753" rx="4.206" ry="0.753" transform="translate(8.772 0.955)" fill="#696969"/><ellipse cx="4.034" cy="0.73" rx="4.034" ry="0.73" transform="translate(8.944 0.974)" fill="#666"/><ellipse cx="3.862" cy="0.707" rx="3.862" ry="0.707" transform="translate(9.116 0.993)" fill="#636363"/><ellipse cx="3.69" cy="0.685" rx="3.69" ry="0.685" transform="translate(9.288 1.012)" fill="#616161"/><ellipse cx="3.518" cy="0.662" rx="3.518" ry="0.662" transform="translate(9.46 1.03)" fill="#5e5e5e"/><ellipse cx="3.346" cy="0.639" rx="3.346" ry="0.639" transform="translate(9.632 1.049)" fill="#5b5b5b"/><ellipse cx="3.174" cy="0.617" rx="3.174" ry="0.617" transform="translate(9.804 1.067)" fill="#585858"/><ellipse cx="3.002" cy="0.594" rx="3.002" ry="0.594" transform="translate(9.976 1.086)" fill="#555"/><ellipse cx="2.83" cy="0.571" rx="2.83" ry="0.571" transform="translate(10.148 1.105)" fill="#525252"/><ellipse cx="2.658" cy="0.548" rx="2.658" ry="0.548" transform="translate(10.32 1.124)" fill="#4f4f4f"/><ellipse cx="2.486" cy="0.526" rx="2.486" ry="0.526" transform="translate(10.492 1.142)" fill="#4c4c4c"/></g></g></g></g></g></g></svg>