<svg xmlns="http://www.w3.org/2000/svg" width="88.379" height="76.788" viewBox="0 0 88.379 76.788"><g transform="translate(-8 -40)"><path d="M259.622,136.693A3.626,3.626,0,0,1,256,133.071v-3.622a1.449,1.449,0,0,1,2.9,0v3.622a.724.724,0,0,0,1.449,0v-.724a1.449,1.449,0,1,1,2.9,0v.724A3.626,3.626,0,0,1,259.622,136.693Z" transform="translate(-203.086 -72.063)" fill="#cbcbcb"/><path d="M92.9,351.181H39.128a11.953,11.953,0,0,1-11.6-9.054L24,328H37.039l1.449,2.9H80.5l2.9-2.9h24.63L104.5,342.127A11.953,11.953,0,0,1,92.9,351.181Z" transform="translate(-13.102 -235.842)" fill="#007af6"/><path d="M118.237,392v0l-.634,2.535a11.969,11.969,0,0,1-1.351,3.258H41.985a11.969,11.969,0,0,1-1.351-3.258L40,392v0Z" transform="translate(-26.205 -288.251)" fill="#0a71cd"/><path d="M16,424h85.481v5.8H16Z" transform="translate(-6.551 -314.456)" fill="#6ee7f5"/><path d="M301.67,223.181H279.937l-2.9,2.9H264V200h37.67Z" transform="translate(-209.637 -131.023)" fill="#ea9d2d"/><path d="M71.874,304.693H51.591l-1.449-2.9H40v-3.26A2.535,2.535,0,0,1,42.535,296H71.874Z" transform="translate(-26.205 -209.637)" fill="#cbcbcb"/><path d="M58.535,264H84.977v5.8H56v-3.26A2.535,2.535,0,0,1,58.535,264Z" transform="translate(-39.307 -183.433)" fill="#eaeae8"/><path d="M74.535,232H98.079v5.8H72v-3.26A2.535,2.535,0,0,1,74.535,232Z" transform="translate(-52.409 -157.228)" fill="#cbcbcb"/><path d="M88,192h8.693v7.244H88Z" transform="translate(-65.512 -124.472)" fill="#007af6"/><path d="M88,160h8.693v5.8H88Z" transform="translate(-65.512 -98.268)" fill="#e82f3e"/><path d="M347.591,211.591l-5.8-2.9-5.8,2.9V200h11.591Z" transform="translate(-268.598 -131.023)" fill="#e82f3e"/><path d="M346.142,290.9h-8.693a1.449,1.449,0,1,1,0-2.9h8.693a1.449,1.449,0,1,1,0,2.9Z" transform="translate(-268.598 -203.086)" fill="#c38325"/><path d="M168,80h5.8v27.528H168Z" transform="translate(-131.023 -32.756)" fill="#ea9d2d"/><path d="M257.449,79.244A1.449,1.449,0,0,1,256,77.8V73.449a1.449,1.449,0,1,1,2.9,0V77.8A1.449,1.449,0,0,1,257.449,79.244Z" transform="translate(-203.086 -26.205)" fill="#cbcbcb"/><ellipse cx="3.359" cy="2.88" rx="3.359" ry="2.88" transform="translate(51.23 51.518)" fill="#e82f3e"/><path d="M40,320H51.591l1.449,2.9H71.874v1.449H51.591l-1.449-2.9H40Z" transform="translate(-26.205 -229.291)" fill="#b9b9b9"/><path d="M168,224h5.8v1.449H168Z" transform="translate(-131.023 -150.677)" fill="#c38325"/><path d="M160.63,53.8H136V48h18.835l5.8,1.449Z" transform="translate(-104.819 -6.551)" fill="#fbb540"/><path d="M94.93,108.1H92.348a13.48,13.48,0,0,0,.455-1.458l3.532-14.128a1.449,1.449,0,0,0-1.405-1.8H93.481V68.977a1.449,1.449,0,0,0-1.449-1.449H54.363a1.449,1.449,0,0,0-1.449,1.449v24.63h-5.8V74.772a1.449,1.449,0,0,0-1.449-1.449H44.221V48.693h8.693v1.7a4.346,4.346,0,0,0,0,8.195v2.422a3.622,3.622,0,1,0,7.244,0v-.724a1.449,1.449,0,0,0-2.9,0v.724a.724.724,0,1,1-1.449,0V58.586a4.346,4.346,0,0,0,0-8.195v-1.7a1.449,1.449,0,0,0,1.449-1.449V42.9a1.449,1.449,0,0,0-1.1-1.406l-5.8-1.449A1.445,1.445,0,0,0,50.016,40H31.181a1.449,1.449,0,0,0-1.449,1.449v5.8a1.449,1.449,0,0,0,1.449,1.449h4.346v24.63h-2.9V61.732a1.449,1.449,0,0,0-1.449-1.449H22.488a1.449,1.449,0,0,0-1.449,1.449V73.475a3.991,3.991,0,0,0-2.9,3.833V79.27a3.991,3.991,0,0,0-2.9,3.833v1.963a3.991,3.991,0,0,0-2.9,3.833v1.811H10.9a1.449,1.449,0,0,0-1.406,1.8l3.532,14.128a13.478,13.478,0,0,0,.455,1.458H9.449A1.449,1.449,0,0,0,8,109.544v5.8a1.449,1.449,0,0,0,1.449,1.449H94.93a1.449,1.449,0,0,0,1.449-1.449v-5.8A1.449,1.449,0,0,0,94.93,108.1ZM68.851,70.425h8.693v7.8l-3.7-1.849a1.449,1.449,0,0,0-1.3,0l-3.7,1.849Zm-13.039,0H65.953V80.567a1.449,1.449,0,0,0,2.1,1.3L73.2,79.289l5.147,2.574a1.449,1.449,0,0,0,2.1-1.3V70.425H90.583V90.709H70.3a1.449,1.449,0,0,0-1.025.424L66.8,93.607H55.811Zm0-15.937a1.449,1.449,0,1,1-1.449-1.449,1.449,1.449,0,0,1,1.449,1.449ZM32.63,45.8V42.9H49.838l4.525,1.131V45.8Zm8.693,2.9v24.63h-2.9V48.693ZM23.937,63.181h5.8v2.9h-5.8Zm0,5.8h5.8v4.347h-5.8Zm-2.9,8.331a1.088,1.088,0,0,1,1.087-1.087H44.221v2.9H21.039Zm-2.9,5.8a1.088,1.088,0,0,1,1.087-1.087H44.221v2.9H18.142Zm-2.9,5.8a1.088,1.088,0,0,1,1.087-1.087h27.89v5.8H26.281l-1.048-2.1a1.449,1.449,0,0,0-1.3-.8H15.244Zm-2.491,4.709H23.042l1.048,2.1a1.449,1.449,0,0,0,1.3.8H67.4a1.449,1.449,0,0,0,1.025-.424L70.9,93.607H93.074L90.9,102.3H14.927ZM90.177,105.2l-.184.737a10.519,10.519,0,0,1-.806,2.161H16.635a10.518,10.518,0,0,1-.8-2.161l-.184-.737Zm3.3,8.693H10.9v-2.9H93.481Z" transform="translate(0 0)"/><path d="M337.449,290.9h8.693a1.449,1.449,0,1,0,0-2.9h-8.693a1.449,1.449,0,1,0,0,2.9Z" transform="translate(-268.598 -203.086)"/></g></svg>