<svg height="216" viewBox="0 0 610 216" width="610" xmlns="http://www.w3.org/2000/svg" xmlns:xlink="http://www.w3.org/1999/xlink"><clipPath id="a"><path d="m174 392h436v216h-436z"/></clipPath><clipPath id="b"><path d="m0 0h371v341.245h-371z"/></clipPath><g transform="translate(-174 -392)"><path d="m0 0h610v216h-610z" fill="#d7faf6" transform="matrix(-1 0 -0 -1 784 608)"/><g clip-path="url(#a)"><g clip-path="url(#b)" transform="translate(226 318.322)"><path d="m99.6 96.55h-77.287a3.212 3.212 0 0 1 -3.213-3.212v-54.855a5.257 5.257 0 0 1 5.257-5.257h75.243a3.212 3.212 0 0 1 3.213 3.213v56.9a3.212 3.212 0 0 1 -3.213 3.211" fill="#ebebfe" transform="translate(8.97 15.603)"/><path d="m57.06 33.779v63.008a.919.919 0 0 0 1.837 0v-63.008a.919.919 0 0 0 -1.837 0" fill="#b8c1ea" transform="translate(26.796 15.446)"/><path d="m0 0h11.656v11.656h-11.656z" fill="#fff" transform="translate(50.223 48.829)"/><path d="m0 0h11.656v11.656h-11.656z" fill="#fff" transform="translate(94.263 100.498)"/><path d="m18.671 95.621-.071-59.9a3.12 3.12 0 0 1 3.116-3.121l81.1.181v1l-81.1-.181a2.119 2.119 0 0 0 -2.116 2.12l.071 59.9z" fill="#b8c1ea" transform="translate(8.97 15.546)"/><path d="m147.375 180.527h-130.125a3.213 3.213 0 0 1 -3.213-3.213v-94.822a5.258 5.258 0 0 1 5.257-5.258h128.081a3.213 3.213 0 0 1 3.213 3.214v96.867a3.212 3.212 0 0 1 -3.213 3.213" fill="#ebebfe" transform="translate(6.592 36.27)"/><path d="m76.351 77.956v102.779a.919.919 0 0 0 1.837 0v-102.779a.919.919 0 0 0 -1.837 0" fill="#b8c1ea" transform="translate(35.856 36.192)"/><path d="m0 0h19.011v19.011h-19.011z" fill="#fff" transform="translate(56.765 113.504)"/><path d="m0 0h19.011v19.011h-19.011z" fill="#fff" transform="translate(128.603 197.787)"/><path d="m13.652 179.011-.116-97.711a4.773 4.773 0 0 1 4.764-4.766l132.286.3v1l-132.286-.3a3.772 3.772 0 0 0 -3.764 3.766l.116 97.708z" fill="#b8c1ea" transform="translate(6.592 36.176)"/><path d="m133.838 250.768h-130.125a3.213 3.213 0 0 1 -3.213-3.212v-94.823a5.257 5.257 0 0 1 5.257-5.258h128.081a3.212 3.212 0 0 1 3.213 3.214v96.867a3.212 3.212 0 0 1 -3.213 3.213" fill="#ebebfe" transform="translate(.235 69.257)"/><path d="m62.814 148.2v102.776a.919.919 0 0 0 1.837 0v-102.776a.919.919 0 0 0 -1.837 0" fill="#b8c1ea" transform="translate(29.498 69.179)"/><path d="m0 0h19.011v19.011h-19.011z" fill="#fff" transform="translate(36.871 216.732)"/><path d="m0 0h19.011v19.011h-19.011z" fill="#fff" transform="translate(108.709 301.014)"/><path d="m.115 249.252-.115-97.709a4.773 4.773 0 0 1 4.768-4.768l132.286.3v1l-132.284-.3a3.772 3.772 0 0 0 -3.77 3.768l.116 97.708z" fill="#b8c1ea" transform="translate(.234 69.163)"/><path d="m106.9.888v85.2a.919.919 0 0 0 1.837 0v-85.2a.919.919 0 0 0 -1.837 0" fill="#dadef1" transform="translate(50.202)"/><path d="m102.715 61.772a6.229 6.229 0 1 0 6.228-6.23 6.228 6.228 0 0 0 -6.228 6.23" fill="#ebebfe" transform="translate(48.237 26.083)"/><path d="m145.212 166.248h-100.638a3.213 3.213 0 0 1 -3.214-3.213v-72.518a5.257 5.257 0 0 1 5.258-5.257h98.594a3.212 3.212 0 0 1 3.213 3.213v74.562a3.212 3.212 0 0 1 -3.213 3.213" fill="#84dbc9" transform="translate(19.423 40.039)"/><path d="m90.084 85.887v80.583a.919.919 0 0 0 1.837 0v-80.583a.919.919 0 0 0 -1.837 0" fill="#26244a" transform="translate(42.305 39.917)"/><path d="m0 0h14.906v14.906h-14.906z" fill="#ebebfe" transform="translate(89.117 125.298)"/><path d="m0 0h14.906v14.906h-14.906z" fill="#ebebfe" transform="translate(145.442 191.381)"/><path d="m212.6 165.618h-100.634a3.213 3.213 0 0 1 -3.214-3.213v-72.518a5.258 5.258 0 0 1 5.258-5.257h98.59a3.212 3.212 0 0 1 3.213 3.213v74.557a3.212 3.212 0 0 1 -3.213 3.213" fill="#f2a441" transform="translate(51.072 39.744)"/><path d="m157.476 85.257v80.583a.919.919 0 0 0 1.837 0v-80.583a.919.919 0 0 0 -1.837 0" fill="#26244a" transform="translate(73.953 39.621)"/><path d="m0 0h14.906v14.906h-14.906z" fill="#ebebfe" transform="translate(188.156 124.372)"/><path d="m0 0h14.906v14.906h-14.906z" fill="#ebebfe" transform="translate(244.482 190.455)"/><path d="m144.156 221.616h-100.638a3.213 3.213 0 0 1 -3.218-3.216v-72.515a5.257 5.257 0 0 1 5.258-5.257h98.594a3.213 3.213 0 0 1 3.213 3.213v74.559a3.213 3.213 0 0 1 -3.213 3.213" fill="#f2a441" transform="translate(18.927 66.041)"/><path d="m89.027 141.255v80.585a.919.919 0 0 0 1.837 0v-80.585a.919.919 0 0 0 -1.837 0" fill="#26244a" transform="translate(41.808 65.919)"/><path d="m0 0h14.906v14.906h-14.906z" fill="#ebebfe" transform="translate(87.564 206.668)"/><path d="m0 0h14.906v14.906h-14.906z" fill="#ebebfe" transform="translate(143.89 272.75)"/><path d="m39.9 220.426-.091-76.61a3.851 3.851 0 0 1 3.846-3.847l103.719.231v1l-103.725-.23a2.849 2.849 0 0 0 -2.845 2.846l.091 76.609z" fill="#26244a" transform="translate(18.927 65.967)"/><path d="m212.616 221.616h-100.638a3.213 3.213 0 0 1 -3.214-3.213v-72.518a5.257 5.257 0 0 1 5.258-5.257h98.594a3.212 3.212 0 0 1 3.213 3.213v74.559a3.212 3.212 0 0 1 -3.213 3.213" fill="#f2a441" transform="translate(51.077 66.041)"/><path d="m157.488 141.255v80.585a.919.919 0 0 0 1.837 0v-80.585a.919.919 0 0 0 -1.837 0" fill="#26244a" transform="translate(73.959 65.919)"/><path d="m0 0h14.906v14.906h-14.906z" fill="#ebebfe" transform="translate(188.175 206.668)"/><path d="m0 0h14.906v14.906h-14.906z" fill="#ebebfe" transform="translate(244.5 272.75)"/><path d="m108.355 220.426-.091-76.61a3.851 3.851 0 0 1 3.846-3.847l103.719.231v1l-103.718-.231a2.849 2.849 0 0 0 -2.845 2.846l.091 76.609z" fill="#26244a" transform="translate(51.077 65.967)"/><path d="m255.342 201.141h-219.294a2.668 2.668 0 1 1 0-5.336h219.294a2.668 2.668 0 1 1 0 5.336" fill="#6e42de" transform="translate(15.675 91.953)"/><path d="m255.342 219.277h-219.294a2.668 2.668 0 1 1 0-5.336h219.294a2.668 2.668 0 1 1 0 5.336" fill="#6e42de" transform="translate(15.675 100.47)"/><path d="m0 0h27.328v22.848h-27.328z" fill="#6e42de" transform="translate(52.722 291.563)"/><path d="m0 0h27.328v22.848h-27.328z" fill="#6e42de" transform="translate(148.145 291.563)"/><path d="m0 0h27.328v22.848h-27.328z" fill="#6e42de" transform="translate(243.568 291.563)"/><g fill="#26244a"><path d="m35.747 200.935h218.9a.919.919 0 0 0 0-1.837h-218.9a.919.919 0 0 0 0 1.837" transform="translate(16.37 93.499)"/><path d="m35.747 215.153h218.9a.919.919 0 0 0 0-1.837h-218.9a.919.919 0 0 0 0 1.837" transform="translate(16.37 100.176)"/><path d="m43.151 85.835h203.335a.919.919 0 0 0 0-1.837h-203.335a.919.919 0 0 0 0 1.837" transform="translate(19.847 39.447)"/><path d="m110.036 165.469v-80.562a.919.919 0 0 0 -1.837 0v80.563a.919.919 0 0 0 1.837 0" transform="translate(50.812 39.457)"/><path d="m268.659 308.681-111.686-.217a11.817 11.817 0 0 1 -11.794-11.841l.421-215.487a11.818 11.818 0 0 1 11.841-11.8l111.686.217a11.818 11.818 0 0 1 11.793 11.847l-.42 215.487a11.818 11.818 0 0 1 -11.841 11.8" transform="translate(68.178 32.564)"/></g><path d="m0 0h180.371v123.233h-180.371z" fill="#fff" transform="matrix(.002 -1 1 .002 219.188 303.908)"/><path d="m212.307 79.3-30.954-.359a1.231 1.231 0 0 1 -1.217-1.246v-.269a1.23 1.23 0 0 1 1.245-1.217l30.955.359a1.232 1.232 0 0 1 1.218 1.245v.27a1.23 1.23 0 0 1 -1.245 1.217" fill="#6e42de" transform="translate(84.595 35.787)"/><path d="m207.385 222.468a11.648 11.648 0 1 1 -11.513-11.783 11.649 11.649 0 0 1 11.513 11.783" fill="#6e42de" transform="translate(86.451 98.94)"/><path d="m247.948 192.475-82.559-.16a3.213 3.213 0 0 1 -3.207-3.22l.115-58.842a5.255 5.255 0 0 1 5.267-5.247l80.514.156a3.213 3.213 0 0 1 3.207 3.22l-.118 60.886a3.214 3.214 0 0 1 -3.22 3.207" fill="#f2a441" transform="translate(76.164 58.705)"/><path d="m202.7 125.648q-.066 33.487-.131 66.976a.919.919 0 0 0 1.837 0q.066-33.487.131-66.976a.919.919 0 0 0 -1.837 0" fill="#26244a" transform="translate(95.129 58.589)"/><path d="m0 0h12.389v12.389h-12.389z" fill="#ebebfe" transform="matrix(.00190241 -.99999819 .99999819 .00190241 261.995 196.135)"/><path d="m0 0h12.39v12.389h-12.39z" fill="#ebebfe" transform="matrix(.00190241 -.99999819 .99999819 .00190241 308.702 251.15)"/><path d="m234.941 169.566a31.024 31.024 0 1 1 -37.252-23.177 31.023 31.023 0 0 1 37.252 23.177" fill="#84dbc9" transform="translate(81.57 68.363)"/><path d="m184.937 171.8 9.073 10.1a3.705 3.705 0 0 0 5.2 0l13.9-15.074q.981-1.065 1.963-2.129a3.674 3.674 0 1 0 -5.2-5.2q-6.948 7.537-13.9 15.074-.983 1.065-1.963 2.128h5.2l-9.073-10.1a3.675 3.675 0 0 0 -5.2 5.2" fill="#fff" transform="translate(86.356 74.405)"/><path d="m166.737 111.043h78.6a.919.919 0 0 0 0-1.837h-78.6a.919.919 0 0 0 0 1.837" fill="#26244a" transform="translate(77.885 51.285)"/><path d="m185.095 104.9h24.641a.919.919 0 0 0 0-1.837h-24.641a.919.919 0 0 0 0 1.837" fill="#26244a" transform="translate(86.507 48.401)"/><path d="m9.9 219.4h355.98a.919.919 0 0 0 0-1.837h-355.98a.919.919 0 0 0 0 1.837" fill="#26244a" transform="translate(4.234 102.172)"/></g></g></g></svg>