<svg height="90.678" viewBox="0 0 90.678 90.678" width="90.678" xmlns="http://www.w3.org/2000/svg" xmlns:xlink="http://www.w3.org/1999/xlink"><filter id="a" filterUnits="userSpaceOnUse" height="90.678" width="90.678" x="0" y="0"><feOffset dy="3"/><feGaussianBlur result="b" stdDeviation="3"/><feFlood flood-opacity=".161"/><feComposite in2="b" operator="in"/><feComposite in="SourceGraphic"/></filter><g filter="url(#a)" transform="translate(0 .003)"><path d="m36.339 0a36.339 36.339 0 1 1 -36.339 36.339 36.339 36.339 0 0 1 36.339-36.339z" fill="#9fa3ff" transform="translate(9 6)"/></g><g transform="translate(1.254 -4.535)"><circle cx="43.245" cy="46.183" fill="#63affa" r="20.76"/><path d="m126.557 208.52-2.637-2.284h-5.57v1.178l1.423.8a4.594 4.594 0 0 1 2.344 4v.74a1.126 1.126 0 0 1 .861-.384 1.286 1.286 0 0 1 1 .512 5 5 0 0 0 .437.384h2.924a4.989 4.989 0 0 0 .437-.384 1.228 1.228 0 0 1 2 0 5 5 0 0 0 .437.384h2.925a4.992 4.992 0 0 0 .437-.384 1.228 1.228 0 0 1 2 0 4.988 4.988 0 0 0 .437.384h2.925a4.992 4.992 0 0 0 .437-.384 1.228 1.228 0 0 1 2 0 4.986 4.986 0 0 0 .438.384h.982l3.345-3.941v-1.01z" fill="#6b7292" transform="translate(-77.301 -141.46)"/><path d="m138.5 149.506h2.511v7.9h-2.511z" fill="#fc4a32" transform="translate(-92.669 -98.185)"/><path d="m138.121 175.286a1.3 1.3 0 0 0 -1.3-1.3h-5.766a1.3 1.3 0 0 0 -1.3 1.3v1.385h8.375z" fill="#ededed" transform="translate(-85.994 -116.856)"/><path d="m129.747 185.322h8.375v5.4h-8.375z" fill="#6b7292" transform="translate(-85.995 -125.506)"/><g fill="#f7b564"><path d="m173.219 186.42h6.757v4.473h-6.757z" transform="translate(-119.156 -126.343)"/><path d="m201.707 186.42h6.757v4.473h-6.757z" transform="translate(-140.887 -126.343)"/><path d="m187.463 167.562h6.757v4.473h-6.757z" transform="translate(-130.022 -111.958)"/></g><path d="m126.557 200.965h19.567v-3.033h-18.437l-2.637-2.284h-6.7v3.033h5.57z" fill="#fc4a32" transform="translate(-77.301 -133.383)"/><path d="m34.134 74.892h-6.834a1.563 1.563 0 0 1 -.452-.067l-6.4-2.564a1.1 1.1 0 0 1 .676-2.092l6.407 1.594h6.6z" fill="#ededed" transform="translate(-2.094 -37.641)"/><circle cx="24.365" cy="37.819" fill="#fc4a32" r="2.295"/><path d="m104.032 74.892h6.829a1.562 1.562 0 0 0 .452-.067l6.4-2.564a1.1 1.1 0 0 0 -.676-2.092l-6.407 1.594h-6.6z" fill="#ededed" transform="translate(-66.378 -37.641)"/><circle cx="45.329" cy="37.688" fill="#fc4a32" r="2.295"/><path d="m73.261 59.2h-17.088l1.315-2.629h14.458z" fill="#ededed" transform="translate(-29.871 -27.289)"/><path d="m88.171 32.845h-3.633l.662-8.245a1.155 1.155 0 0 1 2.3 0z" fill="#6b7292" transform="translate(-51.508 -2.098)"/><path d="m68.5 63.766v-1.581a5.62 5.62 0 0 1 5.62-5.62 5.62 5.62 0 0 1 5.62 5.62v1.581z" fill="#ededed" transform="translate(-39.276 -27.289)"/><path d="m76.008 77.4a3.754 3.754 0 0 1 -3.77 0l-3.61-2.1a5.639 5.639 0 0 0 -.124 1.175v1.581a3.754 3.754 0 0 0 3.754 3.754h3.731a3.754 3.754 0 0 0 3.754-3.754v-1.578a5.639 5.639 0 0 0 -.124-1.175z" fill="#6b7292" transform="translate(-39.276 -41.582)"/><path d="m81.7 67.612h4.979v1.3h-4.979z" transform="translate(-49.343 -35.715)"/><path d="m177.5 192.171h1.3v1.745h-1.3z" transform="translate(-122.423 -130.731)"/><path d="m184.713 192.171h1.3v1.745h-1.3z" transform="translate(-127.923 -130.731)"/><path d="m191.924 192.171h1.3v1.745h-1.3z" transform="translate(-133.424 -130.731)"/><path d="m205.99 192.171h1.3v1.745h-1.3z" transform="translate(-144.154 -130.731)"/><path d="m213.2 192.171h1.3v1.745h-1.3z" transform="translate(-149.654 -130.731)"/><path d="m220.412 192.171h1.3v1.745h-1.3z" transform="translate(-155.155 -130.731)"/><path d="m191.746 173.313h1.3v1.745h-1.3z" transform="translate(-133.288 -116.345)"/><path d="m198.957 173.313h1.3v1.745h-1.3z" transform="translate(-138.789 -116.345)"/><path d="m206.168 173.313h1.3v1.745h-1.3z" transform="translate(-144.29 -116.345)"/><path d="m43.746 71.376a1.227 1.227 0 0 1 -1.995 0 2.551 2.551 0 0 0 -1.9-.874h-.651v1.3h.652a1.286 1.286 0 0 1 1 .512 2.5 2.5 0 0 0 3.8 0 1.227 1.227 0 0 1 1.995 0 2.5 2.5 0 0 0 3.8 0 1.228 1.228 0 0 1 2 0 2.5 2.5 0 0 0 3.8 0 1.228 1.228 0 0 1 2 0 2.5 2.5 0 0 0 3.8 0c.06-.058.115-.11.169-.159a1.1 1.1 0 0 1 .828-.354 1.286 1.286 0 0 1 1 .512 2.5 2.5 0 0 0 3.8 0 1.287 1.287 0 0 1 1-.512h.652v-1.301h-.652a2.552 2.552 0 0 0 -1.9.874c-.086.082-.162.155-.237.219l2.634-3.1a.652.652 0 0 0 .155-.422v-3.522a.652.652 0 0 0 -.652-.652h-.614v-3.821a.652.652 0 0 0 -.652-.652h-2.727v-3.824a.652.652 0 0 0 -.652-.652h-1.422a21.415 21.415 0 0 0 -25.865-29.221l-.264-3.273a1.807 1.807 0 0 0 -3.6 0l-.415 5.138q-.838.48-1.626 1.033h-3.39a.652.652 0 0 0 -.583.361l-1.315 2.63a.652.652 0 0 0 .583.944h.436q-.368.446-.712.912h-.5l-6.335-1.572a1.754 1.754 0 0 0 -1.076 3.331l3.546 1.421a2.942 2.942 0 0 0 1.014 3.585 21.415 21.415 0 0 0 19.879 27.345 3.946 3.946 0 0 1 1.61 3.176v.247a5.123 5.123 0 0 0 -.419.371zm24.425-6.176v1.207h-18.671l-2.453-2.125a.652.652 0 0 0 -.427-.159h-4.92v-1.206h5.8l2.453 2.125a.652.652 0 0 0 .427.159h17.791zm-37.129-24.767a35.721 35.721 0 0 0 -.45 5.1h-7.443a20.025 20.025 0 0 1 .741-4.8 2.944 2.944 0 0 0 3.418-2.833h1.5a4.429 4.429 0 0 0 2.229 2.53zm-2.702-7.733.13-.142h.558q-.076.188-.14.382-.277-.117-.548-.24zm1.539 3.777v-1.577q0-.057 0-.114l2.753 1.6a4.416 4.416 0 0 0 4.425 0l2.753-1.6q0 .057 0 .114v1.581a3.106 3.106 0 0 1 -3.1 3.1h-3.729a3.106 3.106 0 0 1 -3.1-3.1zm10.785-3.918h1.928v.912h-1.64a6.215 6.215 0 0 0 -.288-.912zm1.72 5.345a2.928 2.928 0 0 0 .208 1.007v6.62h-10.692a34.519 34.519 0 0 1 .4-4.7 4.42 4.42 0 0 0 .682.053h3.731a4.413 4.413 0 0 0 4.167-2.984zm-2.437-6.649a6.323 6.323 0 0 0 -1.278-1.325h3l.662 1.325zm2.645 15.581v8.527a40.316 40.316 0 0 0 -9.079 1.153 31.9 31.9 0 0 1 -1.617-9.68zm5.474-10.1a38.831 38.831 0 0 0 4.909-.883 31.9 31.9 0 0 1 1.617 9.68h-10.692v-5.14a2.945 2.945 0 0 0 4.17-3.661zm8.724 22.688h-2.726a.652.652 0 0 0 -.652.652v3.447q-.313.184-.632.358v-3.572a23.952 23.952 0 0 0 1.008-2.226q1.56.443 3 1.009zm.652 1.3h2.726v3.176h-5.452v-3.172zm-4.466-4.213a38.448 38.448 0 0 0 -3.985-.766v-4.424a.652.652 0 0 0 -.652-.652h-2.511a.652.652 0 0 0 -.652.652v4.079q-.637-.029-1.279-.039v-8.526h10.7a31.9 31.9 0 0 1 -1.617 9.68zm-8.576 2.653v-.733a.653.653 0 0 1 .652-.652h5.766a.653.653 0 0 1 .652.652v.733zm7.07 1.3v3.436h-.84l-2.453-2.125a.652.652 0 0 0 -.427-.159h-3.35v-1.148zm-4.99-3.99v-4.5h1.207v4.5zm-1.151-17.013a1.642 1.642 0 1 1 1.642-1.642 1.644 1.644 0 0 1 -1.642 1.642zm21.6 21.267v3.172h-5.456v-3.172h5.452zm-3.378-4.473v3.168h-5.457v-3.167zm-2.21-1.3h-3.899a.652.652 0 0 0 -.652.652v2.091q-1.241-.466-2.552-.842a33.286 33.286 0 0 0 1.662-10.021h7.44a19.971 19.971 0 0 1 -2 8.116zm-2.319-21.223a20.006 20.006 0 0 1 4.318 11.8h-7.44a33.285 33.285 0 0 0 -1.66-10.018 32.372 32.372 0 0 0 4.784-1.78zm-.873-1.032a31.613 31.613 0 0 1 -4.361 1.582 23.189 23.189 0 0 0 -1.488-3.105 15.409 15.409 0 0 0 -3.6-4.348 20.142 20.142 0 0 1 9.449 5.871zm-14.249-6.59c2.723.277 5.285 2.283 7.273 5.72.007.012-7.273 1.641-7.273 1.641zm.354 8.665a.652.652 0 0 0 .157-.019l6.408-1.594a.451.451 0 0 1 .513.24.449.449 0 0 1 -.237.613l-3.868 1.55a2.943 2.943 0 0 0 -4.58 1.035h-1.532c0-.041 0-.081 0-.122v-1.578c0-.041 0-.081 0-.122h3.136zm-1.659-5.894a.651.651 0 0 0 -.517-.257h-4.345a8.113 8.113 0 0 1 4.859-2.515zm-4.807-2.052q-.372.3-.733.641l-.033-.407c.251-.083.505-.163.763-.234zm-3.44-4.27a.5.5 0 0 1 1 0l.5 6.146a6.243 6.243 0 0 0 -1.994 0zm.5 7.37a4.976 4.976 0 0 1 4.739 3.477l-3.187 1.847a3.108 3.108 0 0 1 -3.115 0l-3.181-1.847a4.976 4.976 0 0 1 4.739-3.477zm-6.826 0h3a6.323 6.323 0 0 0 -1.278 1.325h-2.387zm-5.551 5.635-3.871-1.549a.45.45 0 0 1 -.238-.613.452.452 0 0 1 .513-.24l6.408 1.594a.652.652 0 0 0 .157.019h3.136v.119 1.581.122h-1.531a2.943 2.943 0 0 0 -4.576-1.034zm1.895.612a1.642 1.642 0 1 1 -1.642 1.642 1.644 1.644 0 0 1 1.64-1.641zm3.1 22.457a20.006 20.006 0 0 1 -4.318-11.8h7.443a33.286 33.286 0 0 0 1.66 10.018 32.372 32.372 0 0 0 -4.785 1.78zm.873 1.031a31.609 31.609 0 0 1 4.361-1.581 23.191 23.191 0 0 0 1.489 3.106 15.409 15.409 0 0 0 3.6 4.348 20.142 20.142 0 0 1 -9.449-5.872zm12.057 2.6v3.378a12.032 12.032 0 0 1 -5.078-5.108 21.814 21.814 0 0 1 -1.348-2.788 39.087 39.087 0 0 1 8.622-1.08v4.946h-1.542a.652.652 0 0 0 -.652.652zm2.395 3.92-1.091-.612v-.144h4.674l2.453 2.125a.653.653 0 0 0 .427.159h18.917v.118l-3.114 3.67-.13-.123a2.5 2.5 0 0 0 -3.8 0 1.574 1.574 0 0 1 -.7.479h-.587a1.573 1.573 0 0 1 -.7-.479 2.5 2.5 0 0 0 -3.8 0 1.574 1.574 0 0 1 -.7.479h-.587a1.573 1.573 0 0 1 -.7-.479 2.5 2.5 0 0 0 -3.8 0 1.573 1.573 0 0 1 -.7.479h-.587a1.573 1.573 0 0 1 -.7-.479 2.551 2.551 0 0 0 -1.9-.874c-.063 0-.125 0-.185.006a5.251 5.251 0 0 0 -2.689-4.324z"/></g></svg>