<svg height="197.645" viewBox="0 0 295 197.645" width="295" xmlns="http://www.w3.org/2000/svg" xmlns:xlink="http://www.w3.org/1999/xlink"><clipPath id="a"><path d="m0 0h241.303v107.645h-241.303z"/></clipPath><clipPath id="b"><path d="m0 0h21.661v15.921h-21.661z"/></clipPath><clipPath id="c"><path d="m0 0h18.005v17.755h-18.005z"/></clipPath><rect fill="#f4f5ff" height="197.645" rx="16" width="295"/><g clip-path="url(#a)" transform="translate(26.848 45)"><g clip-path="url(#a)" transform="translate(0 -.001)"><path d="m51.177 57.465c0 4.911-1.986 11.157-4.937 14.23-1.375 1.434-5.552 1.266-8.782 1.266-7.576 0-13.718-6.937-13.718-15.5s6.142-15.5 13.718-15.5c.577 0 5.439-.076 6 0 6.775.947 7.722 7.587 7.722 15.494" fill="#26244a" transform="translate(19.505 34.455)"/><path d="m54.469 57.452c0 8.56-6.142 15.5-13.718 15.5s-13.718-6.937-13.718-15.5 6.142-15.5 13.718-15.5 13.718 6.937 13.718 15.5" fill="#6e42de" transform="translate(22.209 34.472)"/><path d="m43.265 53.6c0 3.84-2.685 6.951-6 6.951s-6-3.111-6-6.951 2.685-6.951 6-6.951 6 3.111 6 6.951" fill="#9fa2fc" transform="translate(25.691 38.326)"/><path d="m0 0h59.497v4.623h-59.497z" fill="#26244a" transform="translate(25.085 92.087)"/><path d="m0 0h218.051v27.379h-218.051z" fill="#26244a" transform="translate(13.737 65.701)"/><path d="m134.606 57.587c0 4.911-1.986 11.157-4.937 14.23-1.375 1.434-5.552 1.266-8.782 1.266-7.576 0-13.718-6.937-13.718-15.5s6.142-15.5 13.718-15.5c.577 0 5.439-.077 6 0 6.775.947 7.722 7.587 7.722 15.494" fill="#26244a" transform="translate(88.05 34.555)"/><path d="m137.9 57.574c0 8.56-6.142 15.5-13.718 15.5s-13.718-6.937-13.718-15.5 6.142-15.5 13.718-15.5 13.718 6.937 13.718 15.5" fill="#6e42de" transform="translate(90.754 34.572)"/><path d="m126.694 53.72c0 3.84-2.685 6.951-6 6.951s-6-3.111-6-6.951 2.685-6.951 6-6.951 6 3.111 6 6.951" fill="#9fa2fc" transform="translate(94.236 38.426)"/><path d="m156.411 43.208a8.322 8.322 0 0 0 -7.068-5.652l-19.313-2.179-10.677-21.577a6.615 6.615 0 0 0 -1.474-1.96c-1.907-1.74-5.9-1.459-7.37-1.465-4.909-.018-11.957-.033-11.957 0v70.713h15.963c2.137 0 3.4-5.437 3.763-7.288.018-.086.027-.135.031-.164l.02-.087c1.455-6.368 3.417-7.277 4.516-8.481 2.292-2.508 6.527-3.272 9.614-3.272 13.347-.763 15.95 10.66 15.95 10.66l1.157 6.438h7.234v-33.121a8.586 8.586 0 0 0 -.392-2.565" fill="#84dbc9" transform="translate(80.97 8.509)"/><path d="m0 0h58.251v6.765h-58.251z" fill="#f2a441" transform="translate(179.522 57.903)"/><path d="m99.047 74.635h15.192a1.151 1.151 0 0 0 1.139-1.139 18.327 18.327 0 0 1 1.428-7.275c2.219-5.379 7.02-8.008 12.713-8.168a1.157 1.157 0 0 0 1.138-1.139q-.005-6.3-.013-12.605c0-2.911.546-6.009-.778-8.653q-3.437-6.853-6.873-13.708c-1.978-3.944-3.383-8.394-8.006-9.888-2.4-.778-5.126-.517-7.618-.517q-3.645 0-7.292 0a1.139 1.139 0 0 0 0 2.277c3.807 0 7.629-.106 11.434 0 2.982.084 5.445 1.241 6.833 3.929.822 1.592 1.607 3.2 2.41 4.805l6.749 13.46a11.261 11.261 0 0 0 .836 1.67c.475.636.1-.448.022.047a33.578 33.578 0 0 0 .005 5.312q.005 6.935.013 13.87l1.138-1.138c-6.159.173-11.653 2.9-14.374 8.609a20.557 20.557 0 0 0 -2.043 9.116q.571-.568 1.138-1.138h-15.191a1.139 1.139 0 0 0 0 2.277" fill="#26244a" transform="translate(80.473 9.451)"/><path d="m99.358 32.183q.3-8.061.6-16.121a3.094 3.094 0 0 1 .636-2.153 2.739 2.739 0 0 1 1.971-.523h6.183a10.207 10.207 0 0 1 5.111.891 9.84 9.84 0 0 1 3.485 3.947c3.166 5.718 5.019 9.682 7.418 14.613a2.721 2.721 0 0 1 -2.262 3.963c-6.3.073-14.066.568-19.4.2a4.4 4.4 0 0 1 -2.74-.831c-1.027-.929-1.055-2.563-1-3.986" fill="#ebebfe" transform="translate(81.619 10.997)"/><g clip-path="url(#b)" opacity=".5" transform="translate(182.234 32.185)"><path d="m121.7 24.157-10.842 9.288c-3.049.055-9.54.523-10.817-.6l18.336-15.179z" fill="#fff" transform="translate(-100.04 -17.668)"/></g><g clip-path="url(#c)" opacity=".5" transform="translate(180.962 26.713)"><path d="m117.348 17.171-18 15.249.128-4.3 16.147-13.458z" fill="#fff" transform="translate(-99.343 -14.664)"/></g><path d="m112.332 29.731v-7.7l1.975 4.073a.75.75 0 0 1 .075.326v2.558a.747.747 0 0 1 -.747.747z" fill="#26244a" transform="translate(92.292 18.098)"/><path d="m109.5 23.177c.727.749 1.359 1.616 2.027 2.415q1.536 1.844 3.069 3.691l.7.843a1.142 1.142 0 0 0 1.608 0 1.168 1.168 0 0 0 0-1.61q-2.5-3.017-5.015-6.026c-.257-.306-.5-.636-.781-.924a1.139 1.139 0 1 0 -1.61 1.61" fill="#26244a" transform="translate(89.696 17.449)"/><path d="m108.21 21.832v6.315a1.331 1.331 0 0 0 1.244 1.4h2.155a1.329 1.329 0 0 0 1.244-1.4v-6.211a1.34 1.34 0 0 0 -1.191-1.4l-2.155-.1a1.321 1.321 0 0 0 -1.3 1.4" fill="#84dbc9" transform="translate(88.905 16.786)"/><path d="m126.97 25.354s-1.026 5.033 1 5.962 5.514.392 5.514.392-.754-5.807-6.516-6.354" fill="#f2a441" transform="translate(104.105 20.831)"/><path d="m136.146 58.445h-7.746l-3.742-16.609h11.489a2.739 2.739 0 0 1 2.74 2.74v11.13a2.739 2.739 0 0 1 -2.74 2.74" fill="#26244a" transform="translate(102.418 34.373)"/><path d="m132.978 41.9h-3.41a2.018 2.018 0 1 1 0-4.037h3.41z" fill="#ebebfe" transform="translate(104.795 31.112)"/><path d="m0 0h45.973v89.801h-45.973z" fill="#9fa2fc" transform="translate(3.17 1.179)"/><path d="m26.978 88.225v-87.566h125.3a5.724 5.724 0 0 1 5.722 5.725v81.841h-60.754v-2a15.948 15.948 0 0 0 -15.946-15.946h-9.607c-6.392 0-10.128 4.283-10.893 10.629l-2.47 7.317z" fill="#ebebfe" transform="translate(22.165 .542)"/><path d="m0 0h38.592v28.204h-38.592z" fill="#6e42de" transform="translate(7.155 7.911)"/><path d="m0 0h38.592v49.354h-38.592z" fill="#6e42de" transform="translate(7.155 36.113)"/><path d="m42.52 33.029-38.592-13.205h38.592z" fill="#26244a" transform="translate(3.227 16.288)"/><g fill="#f2a441"><path d="m27.331 45.071a.821.821 0 1 1 -.82-.82.82.82 0 0 1 .82.82" transform="translate(21.107 36.357)"/><path d="m27.331 46.4a.821.821 0 1 1 -.82-.82.82.82 0 0 1 .82.82" transform="translate(21.107 37.453)"/><path d="m27.331 47.739a.821.821 0 1 1 -.82-.82.82.82 0 0 1 .82.82" transform="translate(21.107 38.549)"/><path d="m3.973 45.071a.821.821 0 1 1 -.82-.82.82.82 0 0 1 .82.82" transform="translate(1.916 36.357)"/><path d="m3.973 46.4a.821.821 0 1 1 -.82-.82.82.82 0 0 1 .82.82" transform="translate(1.916 37.453)"/><path d="m3.973 47.739a.821.821 0 1 1 -.82-.82.82.82 0 0 1 .82.82" transform="translate(1.916 38.549)"/></g><path d="m4.614 18.1h38.073a1.139 1.139 0 0 0 0-2.277h-38.073a1.139 1.139 0 0 0 0 2.277" fill="#26244a" transform="translate(2.887 13.003)"/><path d="m4.614 14.519h38.073a1.139 1.139 0 0 0 0-2.277h-38.073a1.139 1.139 0 0 0 0 2.277" fill="#26244a" transform="translate(2.887 10.059)"/><path d="m4.614 10.935h38.073a1.139 1.139 0 0 0 0-2.277h-38.073a1.139 1.139 0 0 0 0 2.277" fill="#26244a" transform="translate(2.887 7.114)"/><path d="m4.519 7.592h38.073a1.139 1.139 0 0 0 0-2.277h-38.073a1.139 1.139 0 0 0 0 2.277" fill="#26244a" transform="translate(2.809 4.368)"/><path d="m0 0h39.904v2.742h-39.904z" fill="#ebebfe" transform="translate(5.844 85.469)"/><path d="m73.132 57.321c0 4.911-1.986 11.157-4.937 14.23-1.375 1.434-5.552 1.266-8.782 1.266-7.576 0-13.718-6.937-13.718-15.5s6.142-15.5 13.718-15.5c.577 0 5.439-.077 6 0 6.775.947 7.722 7.587 7.722 15.494" fill="#26244a" transform="translate(37.543 34.337)"/><path d="m76.425 57.307c0 8.56-6.142 15.5-13.718 15.5s-13.718-6.937-13.718-15.5 6.142-15.5 13.718-15.5 13.718 6.937 13.718 15.5" fill="#6e42de" transform="translate(40.248 34.353)"/><path d="m65.221 53.453c0 3.84-2.685 6.951-6 6.951s-6-3.111-6-6.951 2.685-6.951 6-6.951 6 3.111 6 6.951" fill="#9fa2fc" transform="translate(43.73 38.207)"/><path d="m34.608 58.3h-25.433a3.983 3.983 0 0 1 -3.984-3.982v-14.769a6.516 6.516 0 0 1 6.516-6.516h22.9a3.98 3.98 0 0 1 3.982 3.982v17.3a3.982 3.982 0 0 1 -3.981 3.985" fill="#f2a441" transform="translate(4.265 27.141)"/><path d="m16.986 33.614v25.138a1.139 1.139 0 0 0 2.277 0v-25.138a1.139 1.139 0 0 0 -2.277 0" fill="#26244a" transform="translate(13.956 26.714)"/><path d="m0 0h4.651v4.651h-4.651z" fill="#ebebfe" transform="translate(18.294 60.171)"/><path d="m0 0h4.651v4.651h-4.651z" fill="#ebebfe" transform="translate(35.865 80.786)"/><path d="m19.546 19.223h-6.4a.748.748 0 0 1 0-1.5h6.4a.748.748 0 0 1 0 1.5" fill="#26244a" transform="translate(10.189 14.565)"/><path d="m27.693 34.926c8.869.015 15.924-6.906 21.18-13.34 5.705-6.986 11.057-15.928 19.872-19.311 1.353-.519.765-2.721-.607-2.2-8.138 3.125-13.485 10.465-18.659 17.11-5.3 6.8-12.338 15.478-21.786 15.464a1.139 1.139 0 0 0 0 2.277" fill="#fff" transform="translate(21.849)"/><path d="m76.515.728a220.565 220.565 0 0 0 -31.182 32.16c-6.793 8.807-19.385 24-10.1 35.159 4.232 5.088 11.4 4.523 16.577 1.244 6.036-3.821 10.632-10.006 15.59-15.059 5.443-5.55 11.241-10.851 18.1-14.6 5.922-3.239 14.493-6.521 21.3-4.348 10.716 3.425-1.14 16.872-5.144 21.116-5.733 6.073-12.394 11.165-19.025 16.2-1.153.874-.018 2.853 1.149 1.965a187.073 187.073 0 0 0 16.52-13.582c4.749-4.55 10.148-10.139 12.39-16.456 2.148-6.053-1.213-11.033-7.432-11.888-6.631-.911-13.686 1.337-19.537 4.3-6.621 3.361-12.355 8.189-17.621 13.361-2.727 2.681-5.348 5.467-7.98 8.239-2.685 2.827-5.323 5.875-8.516 8.146-3.249 2.315-7.544 3.867-11.437 2.273-3.23-1.324-5.1-4.636-5.667-7.955-1.321-7.647 4.2-14.986 8.325-20.883 9.917-14.185 22.214-26.526 35.3-37.782 1.113-.958-.5-2.561-1.61-1.61" fill="#fff" transform="translate(26.241 .36)"/><path d="m69.886 70.067a47.785 47.785 0 0 1 12.714-13.725c5.159-3.691 10.784-5.846 16.852-7.53 5.876-1.632 11.234-3.752 15.352-8.443 4.375-4.986 7.055-11.367 10.3-17.1a1.139 1.139 0 0 0 -1.965-1.149c-3.3 5.84-6 12.533-10.682 17.44-4.926 5.168-11.54 6.255-18.045 8.327a48.941 48.941 0 0 0 -26.492 21.031c-.776 1.25 1.193 2.394 1.966 1.149" fill="#fff" transform="translate(55.657 17.72)"/><path d="m71.258.788c-4.485 4.223-10.158 11.045-5.641 17.327 3.82 5.31 12.181 6.543 18.221 6.483 7.911-.08 15.509-2.483 23.174-4.146 4.057-.882 8.718-2.037 12.86-1.024 4.184 1.022 5.159 4.41 6.257 8.146a1.139 1.139 0 0 0 2.2-.6c-.743-2.528-1.443-5.365-3.321-7.328-1.991-2.082-5.062-2.742-7.838-2.825-7.243-.222-14.56 2.437-21.557 3.964-7.279 1.588-15.117 2.537-22.274-.126-3.922-1.461-7.68-4.159-6.924-8.864.63-3.943 3.69-6.795 6.453-9.395 1.069-1.007-.543-2.614-1.61-1.61" fill="#fff" transform="translate(52.549 .387)"/><path d="m27.833 44.522c5.621-1.647 12.848-3.414 18.205-.1a15.908 15.908 0 0 1 4.562 5.122 41.474 41.474 0 0 1 3.381 6.13c.579 1.343 2.543.184 1.965-1.149a41.707 41.707 0 0 0 -3.814-6.784 16.753 16.753 0 0 0 -5.328-5.51c-5.895-3.348-13.46-1.7-19.579.1a1.139 1.139 0 0 0 .6 2.2" fill="#fff" transform="translate(21.713 33.11)"/><path d="m79.631 56.778a40.7 40.7 0 0 1 18-9.957c6.381-1.61 13.154-1.133 19.294-3.74 1.344-.57.184-2.532-1.149-1.965-6.456 2.74-13.837 1.991-20.517 4a43.165 43.165 0 0 0 -17.238 10.052c-1.066 1.011.546 2.619 1.61 1.61" fill="#fff" transform="translate(63.814 33.698)"/><path d="m2.016 60.631c3.437-.109 6.895-.009 10.336.007q10.225.049 20.444.126 10.935.074 21.868.153 7.451.055 14.9.1a32.744 32.744 0 0 0 6.7-.461 10.911 10.911 0 0 0 7.348-4.8c1.377-2.219 1.842-5.031 2.847-7.268a9.622 9.622 0 0 1 4.941-5.324c2.752-1.14 5.927-1.075 8.847-1.111s6.057-.022 8.727 1.335a10.64 10.64 0 0 1 3.044 2.268 11.657 11.657 0 0 1 1.938 3.268c.013.029.171.392.056.118.038.089.073.18.109.271.08.195.157.39.228.587.177.475.337.956.5 1.437.226.661.452 1.319.721 1.962a14.338 14.338 0 0 0 2.767 4.363 7.477 7.477 0 0 0 5.416 2.443c.585 0 1.168-.007 1.752-.011l16.615-.115q10.979-.079 21.959-.155l13.941-.1h.7c2.687-.02 2.692-4.2 0-4.179l-10.048.071q-10.626.077-21.249.149l-19.067.133c-1.541.011-3.084.04-4.625.031h-.129c-.1 0-.2-.007-.3-.009-.335-.009.3.073-.022 0-.215-.051-.424-.107-.638-.179.364.122-.306-.168-.417-.239s-.556-.4-.26-.16c-.191-.157-.373-.326-.548-.5-.153-.153-.3-.315-.439-.475-.062-.067-.117-.14-.177-.211.284.344-.077-.107-.107-.149a13.921 13.921 0 0 1 -1.159-1.993c-.064-.133-.117-.27-.184-.4-.153-.308.182.517.067.157-.044-.129-.1-.262-.148-.39a34.113 34.113 0 0 0 -2.793-6.716 14.36 14.36 0 0 0 -6.931-5.558c-3.027-1.208-6.407-1.273-9.623-1.222-3.146.049-6.474.089-9.461 1.193a13.05 13.05 0 0 0 -6.744 5.62c-1.432 2.377-1.976 5.046-3.015 7.581a6.875 6.875 0 0 1 -1.938 2.78 8.137 8.137 0 0 1 -3.346 1.415 19.816 19.816 0 0 1 -4.29.375c-3.947 0-7.895-.044-11.84-.071l-21.019-.154q-10.8-.074-21.593-.138c-4.51-.026-9.021-.067-13.531-.046-.377 0-.754 0-1.129.015-2.681.084-2.694 4.263 0 4.177" fill="#9fa2fc" transform="translate(0 31.113)"/></g></g></svg>