<svg height="98" viewBox="0 0 190 98" width="190" xmlns="http://www.w3.org/2000/svg"><path d="m0 0h190v98h-190z" fill="#d7faf6"/><path d="m40 24h70.933v50.667h-70.933z" fill="#ecaf4a" transform="translate(20.8 -11.1)"/><path d="m344 24h10.133v7.6h-10.133z" fill="#f9d28d" transform="translate(-235.067 -11.1)"/><path d="m344 184h10.133v7.6h-10.133z" fill="#f9d28d" transform="translate(-235.067 -145.767)"/><path d="m40 168h70.933v2.533h-70.933z" fill="#d69f44" transform="translate(20.8 -132.3)"/><path d="m40 328h70.933v2.533h-70.933z" fill="#d69f44" transform="translate(20.8 -266.967)"/><path d="m120 24h10.133v7.6h-10.133z" fill="#f9d28d" transform="translate(-46.533 -11.1)"/><path d="m264 24h2.533v24.067h-2.533z" fill="#d69f44" transform="translate(-167.733 -11.1)"/><path d="m24 128h45.6v55.733h-45.6z" fill="#ef5249" transform="translate(34.267 -98.634)"/><path d="m56 160h35.467v45.6h-35.467z" fill="#0093ba" transform="translate(7.333 -125.567)"/><path d="m129.733 128v5.7a1.9 1.9 0 0 1 -1.9 1.9h-13.933a1.9 1.9 0 0 1 -1.9-1.9v-5.7z" fill="#88bf40" transform="translate(-39.8 -98.634)"/><path d="m285.983 317.533-6.333-6.333v-11.4a3.8 3.8 0 0 0 -3.8-3.8h-5.067v5.067l-3.167-3.167a2.687 2.687 0 1 0 -3.8 3.8l5.7 5.7a7.165 7.165 0 0 0 0 10.133l7.6 7.6z" fill="#f5be9a" transform="translate(-166.917 -240.034)"/><path d="m104.2 16h-70.933a1.267 1.267 0 0 0 -1.267 1.267v12.666h2.533v-11.4h10.134v6.333a1.267 1.267 0 0 0 1.267 1.267h10.133a1.267 1.267 0 0 0 1.267-1.267v-6.333h10.133v11.4h2.533v-11.4h10.133v6.333a1.267 1.267 0 0 0 1.267 1.267h10.133a1.267 1.267 0 0 0 1.267-1.266v-6.334h10.133v22.8h-21.533a1.267 1.267 0 0 0 -1.267 1.267v7.6a1.267 1.267 0 0 0 1.267 1.267h10.133a1.267 1.267 0 0 0 1.267-1.267v-6.333h10.133v22.8h-13.933v2.533h15.2a1.267 1.267 0 0 0 1.267-1.267v-50.666a1.267 1.267 0 0 0 -1.267-1.267zm-49.4 7.6h-7.6v-5.067h7.6zm35.467 0h-7.6v-5.067h7.6zm0 25.333h-7.6v-5.066h7.6z" transform="translate(27.533 -4.367)"/><path d="m448 144h2.533v2.533h-2.533z" transform="translate(-322.6 -112.1)"/><path d="m416 144h2.533v2.533h-2.533z" transform="translate(-295.667 -112.1)"/><path d="m448 304h2.533v2.533h-2.533z" transform="translate(-322.6 -246.767)"/><path d="m416 304h2.533v2.533h-2.533z" transform="translate(-295.667 -246.767)"/><path d="m73 151.667a5.072 5.072 0 0 0 -5.067-5.067h-3.8v-25.333a1.267 1.267 0 0 0 -1.266-1.267h-45.6a1.267 1.267 0 0 0 -1.267 1.267v55.733a1.267 1.267 0 0 0 1.267 1.267h45.6a1.267 1.267 0 0 0 1.266-1.267v-3.275l4.167 4.175 1.8-1.8-7.6-7.6a5.906 5.906 0 0 1 0-8.342 1.267 1.267 0 0 0 0-1.791l-5.7-5.7a1.42 1.42 0 0 1 2.009-2.009l5.7 5.7 1.791-1.791-2.162-2.162v-3.275h3.8a2.536 2.536 0 0 1 2.533 2.533v11.4a1.267 1.267 0 0 0 .371.9l6.333 6.333 1.791-1.791-5.966-5.963zm-40.533-29.134h15.2v4.433a.633.633 0 0 1 -.633.633h-13.934a.633.633 0 0 1 -.633-.633zm28.133 26.338a3.954 3.954 0 1 0 -5.6 5.591l4.871 4.871a8.445 8.445 0 0 0 .829 10.967l.9.9v4.542h-43.067v-53.2h11.4v2.533h-7.6a1.267 1.267 0 0 0 -1.267 1.267v45.6a1.267 1.267 0 0 0 1.267 1.267h35.467v-2.533h-34.2v-43.076h6.4a3.172 3.172 0 0 0 3.1 2.533h13.933a3.172 3.172 0 0 0 3.1-2.533h6.4v17.733h2.533v-19a1.267 1.267 0 0 0 -1.267-1.267h-7.599v-2.533h11.4v27.342z" transform="translate(41 -91.9)"/><path d="m85.772 222.514-1.638-1.638-1.791 1.791 2.533 2.533a1.267 1.267 0 0 0 1.791 0l5.067-5.067-1.791-1.791z" transform="translate(-14.839 -174.672)"/><path d="m85.772 286.514-1.638-1.638-1.791 1.791 2.533 2.533a1.267 1.267 0 0 0 1.791 0l5.067-5.067-1.791-1.791z" transform="translate(-14.839 -228.539)"/><path d="m85.772 350.514-1.638-1.638-1.791 1.791 2.533 2.533a1.267 1.267 0 0 0 1.791 0l5.067-5.067-1.791-1.791z" transform="translate(-14.839 -282.406)"/><path d="m160 216h13.933v2.533h-13.933z" transform="translate(-80.2 -172.7)"/><path d="m160 248h11.4v2.533h-11.4z" transform="translate(-80.2 -199.634)"/><path d="m160 280h13.933v2.533h-13.933z" transform="translate(-80.2 -226.567)"/><path d="m160 312h11.4v2.533h-11.4z" transform="translate(-80.2 -253.5)"/><path d="m160 344h13.933v2.533h-13.933z" transform="translate(-80.2 -280.434)"/><path d="m160 376h11.4v2.533h-11.4z" transform="translate(-80.2 -307.367)"/></svg>